<?xml version="1.0" encoding="UTF-8" standalone="no"?>
<svg
   xmlns:dc="http://purl.org/dc/elements/1.1/"
   xmlns:cc="http://creativecommons.org/ns#"
   xmlns:rdf="http://www.w3.org/1999/02/22-rdf-syntax-ns#"
   xmlns:svg="http://www.w3.org/2000/svg"
   xmlns="http://www.w3.org/2000/svg"
   id="svg8"
   version="1.1"
   viewBox="0 0 210 297"
   height="297mm"
   width="210mm">
  <defs
     id="defs2" />
  <metadata
     id="metadata5">
    <rdf:RDF>
      <cc:Work
         rdf:about="">
        <dc:format>image/svg+xml</dc:format>
        <dc:type
           rdf:resource="http://purl.org/dc/dcmitype/StillImage" />
        <dc:title></dc:title>
      </cc:Work>
    </rdf:RDF>
  </metadata>
  <g
     id="layer1">
    <g
       transform="matrix(0.91373507,0,0,0.91373507,20.101103,-3.7001305)"
       id="g895">
      <path
         id="path874"
         style="fill:#000000;stroke-width:0.07692475"
         d="m 159.66529,126.83231 c 0.0273,-0.187 0.0872,-0.53039 0.13326,-0.76309 0.0461,-0.2327 0.11989,-0.71345 0.16407,-1.06835 0.0442,-0.35491 0.10388,-0.6834 0.13267,-0.72998 0.0288,-0.0466 0.0755,-0.362 0.10386,-0.70092 0.0283,-0.33892 0.11086,-1.27391 0.18341,-2.07777 0.0894,-0.99008 0.1201,-1.87103 0.0953,-2.73083 -0.0496,-1.72092 -0.15908,-1.95729 -0.66764,-1.44234 -0.26173,0.26501 -0.91135,1.55403 -1.0758,2.13466 -0.0539,0.19039 -0.12726,0.4327 -0.16298,0.53848 -0.27149,0.80407 -0.43164,2.64219 -0.32239,3.70041 0.13099,1.26875 0.33767,2.01358 0.80237,2.89158 0.40451,0.76426 0.53125,0.8155 0.61387,0.24815 z m 13.22001,3.50705 c 1.12788,-0.18822 2.19135,-0.47565 2.67351,-0.72259 0.0739,-0.0378 0.42848,-0.2128 0.7881,-0.38885 0.35963,-0.17606 0.80964,-0.42167 1.00003,-0.54582 0.19039,-0.12415 0.39808,-0.25027 0.46155,-0.28029 0.0635,-0.03 0.34039,-0.22832 0.61539,-0.44066 1.11494,-0.86087 2.52074,-2.37114 3.15736,-3.39196 0.1847,-0.29616 0.35468,-0.55578 0.37773,-0.57693 0.15465,-0.14193 0.95309,-1.96839 1.08246,-2.4762 0.0357,-0.14006 0.11781,-0.46233 0.18251,-0.71618 0.15136,-0.5938 0.16111,-2.17715 0.0163,-2.65391 -0.35065,-1.15489 -1.03814,-1.83698 -2.16251,-2.14552 -0.65243,-0.17905 -1.83419,-0.0836 -2.77335,0.224 -0.67775,0.22197 -1.98443,0.93647 -2.53648,1.38696 -0.36878,0.30093 -1.59671,1.54392 -1.88583,1.90894 -0.30712,0.38775 -0.95659,1.34381 -1.10436,1.62569 -0.0554,0.10577 -0.22207,0.41732 -0.37025,0.69232 -0.14818,0.275 -0.38027,0.75963 -0.51574,1.07694 -0.13548,0.31732 -0.27604,0.64617 -0.31237,0.73079 -0.0363,0.0846 -0.15598,0.43078 -0.26588,0.76925 -0.1099,0.33847 -0.23763,0.71925 -0.28383,0.84617 -0.0462,0.12693 -0.11302,0.36924 -0.14848,0.53847 -0.0354,0.16924 -0.10059,0.46348 -0.14474,0.65386 -0.16771,0.72325 -0.32992,1.59662 -0.39287,2.11543 -0.036,0.29617 -0.0991,0.79368 -0.14045,1.10558 -0.0413,0.31191 -0.0568,0.6148 -0.0344,0.67309 0.0556,0.14502 1.8298,0.13941 2.71658,-0.008 z m -41.24293,4.82621 c 0.23836,-0.45151 0.4492,-1.69596 0.56565,-3.3387 0.10751,-1.51663 -0.051,-4.30552 -0.30962,-5.44995 -0.0431,-0.19039 -0.11947,-0.55386 -0.16985,-0.80771 -0.0504,-0.25385 -0.13704,-0.61732 -0.19259,-0.80771 -0.27413,-0.93959 -0.53556,-1.73828 -0.59044,-1.80389 -0.0336,-0.0402 -0.0611,-0.11824 -0.0611,-0.17345 0,-0.0552 -0.0865,-0.27977 -0.19231,-0.49903 -0.10578,-0.21925 -0.19232,-0.42181 -0.19232,-0.45013 0,-0.11551 -0.79986,-1.43061 -1.18303,-1.94511 -0.7354,-0.98743 -1.56217,-1.64012 -2.57117,-2.02977 -0.44748,-0.17281 -0.63632,-0.19955 -1.43822,-0.20362 -1.06675,-0.005 -1.45402,0.0952 -2.18544,0.56796 -0.83476,0.53953 -1.35517,1.39862 -1.73712,2.86764 -0.18408,0.708 -0.15851,2.68285 0.0466,3.5979 0.0894,0.39894 0.1803,0.82921 0.20198,0.95613 0.0216,0.12693 0.0649,0.2654 0.096,0.30771 0.0312,0.0423 0.0799,0.18076 0.10848,0.30769 0.15514,0.69091 1.00073,2.48258 1.60852,3.40816 1.68169,2.56108 4.02075,4.39441 6.63028,5.19675 1.60502,0.49349 1.47609,0.46886 1.56569,0.29913 z m -6.95043,7.07905 c 0.21154,-0.0377 0.46024,-0.10977 0.55265,-0.16023 0.0924,-0.0504 0.22563,-0.0917 0.29604,-0.0917 0.22777,0 1.44223,-0.62525 2.07445,-1.06798 0.33847,-0.23703 0.85213,-0.65517 1.14145,-0.9292 0.52328,-0.49559 1.51246,-1.69526 1.51246,-1.83429 0,-0.0401 0.0519,-0.11595 0.11538,-0.16862 0.16023,-0.13298 0.14763,-0.38472 -0.0193,-0.38425 -0.22804,7.7e-4 -1.27443,-0.36686 -2.46351,-0.86522 -0.48998,-0.20536 -2.29749,-1.22671 -2.40198,-1.35725 -0.0212,-0.0264 -0.17693,-0.14956 -0.34616,-0.27363 -1.69789,-1.24462 -3.1583,-2.90445 -4.47485,-5.08585 -0.15774,-0.26137 -0.7687,-1.52367 -0.87277,-1.80325 -0.0551,-0.14808 -0.1293,-0.30211 -0.16484,-0.34231 -0.0355,-0.0402 -0.0646,-0.145 -0.0646,-0.23289 0,-0.0879 -0.0451,-0.22809 -0.10024,-0.31154 -0.0552,-0.0835 -0.14606,-0.34213 -0.20206,-0.57482 -0.0561,-0.2327 -0.12868,-0.47334 -0.1615,-0.53475 -0.0896,-0.16769 -0.29921,0.38949 -0.38923,1.03475 -0.24361,1.74624 -0.23914,1.6579 -0.095,1.87402 0.15856,0.23779 0.17595,1.12592 0.0347,1.76976 -0.0476,0.21712 -0.12702,0.5765 -0.17638,0.79863 -0.104,0.46802 -0.0984,2.65632 0.008,3.28853 0.0393,0.2327 0.11096,0.68271 0.15919,1.00003 0.0482,0.31731 0.1222,0.7154 0.16438,0.88463 0.0422,0.16923 0.0942,0.39424 0.11567,0.50001 0.067,0.33019 0.42242,1.48832 0.53482,1.74243 0.059,0.13332 0.10723,0.269 0.10723,0.3015 0,0.20037 0.77746,1.55942 1.09751,1.91851 0.39085,0.43852 0.97548,0.77701 1.63332,0.94566 0.34568,0.0886 1.79765,0.0639 2.38466,-0.0406 z m 52.03959,3.66177 c -0.6453,-0.0742 -1.64987,-0.27426 -1.88465,-0.37524 -0.0846,-0.0364 -0.29231,-0.10834 -0.46155,-0.15989 -1.01725,-0.30985 -2.58045,-1.37311 -3.44043,-2.34013 -0.36774,-0.41352 -1.15371,-1.4647 -1.23662,-1.65389 -0.0278,-0.0635 -0.1376,-0.25385 -0.24398,-0.42308 -0.10638,-0.16923 -0.21467,-0.35962 -0.24064,-0.42309 -0.0729,-0.17807 -0.23102,-0.54208 -0.40103,-0.92309 -0.26102,-0.58498 -0.6533,-1.80627 -0.7783,-2.42313 -0.0343,-0.16924 -0.11836,-0.56733 -0.18682,-0.88464 -0.17595,-0.8157 -0.28592,-1.78923 -0.34467,-3.05145 -0.0279,-0.59944 -0.0721,-1.11124 -0.0983,-1.13736 -0.0262,-0.0261 -0.23386,0.0201 -0.46155,0.10262 -0.99433,0.36049 -1.31837,0.41752 -2.41401,0.42496 -1.06381,0.007 -1.88844,-0.11517 -2.53851,-0.37677 -0.12693,-0.0511 -0.35193,-0.13847 -0.50001,-0.19421 -0.14809,-0.0558 -0.31019,-0.13249 -0.36025,-0.17054 -0.10151,-0.0771 -0.28153,0.15787 -0.36736,0.47959 -0.0283,0.10577 -0.0807,0.26154 -0.11649,0.34616 -0.0359,0.0846 -0.15928,0.44809 -0.27429,0.80771 -0.11501,0.35963 -0.25349,0.75771 -0.30773,0.88464 -0.0542,0.12692 -0.19219,0.47308 -0.30655,0.76925 -0.11438,0.29615 -0.25594,0.64755 -0.31459,0.78087 -0.0587,0.13332 -0.10664,0.26351 -0.10664,0.2893 0,0.0487 -0.14641,0.38196 -0.58572,1.3334 -0.14155,0.30656 -0.27911,0.64407 -0.3057,0.75001 -0.0266,0.10596 -0.0792,0.19264 -0.11694,0.19264 -0.0377,0 -0.0686,0.0439 -0.0686,0.0976 0,0.1995 -1.59339,3.27635 -2.0385,3.93636 -0.53215,0.78909 -1.44175,1.78637 -1.99953,2.19229 -0.33464,0.24354 -0.82673,0.50941 -1.49318,0.80674 -0.26921,0.12011 -2.28135,0.10868 -2.40362,-0.0136 -0.0529,-0.0529 -0.15049,-0.0961 -0.21695,-0.0961 -0.26002,0 -1.33339,-0.72006 -1.86695,-1.25241 -0.50857,-0.50743 -1.28921,-1.50047 -1.28921,-1.64 0,-0.0314 -0.0486,-0.11173 -0.10806,-0.17853 -0.12553,-0.14108 -0.82933,-1.55722 -1.13082,-2.27534 -0.30417,-0.72452 -0.94853,-2.62126 -1.07145,-3.15391 -0.3682,-1.59561 -0.4826,-2.16288 -0.54232,-2.6891 -0.0422,-0.37138 -0.11646,-0.65881 -0.18896,-0.73079 -0.10781,-0.10704 -0.15113,-0.0839 -0.44283,0.23659 -0.68194,0.74924 -2.05682,1.81966 -2.95054,2.29716 -0.24738,0.13216 -0.5017,0.27253 -0.56516,0.31192 -0.28391,0.17624 -1.26837,0.61268 -1.38198,0.61268 -0.0691,0 -0.15863,0.0305 -0.19883,0.0679 -0.0921,0.0855 -1.24259,0.45477 -1.71639,0.55091 -0.96819,0.19645 -1.66227,0.29311 -2.42995,0.33842 -0.46333,0.0273 -0.88802,0.0876 -0.94375,0.13381 -0.0557,0.0463 -0.15892,0.20913 -0.22934,0.36197 -0.0704,0.15283 -0.30134,0.55479 -0.5132,0.89327 -1.01466,1.62103 -2.32267,2.94877 -3.85947,3.91765 -0.34035,0.21456 -0.68651,0.43362 -0.76924,0.48678 -0.0828,0.0532 -0.20235,0.11738 -0.26582,0.14272 -0.0635,0.0254 -0.29807,0.12897 -0.52134,0.23028 -0.22328,0.10132 -0.45002,0.18422 -0.50386,0.18422 -0.0539,0 -0.13079,0.0298 -0.17098,0.0663 -0.0402,0.0364 -0.22885,0.10752 -0.41924,0.15789 -0.19039,0.0504 -0.55386,0.1467 -0.80771,0.21405 -0.60206,0.15972 -2.89813,0.18119 -3.46161,0.0323 -1.52342,-0.40236 -2.77065,-1.28799 -3.63753,-2.58292 -0.19941,-0.29786 -0.37987,-0.55888 -0.40102,-0.58004 -0.0212,-0.0212 -0.13767,-0.24616 -0.25894,-0.50001 -0.2035,-0.426 -0.27421,-0.58428 -0.49834,-1.11541 -0.12941,-0.30668 -0.31966,-0.91926 -0.31966,-1.02925 0,-0.0554 -0.0645,-0.15916 -0.1434,-0.23054 -0.13541,-0.12255 -0.14964,-0.11999 -0.25575,0.0458 -0.0618,0.0966 -0.13521,0.23758 -0.16313,0.3134 -0.13631,0.37009 -1.24399,1.78532 -1.93613,2.47368 -2.51055,2.49686 -5.64302,3.41046 -8.555,2.49508 -0.49071,-0.15425 -1.7752,-0.64343 -2.29304,-0.87326 -0.12692,-0.0563 -0.57693,-0.24814 -1.00001,-0.42622 -0.42309,-0.17807 -0.90772,-0.38568 -1.07696,-0.46133 -1.4885,-0.6654 -3.018569,-0.96541 -3.884245,-0.7616 -0.777619,0.18308 -1.432636,0.72261 -1.664401,1.37093 -0.05515,0.15435 -0.100178,0.63131 -0.102222,1.08344 -0.0045,0.91188 -0.109681,1.18736 -0.5601,1.46198 -0.527701,0.32174 -1.35608,0.10514 -1.69918,-0.4443 -0.255151,-0.40861 -0.391117,-1.14046 -0.328426,-1.76777 0.02853,-0.28554 0.04188,-1.45381 0.0298,-2.59614 -0.04497,-4.2214 9.08e-4,-14.2733 0.08322,-18.11578 0.08886,-4.16514 0.163759,-6.24412 0.368366,-10.23099 0.06842,-1.33272 0.148713,-3.11546 0.178469,-3.96163 0.0298,-0.84616 0.09373,-1.95388 0.142144,-2.46158 0.04843,-0.50771 0.123937,-1.54619 0.167811,-2.30775 0.04388,-0.76155 0.131614,-1.97312 0.194986,-2.69237 0.06333,-0.71924 0.114524,-1.523422 0.113679,-1.787062 -8.45e-4,-0.26365 0.0338,-0.71366 0.07705,-1.00004 0.04325,-0.28637 0.144579,-1.35145 0.225232,-2.36686 0.164477,-2.07088 0.192279,-2.23546 0.4196,-2.48401 0.212549,-0.2324 0.714147,-0.4776 0.976984,-0.4776 0.309846,0 0.868375,0.2629 1.002142,0.47171 0.212258,0.33132 0.325392,1.4066 0.229602,2.1822 -0.04706,0.38077 -0.08559,0.9718 -0.08568,1.3134 0,0.34159 -0.04861,0.96468 -0.107792,1.38465 -0.05915,0.41996 -0.146568,1.28281 -0.194213,1.917442 -0.04761,0.63463 -0.122156,1.41349 -0.165585,1.73081 -0.04343,0.31731 -0.113907,1.09618 -0.156609,1.73081 -0.0427,0.63462 -0.107546,1.53464 -0.144098,2.00004 -0.03652,0.4654 -0.104811,1.55581 -0.151684,2.42313 -0.04688,0.86733 -0.103612,1.64619 -0.12609,1.7308 -0.02244,0.0846 -0.07078,1.00195 -0.10741,2.03851 -0.03661,1.03656 -0.101568,2.49044 -0.144424,3.23084 -0.188672,3.26028 -0.267108,7.82769 -0.273014,15.89773 -0.0036,4.70328 0.01863,8.5763 0.04897,8.6067 0.05033,0.0503 0.3101,-0.0236 0.714028,-0.20322 0.359844,-0.15999 1.200626,-0.2985 1.818465,-0.29955 1.180201,-0.002 2.588465,0.34272 3.965355,0.97072 0.2195,0.10011 0.41602,0.18202 0.4367,0.18202 0.0207,0 0.30841,0.12436 0.6394,0.27636 0.33097,0.152 0.72293,0.32799 0.87102,0.3911 0.14808,0.0631 0.33421,0.14946 0.41363,0.19193 0.30283,0.16195 1.5708,0.62555 2.08642,0.76286 0.94391,0.25136 2.36025,0.18127 3.15392,-0.15609 1.19577,-0.50828 1.82721,-0.93089 2.69635,-1.80464 0.65619,-0.65968 1.15424,-1.30384 1.55233,-2.00773 0.30932,-0.54693 0.78987,-1.56481 0.78987,-1.67305 0,-0.0579 0.0508,-0.17247 0.11295,-0.2546 0.0621,-0.0821 0.11404,-0.22028 0.11538,-0.30701 0.002,-0.0868 0.0312,-0.19058 0.0663,-0.23078 0.0352,-0.0402 0.12559,-0.29808 0.20096,-0.57309 0.0754,-0.275 0.16629,-0.58655 0.202,-0.69232 0.0357,-0.10577 0.10028,-0.3827 0.14346,-0.6154 0.0431,-0.2327 0.13121,-0.66538 0.19563,-0.96153 0.0644,-0.29614 0.11826,-0.91923 0.11964,-1.38464 0.002,-0.46541 0.0369,-1.08852 0.079,-1.38468 0.0421,-0.29616 0.0937,-0.74617 0.11487,-1.00002 0.0212,-0.25385 0.0716,-0.68655 0.11203,-0.96156 0.22488,-1.52826 0.32388,-2.14317 0.38392,-2.38467 0.0368,-0.14807 0.15882,-0.68462 0.27113,-1.19233 0.11231,-0.5077 0.25303,-1.03677 0.31273,-1.17571 0.0597,-0.13894 0.10851,-0.30658 0.10851,-0.37253 0,-0.1297 0.33593,-1.14644 0.50895,-1.54037 0.0585,-0.13333 0.10646,-0.26352 0.10646,-0.28931 0,-0.0576 0.29434,-0.73262 0.38871,-0.8914 0.0377,-0.0635 0.127,-0.23654 0.1984,-0.38463 0.28064,-0.58208 0.91927,-1.34244 1.27714,-1.52061 0.1927,-0.0959 0.4466,-0.30363 0.56421,-0.46155 0.71541,-0.96053 1.88736,-1.75653 3.26397,-2.21691 0.5781,-0.19334 2.82515,-0.20491 3.28051,-0.0169 0.16307,0.0673 0.45226,0.16703 0.64265,0.22157 0.19039,0.0545 0.5472,0.1982 0.79291,0.3193 2.17793,1.07338 3.73329,2.97621 4.9218,6.02131 0.31526,0.80775 0.51619,1.40017 0.51619,1.52194 0,0.0737 0.035,0.19413 0.0778,0.26761 0.0941,0.1616 0.37385,1.28299 0.46272,1.85483 0.0353,0.22744 0.0985,0.50437 0.14029,0.61539 0.0418,0.11103 0.0955,0.39225 0.11934,0.62495 0.0238,0.2327 0.0954,0.83848 0.15913,1.34619 0.19782,1.57657 0.22782,3.02273 0.0878,4.23085 -0.1698,1.46481 -0.28096,2.17025 -0.40271,2.55567 -0.16096,0.50956 -0.11178,0.55321 0.57302,0.50853 0.32471,-0.0212 0.7209,-0.0876 0.8804,-0.14748 0.15953,-0.06 0.35463,-0.10896 0.43358,-0.10896 0.15271,0 1.30077,-0.36634 1.4303,-0.45641 0.0423,-0.0294 0.31924,-0.15298 0.61539,-0.27458 0.29617,-0.12161 0.55579,-0.24258 0.57694,-0.26883 0.0212,-0.0263 0.26421,-0.17276 0.54011,-0.32559 0.67686,-0.37491 1.80782,-1.25972 2.30779,-1.80549 0.50819,-0.55474 1.11046,-1.36747 1.49916,-2.02306 l 0.29646,-0.50001 0.0591,-1.57696 c 0.13084,-3.49364 0.30878,-6.32907 0.44655,-7.11554 0.0445,-0.25385 0.081,-0.64985 0.0813,-0.88001 0,-0.23014 0.0334,-0.61092 0.0739,-0.84617 0.0403,-0.23524 0.11143,-0.7365 0.15794,-1.11392 0.12892,-1.04598 0.41819,-1.35532 1.27354,-1.36188 0.43098,-0.004 0.54023,0.0257 0.77673,0.20607 0.15136,0.11545 0.34219,0.36132 0.42405,0.54639 0.14241,0.32195 0.14371,0.37049 0.0301,1.12376 -0.0653,0.433 -0.15441,1.15073 -0.19796,1.59498 -0.0435,0.44424 -0.11446,1.10194 -0.15761,1.46157 -0.10032,0.83643 -0.20374,2.41683 -0.30515,4.66353 -0.10297,2.28119 0.0417,5.73361 0.30266,7.22134 0.17277,0.98509 0.24959,1.38182 0.32768,1.69234 0.0426,0.16924 0.10513,0.46348 0.13903,0.65387 0.0818,0.45936 0.36752,1.46583 0.46375,1.6336 0.0422,0.0735 0.0766,0.18817 0.0766,0.25488 0,0.31131 1.52742,3.69333 1.79793,3.98098 0.0477,0.0507 0.18757,0.22711 0.31083,0.392 0.32611,0.43628 0.64795,0.72656 1.08361,0.97737 1.11001,0.63902 2.3687,-0.0451 3.52408,-1.9152 0.45231,-0.73214 2.28374,-4.42108 2.28374,-4.6 0,-0.0417 0.22529,-0.55151 0.47066,-1.06501 0.0796,-0.16661 0.14474,-0.34554 0.14474,-0.39763 0,-0.0521 0.0505,-0.1927 0.11217,-0.31248 0.0617,-0.11977 0.20662,-0.47739 0.32205,-0.79471 0.11544,-0.31731 0.23206,-0.61155 0.25916,-0.65386 0.0271,-0.0423 0.14625,-0.38847 0.2648,-0.76924 0.11855,-0.38078 0.26045,-0.79618 0.31533,-0.9231 0.19989,-0.46227 0.35346,-1.10844 0.29018,-1.22102 -0.035,-0.0623 -0.25478,-0.31497 -0.48839,-0.56152 -0.43365,-0.4577 -0.48179,-0.51979 -0.97366,-1.25599 -0.33675,-0.50404 -0.81487,-1.45541 -0.94714,-1.88466 -0.0522,-0.16924 -0.13843,-0.41155 -0.19172,-0.53847 -0.0533,-0.12693 -0.1343,-0.40386 -0.18001,-0.6154 -0.0457,-0.21154 -0.12743,-0.59232 -0.18161,-0.84617 -0.15059,-0.70555 -0.12394,-2.84474 0.046,-3.69239 0.0763,-0.38077 0.16325,-0.83078 0.19316,-1.00002 0.0299,-0.16924 0.0954,-0.38331 0.14547,-0.47572 0.0501,-0.0924 0.0911,-0.24992 0.0911,-0.35002 0,-0.10008 0.0275,-0.21486 0.0612,-0.25506 0.0337,-0.0402 0.10689,-0.21154 0.16271,-0.38078 0.10883,-0.33002 0.17069,-0.47843 0.54035,-1.29658 1.26485,-2.7994 3.8895,-3.62117 5.31782,-1.66501 0.32018,0.43849 0.50242,0.91673 0.6449,1.69234 0.22145,1.20556 0.0853,4.89262 -0.26979,7.30785 -0.0466,0.31732 -0.11117,0.78464 -0.14338,1.03849 -0.0322,0.25385 -0.0981,0.61732 -0.14649,0.80771 -0.0483,0.19039 -0.14149,0.62309 -0.20695,0.96155 -0.0654,0.33847 -0.17312,0.8404 -0.23929,1.11542 -0.24342,1.01168 -0.25965,0.94384 0.29129,1.21743 1.40085,0.69566 2.71382,0.71829 4.18013,0.0721 0.45206,-0.19922 1.24831,-0.7931 1.30359,-0.97228 0.0442,-0.14299 0.26574,-1.37598 0.31972,-1.7788 0.0198,-0.14808 0.0847,-0.44232 0.14404,-0.65387 0.0593,-0.21154 0.14936,-0.54039 0.19996,-0.73078 0.15337,-0.5771 0.21459,-0.78338 0.41092,-1.38465 0.31085,-0.95201 0.51463,-1.49579 0.58953,-1.5731 0.0389,-0.0402 0.0708,-0.12299 0.0708,-0.18398 0,-0.1979 1.45421,-3.05081 1.61385,-3.1661 0.0293,-0.0212 0.17468,-0.22885 0.3231,-0.46155 0.817,-1.28103 2.68852,-3.15081 3.90932,-3.9057 0.45589,-0.2819 1.62947,-0.83633 2.11544,-0.99939 1.31491,-0.4412 1.24382,-0.42984 2.69236,-0.43027 1.29131,0 1.42353,0.0131 1.96158,0.19912 0.73796,0.25521 1.00737,0.39076 1.58508,0.79744 0.47836,0.33675 1.07265,0.97686 1.42143,1.53105 0.24611,0.39103 0.60895,1.23642 0.60895,1.41879 0,0.0767 0.0519,0.26365 0.11539,0.41554 0.16009,0.38314 0.1626,2.7441 0.004,3.35305 -0.0615,0.23547 -0.16287,0.63583 -0.2253,0.88968 -0.37117,1.50949 -1.50926,3.68964 -2.69052,5.15395 -0.43326,0.53709 -2.24756,2.32609 -2.70694,2.6692 -0.20952,0.15649 -0.54567,0.40746 -0.74701,0.55771 -0.20132,0.15024 -0.38472,0.27317 -0.40754,0.27317 -0.0228,0 -0.22157,0.1125 -0.44165,0.25 -0.62007,0.38739 -1.78471,0.94658 -2.51559,1.2078 -0.14808,0.0529 -0.33847,0.1225 -0.42309,0.15461 -0.3287,0.12474 -1.02086,0.31021 -1.46157,0.39166 -0.25385,0.0469 -0.61732,0.12472 -0.80771,0.17294 -0.19039,0.0482 -1.00387,0.106 -1.80773,0.12843 l -1.46158,0.0408 0.0196,0.69232 c 0.034,1.20237 0.23165,2.35777 0.64478,3.76932 0.30617,1.04612 0.98427,2.39422 1.58641,3.15391 0.44584,0.56248 1.25981,1.31392 1.82624,1.68594 0.63119,0.41453 1.47856,0.81412 1.72648,0.81412 0.0767,0 0.2688,0.0541 0.42698,0.12016 0.41172,0.17202 2.5768,0.16856 3.18362,-0.005 1.3967,-0.39972 2.28706,-0.8134 3.31695,-1.5412 1.53161,-1.08234 2.6256,-2.32633 4.05726,-4.61355 0.31042,-0.49591 1.7121,-3.44412 1.7121,-3.6011 0,-0.0539 0.0284,-0.13079 0.0631,-0.17098 0.0347,-0.0402 0.15805,-0.3327 0.27417,-0.65001 0.11613,-0.31732 0.26086,-0.69062 0.3216,-0.82956 0.0608,-0.13893 0.11046,-0.31375 0.11046,-0.38847 0,-0.0747 0.0299,-0.16874 0.0664,-0.20893 0.0365,-0.0402 0.17596,-0.40193 0.30986,-0.80387 0.47385,-1.42235 0.71257,-1.69234 1.4964,-1.69234 0.97602,0 1.51784,0.82092 1.16775,1.76927 -0.0703,0.19039 -0.15807,0.45001 -0.19509,0.57694 -0.12632,0.43316 -0.43321,1.26747 -0.48545,1.3197 -0.0287,0.0287 -0.0522,0.10169 -0.0522,0.16229 0,0.0606 -0.0487,0.21925 -0.10813,0.35258 -0.0595,0.13331 -0.16904,0.41547 -0.24348,0.62701 -0.0744,0.21155 -0.16426,0.41752 -0.19958,0.45771 -0.0353,0.0402 -0.0642,0.12445 -0.0642,0.18725 0,0.0628 -0.0658,0.25492 -0.14624,0.42694 -0.0804,0.17201 -0.20594,0.45122 -0.27888,0.62045 -0.39888,0.92523 -1.27338,2.71203 -1.4873,3.03886 -0.22837,0.34889 -0.3187,0.49819 -0.37217,0.61507 -0.0291,0.0635 -0.31092,0.47886 -0.62639,0.9231 -1.62706,2.29114 -3.34815,3.84999 -5.32783,4.82562 -1.05141,0.51816 -1.43557,0.68188 -1.76141,0.75075 -0.14808,0.0312 -0.30385,0.082 -0.34616,0.11252 -0.0982,0.071 -1.20522,0.28698 -1.98639,0.38759 -0.68477,0.0882 -1.14996,0.0861 -1.97523,-0.009 z" />
      <path
         style="fill:#000000;stroke-width:0.07692475"
         d="m 61.343912,144.69436 c -0.654063,-0.21355 -1.244954,-0.80635 -1.649645,-1.65498 -0.401711,-0.8424 -1.14941,-3.04689 -1.424731,-4.20065 -0.44882,-1.88078 -1.392405,-5.30792 -2.075615,-7.53863 -0.161969,-0.52885 -0.401547,-1.41156 -0.53238,-1.96158 -0.286033,-1.20247 -0.517497,-1.92092 -1.573735,-4.88472 -1.969422,-5.52623 -3.278821,-8.53653 -4.918625,-11.30793 -0.578299,-0.97741 -0.802504,-1.17789 -0.967753,-0.86541 -0.03916,0.074 -0.09377,0.79232 -0.121356,1.59619 -0.122992,3.58345 -0.274068,4.82426 -0.857018,7.03861 -0.390572,1.48361 -1.034741,2.81308 -2.310859,4.76933 -0.510592,0.78272 -1.389434,2.15006 -1.952986,3.03854 -1.991836,3.14024 -2.882325,4.11712 -3.764101,4.12929 -0.328644,0.005 -0.548343,-0.0942 -0.911568,-0.40973 -0.438507,-0.38091 -0.508766,-0.34418 -1.407341,0.73574 -0.685926,0.82435 -2.056053,2.22065 -2.811548,2.86525 -1.010292,0.86199 -4.281499,3.19854 -4.843225,3.45939 -0.853556,0.39638 -2.341741,0.64384 -3.866714,0.64295 -1.133228,-7.7e-4 -1.643867,-0.20793 -1.994453,-0.80956 -0.165839,-0.28458 -0.175261,-0.36575 -0.138083,-1.19006 0.0219,-0.48654 0.07123,-1.0577 0.109482,-1.26925 0.311463,-1.72142 0.344335,-2.05618 0.347524,-3.53854 0.0018,-0.84618 -0.03898,-1.86735 -0.09067,-2.26928 -0.224279,-1.74483 -0.262356,-2.20832 -0.316025,-3.84703 -0.04052,-1.23646 -0.08795,-1.79734 -0.165994,-1.96158 -0.297908,-0.62695 -1.276654,-0.66277 -5.186143,-0.18984 -0.67694,0.0819 -1.611576,0.1929 -2.076977,0.24668 -1.624705,0.18778 -7.4337751,0.0838 -11.2310112,-0.20108 -0.8461693,-0.0635 -2.0523283,-0.13846 -2.6803527,-0.16663 -1.03316,-0.0463 -1.179283,-0.0708 -1.535075,-0.25664 -0.300825,-0.15715 -0.436536,-0.28958 -0.577527,-0.56353 -0.176133,-0.34228 -0.180131,-0.38304 -0.0904,-0.92087 0.05161,-0.30951 0.223633,-0.96083 0.382185,-1.44738 0.437072,-1.34123 0.495793,-1.64019 0.372964,-1.89905 -0.141817,-0.29888 -0.57609,-0.50019 -2.718112,-1.26 -1.307527,-0.4638 -2.233377,-0.90119 -4.038549,-1.90788 -0.86733,-0.48369 -1.992355,-1.10182 -2.500058,-1.37362 -2.4433361,-1.30809 -3.1960871,-1.8154 -3.4648121,-2.33505 -0.190979,-0.36933 -0.14179,-0.91002 0.132777,-1.45948 0.184174,-0.36857 0.465746,-0.70834 1.134637,-1.36918 1.5458611,-1.52725 2.7751791,-2.40758 5.1205451,-3.66686 0.892369,-0.47913 2.192573,-1.25049 2.365436,-1.40331 0.188445,-0.16659 0.16782,-0.34502 -0.06505,-0.56253 -0.301714,-0.28187 -0.415857,-0.55954 -0.415021,-1.00961 9.09e-4,-0.53652 0.223197,-0.99827 0.899547,-1.86925 1.023829,-1.31844 2.635797,-2.696772 3.821985,-3.268012 0.757013,-0.36456 2.692382,-1.03038 3.4538735,-1.18821 0.3051399,-0.0632 1.0163971,-0.21999 1.5805766,-0.34829 1.6382065,-0.37256 3.4813388,-0.43271 5.9743738,-0.19495 0.708467,0.0676 3.33109,-0.40687 4.871835,-0.88132 0.679585,-0.20927 1.384546,-0.42056 1.566576,-0.46952 0.182039,-0.049 0.547325,-0.18709 0.811753,-0.30693 0.431311,-0.19547 0.480782,-0.24116 0.480782,-0.44403 0,-0.34154 -1.486177,-2.41227 -2.764585,-3.852 -0.59437,-0.66937 -3.238889,-3.14093 -4.559735,-4.26153 -0.509276,-0.43206 -1.311044,-1.11213 -1.781696,-1.51128 -2.0663745,-1.752379 -6.4410278,-6.42848 -8.3476959,-8.922905 -1.444456,-1.889723 -2.254256,-3.60334 -2.430235,-5.142605 -0.04942,-0.432192 -0.03325,-0.528073 0.152702,-0.908233 0.264527,-0.540675 0.593199,-0.800386 2.284738,-1.805363 C 3.8274334,67.084876 4.1357897,66.870846 4.8559416,66.193383 5.3379237,65.739975 5.5220343,65.502505 5.7132771,65.087602 6.1272716,64.189427 6.2975358,62.878829 6.1805496,61.490885 5.9458322,58.706312 5.7247159,56.754452 5.4964674,55.452295 5.4186034,55.008054 5.3143011,54.384964 5.2647028,54.067649 5.2150958,53.750335 5.1272468,53.213784 5.0694896,52.875319 4.9014696,51.890721 4.7953316,50.387845 4.8467561,49.721398 5.0023288,47.70523 5.538561,46.17 6.2206171,45.788077 7.0801785,45.306759 7.8880884,45.538069 10.72365,47.07737 c 2.688111,1.459238 3.8907,2.14113 5.840897,3.311946 1.464553,0.879232 3.741977,2.034257 4.491975,2.278142 0.647667,0.210613 0.919445,0.162478 1.925521,-0.340982 1.477946,-0.739577 3.370767,-2.186132 5.457948,-4.171127 0.9643,-0.917073 1.310997,-1.08632 1.950523,-0.95218 0.227222,0.0477 0.564462,0.190761 0.749399,0.318005 0.42109,0.289722 1.533758,1.516759 3.215867,3.54641 1.516405,1.829722 2.2551,2.81968 3.472716,4.653944 0.533607,0.803867 1.208013,1.807735 1.498679,2.230824 0.965781,1.405797 2.26783,3.600733 2.829184,4.769332 0.587393,1.222822 0.905389,1.963144 2.114601,4.923183 1.194311,2.92351 1.482125,3.580426 1.993826,4.55076 0.793273,1.504302 0.924178,1.615837 1.481507,1.262389 0.429603,-0.27245 0.882412,-0.792391 1.478454,-1.697681 0.702435,-1.066858 1.242837,-2.15723 2.268447,-4.577017 1.224457,-2.888944 1.263189,-2.971432 2.058715,-4.384706 0.381059,-0.676941 0.940869,-1.720658 1.244028,-2.319372 0.946865,-1.86998 1.568665,-2.677827 3.084407,-4.007259 0.86911,-0.762291 1.238685,-0.973222 1.693202,-0.966363 0.655653,0.0099 1.084784,0.349696 1.632709,1.292863 0.515717,0.887727 0.650857,1.038521 0.930448,1.038194 0.135348,0 0.367249,-0.07396 0.515326,-0.163896 0.424125,-0.257731 1.372544,-1.074681 1.965642,-1.693183 0.520378,-0.542665 0.692305,-0.761419 1.95603,-2.488882 0.504578,-0.689743 1.635581,-1.912292 3.204411,-3.463768 0.64088,-0.633802 1.241393,-0.9648 2.175356,-1.199054 1.264353,-0.317133 2.234386,0.06951 2.605106,1.03823 0.08913,0.23281 0.235998,0.9178 0.326445,1.522211 0.0904,0.604392 0.17816,1.12109 0.194923,1.148202 0.01672,0.02708 0.07041,0.529826 0.11923,1.117138 0.100932,1.214145 0.09827,2.484694 -0.0064,3.10634 -0.164722,0.977365 -0.230792,1.817647 -0.16464,2.093813 0.0377,0.157344 0.214711,0.451581 0.39337,0.653863 0.396596,0.449011 0.406599,0.47336 0.783443,1.906277 0.206106,0.783715 0.325546,1.437651 0.372309,2.0385 0.156827,2.01505 0.407889,2.617471 1.277381,3.065028 0.09004,0.04634 0.557356,0.169742 1.038484,0.274208 1.964607,0.426587 3.120359,1.084766 3.265756,1.859795 0.06869,0.366277 -0.0055,1.497253 -0.130769,1.993435 -0.05342,0.211541 -0.25089,0.921171 -0.438825,1.576952 -0.187936,0.655789 -0.457715,1.625041 -0.599514,2.153896 -0.237461,0.885701 -0.683746,2.293451 -1.243691,3.923163 -0.597633,1.739365 -1.454878,3.664795 -2.397427,5.384725 -1.002296,1.82898 -1.571918,3.28635 -1.888633,4.83207 -0.251153,1.22575 -0.185074,1.31853 1.269349,1.78187 2.291153,0.72992 3.977259,1.38896 4.941086,1.93133 0.369457,0.2079 0.688498,0.37801 0.708968,0.37801 0.07914,0 1.956257,1.2035 2.503964,1.6054 0.80652,0.59179 1.321528,1.09317 1.933035,1.8819 1.26775,1.63515 1.384945,2.73352 0.360925,3.38262 -0.225123,0.1427 -0.703534,0.41995 -1.06316,0.616122 -1.10321,0.60179 -2.440393,1.61309 -4.807801,3.63607 -0.96003,0.82036 -1.512153,1.18516 -2.730822,1.80431 -0.528864,0.26869 -1.748343,1.01659 -2.709963,1.66204 -3.880051,2.60425 -5.072454,3.15027 -7.444105,3.40883 -0.444241,0.0484 -1.17118,0.17142 -1.615421,0.2733 -1.197782,0.2747 -2.042243,0.3487 -3.982437,0.34899 -1.671878,0 -2.870632,-0.0666 -4.210049,-0.23478 -0.80354,-0.10089 -3.319597,-0.10921 -3.701919,-0.0123 -0.163995,0.0416 -0.65867,0.13692 -1.099276,0.21185 -0.689716,0.1173 -0.900356,0.1237 -1.514897,0.0461 -0.807392,-0.10198 -0.953298,-0.0741 -0.953298,0.18204 0,0.22396 0.632331,1.60952 1.790899,3.92415 0.48856,0.97609 1.268514,2.58574 1.733224,3.577 0.464701,0.99128 1.055311,2.24562 1.31247,2.78745 0.408279,0.86024 1.156524,2.67105 1.817938,4.39959 0.113324,0.29616 0.362633,0.93656 0.554022,1.4231 0.191388,0.48655 0.789402,2.11351 1.328914,3.61547 1.002896,2.79195 1.52073,4.18732 2.083973,5.6155 0.846097,2.1454 1.957357,5.91045 1.953341,6.6181 -0.0027,0.54583 -0.204526,0.89884 -0.655381,1.14853 -0.280945,0.15559 -0.466209,0.19307 -1.03455,0.20923 -0.380777,0.0108 -0.779081,-0.009 -0.885137,-0.0433 z"
         id="path872" />
      <path
         style="fill:#d40000;stroke-width:0.29073921"
         d="m 27.373047,178.14258 c -1.571433,0.0957 -2.236074,1.66936 -2.951172,5.79101 -0.902505,5.20161 -0.53607,10.98942 1.400391,22.16016 1.016064,5.86134 1.550777,9.74326 2.205078,15.99219 1.111803,10.6177 1.189699,12.61343 0.693359,17.62109 -0.606466,6.11858 -1.736854,9.24363 -4.580078,12.6543 -2.120553,2.54371 -7.404893,6.48441 -12.619141,9.41015 -4.935205,2.76916 -6.7758789,4.09977 -7.1542965,5.17579 -0.5680743,1.61524 0.9478886,6.11647 3.6503906,10.83984 1.2863494,2.24829 5.2996509,7.76154 7.1933599,9.88281 0.582668,0.65265 2.170079,2.47598 3.529296,4.05078 10.335951,11.97541 19.263943,21.01854 27.621094,27.97852 9.555315,7.95776 18.683232,16.47575 22.353516,20.86133 3.931778,4.6981 9.974251,12.97362 10.826172,14.82812 0.812058,1.76761 0.71387,3.83942 -0.25,5.32617 -0.625146,0.96412 -1.325346,1.49829 -3.269532,2.48633 -1.361242,0.69184 -3.261262,1.52877 -4.220703,1.86133 -4.719212,1.63567 -11.2626,3.55729 -13.082031,3.83984 -1.11936,0.17386 -3.606513,0.62692 -5.525391,1.00782 -4.597481,0.91253 -8.495062,1.12886 -12.9375,0.71875 -9.61074,-0.88717 -17.02276,0.0926 -28.048828,3.70703 -8.2387481,2.70043 -10.511226,4.05231 -16.0253904,9.53515 -3.1020397,3.08444 -5.1790148,5.8721 -5.0136718,6.73047 0.054614,0.28385 0.8000064,1.05037 1.6542968,1.70313 1.8650041,1.42495 2.3457423,2.21824 2.359375,3.88672 0.010205,1.14893 -0.1299043,1.3966 -1.5703125,2.80273 -2.1154015,2.06529 -5.4817781,4.26487 -10.9218751,7.13867 -6.172486,3.26075 -13.111999,7.70798 -16.03125,10.27149 -1.336792,1.17388 -3.572313,3.32273 -4.966797,4.77539 -2.402857,2.5031 -2.518889,2.68451 -2.24414,3.47265 0.310752,0.89156 3.611599,2.92627 12.048828,7.42969 2.238682,1.19494 5.510539,2.99447 7.269531,3.99805 5.516746,3.14744 10.549508,5.5237 15.390625,7.26758 2.5712882,0.92625 5.70326658,2.09297 6.9589844,2.59179 4.2204019,1.67656 6.1757163,3.41591 6.4921875,5.77539 0.2204598,1.64459 -0.3476314,5.39197 -1.2226563,8.06836 -1.7659313,5.40136 -1.8604059,6.39069 -0.6347656,6.66407 0.349115,0.0779 3.7755236,0.34467 7.613281,0.59375 3.837758,0.24907 8.743605,0.57303 10.902344,0.7207 15.711045,1.07512 36.370329,0.9372 38.603516,-0.25781 0.351004,-0.18785 1.08312,-1.02441 1.626953,-1.85938 0.543866,-0.83497 1.767484,-2.3837 2.71875,-3.44141 3.683576,-4.09579 6.128432,-7.71169 8.783203,-12.99218 4.673027,-9.29484 6.360143,-14.9242 6.671875,-22.25977 0.194343,-4.57674 0.20214,-4.61511 1.003906,-5.30469 0.943642,-0.81165 1.370605,-0.85284 2.632813,-0.2539 1.633519,0.77514 2.072816,1.90801 2.02539,5.22851 -0.07793,5.46618 -0.966159,9.53252 -3.65039,16.7168 -2.659442,7.11787 -6.745404,14.57649 -10.886719,19.87305 -0.856732,1.09572 -1.555172,2.07613 -1.552734,2.17968 0.02041,0.82961 0.604267,0.89673 7.27539,0.83399 8.15297,-0.0767 9.523074,0.19111 11.488281,2.23633 1.809574,1.88311 2.10352,3.24227 2.451172,11.36523 0.296353,6.92145 0.58936,10.32763 1.228516,14.2461 0.182702,1.11938 0.337955,5.10943 0.345703,8.86718 0.01361,6.58659 -0.309309,10.33697 -1.259766,14.60743 -0.151445,0.68069 -0.365396,2.233 -0.474609,3.44921 -0.188863,2.10422 -0.164853,2.23548 0.492187,2.71094 0.594686,0.43034 1.195477,0.47815 4.333985,0.34961 2.004213,-0.082 4.620513,-0.36464 5.814453,-0.62891 3.05276,-0.67521 6.3011,-2.3334 10.02148,-5.11914 1.75897,-1.31709 4.29991,-3.16911 5.64649,-4.11328 6.68201,-4.6851 12.20629,-10.1455 19.82226,-19.59375 2.8296,-3.51038 4.80046,-3.76178 7.45313,-0.95117 0.79296,0.84011 1.61539,1.43945 1.97266,1.43945 1.18793,0 3.3554,-2.918 10.37109,-13.95898 2.79288,-4.39536 6.12871,-9.62815 7.41406,-11.62695 2.87358,-4.46873 4.01425,-6.73939 5.54492,-11.04688 2.56,-7.20412 3.67138,-15.61536 3.9961,-30.23828 0.22938,-10.33429 0.68065,-14.29785 1.88672,-16.61523 1.06348,-2.04341 1.06992,-2.27698 0.11523,-3.90625 -0.88846,-1.51609 -1.68283,-2.14766 -2.44922,-1.94727 -0.68781,0.17991 -2.43167,2.45897 -4.07031,5.31641 -1.38288,2.41152 -4.32536,6.48785 -6.74023,9.33984 -2.45578,2.9003 -5.88442,7.47305 -10.10743,13.48242 -2.13504,3.03825 -4.62653,6.57039 -5.53711,7.84961 -4.77899,6.71403 -8.91422,12.91463 -11.57617,17.35742 -1.27433,2.12686 -3.52533,5.89451 -5.00195,8.37305 -1.47659,2.47854 -3.82813,6.3394 -5.22656,8.57813 -3.19359,5.11234 -7.18321,12.20205 -9.73438,17.29882 -1.08055,2.15876 -2.51777,4.90619 -3.19336,6.10547 -0.67562,1.19932 -1.95344,3.55341 -2.83984,5.23242 -3.25564,6.16687 -3.85483,7.09954 -4.90235,7.625 -1.3918,0.69827 -2.57386,0.35048 -3.24804,-0.95312 -0.77315,-1.4953 -0.46436,-2.48489 2.39843,-7.68945 1.4073,-2.55856 4.25367,-7.92228 6.32618,-11.91993 5.12483,-9.88535 6.49286,-12.27 13.16601,-22.96875 0.59843,-0.95943 3.02417,-5.01599 5.39258,-9.01367 5.07435,-8.56501 5.97732,-9.95036 12.67578,-19.49023 2.80212,-3.99077 5.85679,-8.36932 6.78906,-9.72852 2.54822,-3.71505 7.26277,-9.97523 9.84961,-13.08008 3.07134,-3.68625 4.30845,-5.38548 6.57227,-9.03125 2.69982,-4.34793 3.8898,-5.89146 5.22851,-6.77734 0.88163,-0.58341 1.16993,-0.96664 1.16993,-1.55273 0,-0.83551 -3.50363,-7.28995 -6.67578,-12.29688 -1.06377,-1.67902 -2.70087,-4.36189 -3.63868,-5.96094 -0.93777,-1.59908 -4.21072,-6.70056 -7.27148,-11.33789 -6.14876,-9.3157 -8.99453,-13.97159 -12.79492,-20.93359 -1.39662,-2.55851 -3.55336,-6.35286 -4.79297,-8.43164 -1.23961,-2.07878 -3.72591,-6.33107 -5.52539,-9.44922 -3.85987,-6.68852 -5.86745,-9.90701 -11.42578,-18.31836 -2.27279,-3.43939 -5.11057,-7.75622 -6.30664,-9.59375 -2.22426,-3.41727 -6.4549,-9.43273 -13.80079,-19.62305 -1.037422,-1.43916 -2.667619,-3.8598 -3.623042,-5.3789 -0.955457,-1.51914 -2.628108,-4.03401 -3.716797,-5.58789 -1.088659,-1.55389 -3.680969,-5.44288 -5.759765,-8.64258 -2.078763,-3.19967 -6.052167,-9.25393 -8.830078,-13.45508 -2.777878,-4.20124 -5.732957,-8.75211 -6.566407,-10.11133 -0.833412,-1.35921 -3.016914,-4.56456 -4.853515,-7.12304 -1.836605,-2.55852 -4.56083,-6.3509 -6.052735,-8.42969 -1.49187,-2.07877 -5.004899,-6.85547 -7.80664,-10.61328 -2.801707,-3.75782 -6.280487,-8.44611 -7.732422,-10.41993 -1.451898,-1.97382 -3.529221,-4.78725 -4.615235,-6.25 -1.086017,-1.46282 -2.04805,-2.95522 -2.138672,-3.3164 -0.273675,-1.09014 0.150767,-2.09571 1.140626,-2.69922 2.121135,-1.29329 3.063459,-0.61076 7.488281,5.42578 1.976844,2.69691 5.694758,7.69988 8.261719,11.11719 5.238013,6.9731 8.459096,11.36609 10.666015,14.54687 0.821635,1.18423 2.62056,3.69175 3.998047,5.57227 3.053038,4.16789 5.45157,7.69048 8.498047,12.48047 1.271274,1.99882 2.993885,4.64625 3.828125,5.88281 0.834202,1.23659 2.817885,4.24624 4.40625,6.6875 7.18388,11.04166 17.392858,26.2252 21.656248,32.20508 6.6522,9.3305 10.85212,15.55057 21.09961,31.2539 1.56522,2.39861 4.50793,7.23991 6.53906,10.75782 2.03114,3.51794 4.87372,8.4238 6.31641,10.90234 1.44273,2.47858 4.09566,7.12219 5.89648,10.32031 4.17697,7.41804 5.52519,9.60158 10.83789,17.56055 2.39064,3.58137 5.22162,7.96476 6.29297,9.74023 1.07139,1.77548 3.26604,5.38694 4.875,8.0254 1.60894,2.63845 4.65796,7.8046 6.77539,11.48242 2.11743,3.67789 5.07941,8.55204 6.58399,10.83008 2.56727,3.88716 2.83936,4.19372 4.40234,4.98046 5.37214,2.70426 11.23422,3.56545 16.4336,2.41602 4.85007,-1.07221 10.52091,-1.04826 20.70117,0.0859 3.38008,0.37682 6.19242,0.46011 12.50195,0.36914 7.41035,-0.10734 8.46721,-0.1867 11.77539,-0.88282 1.99886,-0.42062 6.13323,-1.1613 9.1875,-1.64648 5.47661,-0.86993 6.95385,-1.23716 8.87696,-2.20117 2.42174,-1.21399 11.54601,-6.84387 13.98437,-8.62891 3.02271,-2.21287 7.56434,-4.97203 13.10547,-7.96289 4.05031,-2.18623 6.64119,-4.04705 11.39258,-8.18359 5.57931,-4.8573 10.58071,-8.62285 14.20117,-10.68946 5.08524,-2.90271 5.13476,-2.93969 5.13476,-3.88476 0,-1.48139 -3.83895,-6.39636 -6.94335,-8.89063 -5.99238,-4.81466 -14.44542,-9.47086 -22.2754,-12.26953 -1.11932,-0.40006 -2.69067,-0.97756 -3.49023,-1.28125 -0.79952,-0.30349 -3.57097,-1.21774 -6.16016,-2.03125 -6.34061,-1.99234 -7.37006,-2.74223 -7.94336,-5.80078 -0.30081,-1.6038 -0.0713,-4.37521 0.63672,-7.70898 0.49665,-2.33855 1.96315,-7.32119 2.57813,-8.75586 0.6943,-1.61979 0.74053,-2.72852 0.11328,-2.72852 -0.24964,0 -1.91803,0.87161 -3.70703,1.93555 -8.41667,5.00564 -31.64407,14.80944 -39.07031,16.49023 -3.6354,0.82284 -6.19336,-0.13123 -6.19336,-2.31054 0,-1.49545 1.21099,-2.63067 3.07812,-2.88477 3.97546,-0.54104 12.82675,-3.57121 20.18164,-6.91015 0.87947,-0.39927 3.4958,-1.57457 5.81446,-2.61133 9.50325,-4.24921 15.18892,-7.36765 17.48632,-9.58789 2.00246,-1.93522 2.75362,-2.09341 4.45118,-0.94141 0.61079,0.41447 1.30688,0.66597 1.58984,0.57617 0.68651,-0.21804 2.45517,-3.38753 5.27539,-9.45508 3.47963,-7.48617 6.99554,-17.27378 8.84375,-24.625 0.41008,-1.63121 1.07913,-3.98724 1.48633,-5.23437 0.89866,-2.75254 2.37118,-8.02877 2.90429,-10.4082 0.554,-2.47284 0.50786,-3.72147 -0.16601,-4.57813 -0.75735,-0.96284 -1.91242,-1.39939 -7.08203,-2.67383 -2.37116,-0.58459 -5.02512,-1.37941 -5.89844,-1.76562 -2.05933,-0.91075 -4.68628,-3.54999 -5.71484,-5.74219 -0.9885,-2.10699 -1.95313,-6.45942 -1.95313,-8.81641 0,-1.71706 -0.60716,-5.67713 -1.15625,-7.5332 -0.14181,-0.47972 -0.40907,-1.63488 -0.59375,-2.56836 -0.27401,-1.3847 -0.59637,-1.98588 -1.75,-3.25976 -2.28105,-2.51879 -2.46602,-3.01877 -2.41211,-6.52735 0.0242,-1.67902 0.25383,-4.52956 0.50781,-6.33398 0.2541,-1.80446 0.46289,-4.83791 0.46289,-6.74024 0,-3.71946 -0.83271,-11.03425 -1.73828,-15.27343 -0.69979,-3.27583 -1.16005,-3.74708 -3.49609,-3.57813 -2.51679,0.18198 -3.99445,1.09283 -7.32227,4.51367 -1.64911,1.6952 -4.24343,4.33761 -5.76562,5.8711 -2.8184,2.83941 -3.39529,3.55311 -7.41992,9.18359 -4.44893,6.22396 -12.79886,13.6773 -16.49219,14.7207 -1.72235,0.48656 -3.98545,0.42236 -5.07813,-0.14258 -1.46213,-0.75608 -2.85272,-2.37975 -4.11328,-4.80273 -1.44204,-2.77176 -2.01025,-3.33105 -3.10351,-3.05664 -0.48975,0.12295 -2.27043,1.65351 -4.49414,3.86523 -3.81379,3.79326 -5.76537,6.5146 -7.76563,10.83008 -0.49297,1.06366 -2.03117,3.98669 -3.41797,6.49414 -3.39879,6.14543 -5.99275,11.23689 -6.89062,13.52344 -5.71031,14.54239 -10.50454,23.67125 -14.95703,28.48047 -2.06757,2.23322 -5.74388,5.01765 -7.52344,5.69727 -1.32254,0.50509 -1.39943,0.50253 -2.38672,-0.0293 -3.60301,-1.94034 -8.59804,-11.29611 -15.5957,-29.20703 -2.2961,-5.87692 -7.40175,-17.13379 -9.57227,-21.10547 -2.09195,-3.8279 -3.64348,-6.28872 -9.60547,-15.23633 -8.32927,-12.50039 -11.92487,-17.34553 -19.44336,-26.19727 -1.16897,-1.37621 -3.06476,-3.61186 -4.21093,-4.96875 -2.54211,-3.00959 -3.69872,-4.01367 -4.63086,-4.01367 -0.49586,0 -1.54796,0.78535 -3.4668,2.5918 -7.77537,7.31986 -14.626678,12.50482 -21.072265,15.94531 -5.437553,2.90239 -7.915332,3.03852 -13.517578,0.7461 -4.92556,-2.01551 -12.228704,-5.88722 -19.191406,-10.17579 -2.049196,-1.26217 -11.652348,-6.66222 -16.425782,-9.23632 -0.399745,-0.21566 -2.661681,-1.45219 -5.02539,-2.74805 -2.363676,-1.29586 -5.038958,-2.60741 -5.947266,-2.91406 -0.760778,-0.25683 -1.386345,-0.38739 -1.910156,-0.35547 z m 87.572263,20.01367 c 0.66527,-0.0618 1.34986,0.13698 1.89844,0.65234 0.82521,0.77528 1.06856,1.8136 1.76953,7.57618 0.26268,2.15873 0.66604,5.36408 0.89649,7.12304 0.76446,5.83438 0.98444,10.08865 0.98437,19.04492 -7e-5,11.07329 -0.96199,29.98401 -2.0332,39.97657 -0.70386,6.56594 -0.85902,7.0911 -2.31446,7.84375 -0.9551,0.49388 -1.32455,0.51875 -2.24414,0.14843 h -0.002 c -0.35044,-0.14177 -0.8626,-0.60209 -1.13867,-1.02343 -0.47491,-0.72477 -0.47436,-1.0188 -0.0156,-5.32227 1.08093,-10.10403 2.22838,-32.38051 2.22852,-43.26758 10e-5,-8.08885 -0.31066,-12.61667 -1.30273,-18.99804 -0.77102,-4.95897 -1.33007,-10.60565 -1.14258,-11.54297 0.25632,-1.28159 1.30723,-2.10786 2.41601,-2.21094 z m 155.15625,19.40039 c 0.63174,0.0492 1.24525,0.32551 1.80078,0.83398 1.04155,0.95333 0.87479,2.33215 -0.5039,4.15821 -1.31568,1.74258 -5.27366,9.0109 -8.77149,16.10937 -3.4318,6.96446 -4.8311,10.45718 -7.57226,18.89649 -2.39671,7.37886 -4.17111,11.5707 -9.04688,21.36914 -4.37231,8.7867 -5.88831,12.01822 -7.23047,15.41015 -0.31627,0.79956 -0.75562,1.84646 -0.97461,2.32618 -0.21909,0.47971 -1.25873,3.09605 -2.3125,5.81445 -1.05373,2.7184 -2.59091,6.57732 -3.41601,8.57617 -1.30204,3.15419 -10.28852,21.34015 -15.73047,31.83594 -0.99491,1.9189 -3.1928,6.17112 -4.88477,9.44922 -4.53937,8.79462 -8.6604,15.44188 -16.69531,26.92383 -7.48246,10.69243 -7.87472,11.2176 -8.92578,11.96289 -1.39342,0.98804 -2.87609,0.88316 -3.84766,-0.27149 -0.59475,-0.70681 -0.73759,-1.12251 -0.60937,-1.76367 0.0924,-0.46159 1.37843,-2.54975 2.85937,-4.64062 12.23214,-17.26988 17.14004,-24.83383 21.08985,-32.50196 1.73417,-3.36669 3.15881,-6.10992 7.92187,-15.26367 2.99868,-5.76287 10.62376,-21.10872 12.23633,-24.625 1.52731,-3.33033 2.95132,-6.72561 4.21875,-10.06445 3.33122,-8.77565 6.39964,-15.91114 9.29492,-21.61719 0.86573,-1.70615 1.57223,-3.34206 1.57227,-3.63477 7e-5,-0.29257 -0.64359,-1.12026 -1.43164,-1.83984 -1.28213,-1.17076 -1.63627,-1.79826 -3.37305,-5.96094 -1.06747,-2.55848 -3.22148,-7.59546 -4.78515,-11.19336 -4.12899,-9.50053 -4.8048,-11.92228 -4.07032,-14.5664 0.38969,-1.40283 1.244,-2.1211 2.51953,-2.1211 1.54015,0 2.57248,1.2714 2.83789,3.49414 0.2826,2.36584 0.751,3.8502 2.3086,7.3086 0.73867,1.64004 1.34375,3.04205 1.34375,3.11718 0,0.0752 0.82813,2.00465 1.84179,4.28711 1.01363,2.2825 2.41363,5.51611 3.10938,7.18555 1.2016,2.88306 1.96834,4.08789 2.60156,4.08789 0.77586,0 3.08453,-5.50443 6.16016,-14.68164 2.60422,-7.77062 4.13975,-11.66538 6.83398,-17.3418 3.48936,-7.35159 9.19148,-17.91762 10.49414,-19.44531 0.97955,-1.14875 2.08383,-1.69526 3.13672,-1.61328 z m -114.73047,45.52344 c 2.27969,0 3.2545,1.71208 3.80664,6.68554 0.75859,6.83311 1.00057,11.4668 0.99219,19.04493 -0.0102,9.16549 -0.48575,14.07762 -2.33203,24.13086 -2.12787,11.5865 -2.89992,15.45038 -3.50195,17.52148 -0.87105,2.99626 -2.88781,4.10134 -4.67383,2.5625 -0.73057,-0.62944 -0.81243,-0.87978 -0.78125,-2.39844 0.0208,-0.93267 0.37419,-3.06903 0.78906,-4.74804 0.90179,-3.64974 1.6917,-7.76394 2.51172,-13.08399 0.33275,-2.15874 0.73035,-4.64394 0.88281,-5.52344 0.15247,-0.87949 0.41989,-2.84222 0.59571,-4.36132 0.17582,-1.51911 0.44501,-3.74211 0.59765,-4.94141 0.47629,-3.74247 0.62558,-12.16622 0.29492,-16.71875 -0.63376,-8.72849 -0.93684,-11.66503 -1.38281,-13.46094 -0.50503,-2.0337 -0.41055,-2.79287 0.48828,-3.93554 0.46815,-0.59521 0.86509,-0.77344 1.71289,-0.77344 z m 129.69727,7.18359 c 0.74621,-0.006 1.39313,0.40361 1.94922,1.22852 1.26269,1.87372 0.66358,3.47078 -1.97656,5.26367 -3.80432,2.58348 -23.51604,11.14422 -29.4375,12.78516 -2.37007,0.65677 -5.53857,0.73869 -6.56446,0.16992 v 0.002 c -0.38216,-0.21188 -0.86824,-0.69791 -1.08008,-1.08008 -1.03649,-1.87005 0.20157,-3.53899 2.875,-3.87304 0.91597,-0.11434 2.4824,-0.44097 3.48047,-0.72657 1.81552,-0.51952 10.45013,-3.91305 13.73633,-5.39843 0.95944,-0.43364 2.96988,-1.30405 4.46875,-1.93555 4.16154,-1.75329 8.90265,-4.20495 10.00391,-5.17188 0.95278,-0.83653 1.79871,-1.25798 2.54492,-1.26367 z M 40.724609,283.43164 c 0.559352,0 3.723721,0.86566 7.033203,1.92383 3.309483,1.0582 6.475462,2.04901 7.035157,2.20117 1.436205,0.39047 13.31564,4.19209 16.28125,5.21094 8.310826,2.85517 18.000482,5.21158 28.05664,6.82226 3.939851,0.63102 4.159931,0.69667 5.093751,1.48243 1.14727,0.96537 1.2172,2.67715 0.15234,3.74218 -0.83152,0.83153 -2.13219,0.89617 -5.681638,0.28516 -1.1993,-0.20636 -3.61991,-0.59341 -5.378906,-0.86133 -5.403836,-0.82297 -18.255406,-4.17442 -25.15039,-6.55859 -0.879496,-0.30425 -3.953714,-1.29513 -6.832032,-2.20117 -2.878318,-0.90601 -7.390839,-2.34237 -10.029296,-3.19336 -2.638458,-0.851 -5.779215,-1.83867 -6.978516,-2.19336 -2.928556,-0.86618 -5.185134,-1.95534 -5.710938,-2.75782 -1.160392,-1.77101 -0.0093,-3.90234 2.109375,-3.90234 z m 162.140621,2.63867 c 1.27129,0.0355 2.41695,1.18903 2.68946,3.05664 0.38065,2.6092 1.29158,5.0102 4.54492,11.97266 1.77314,3.79466 3.79493,8.14105 4.49219,9.66016 1.67208,3.64301 1.6929,5.14161 0.0859,5.97265 -1.16667,0.60329 -2.15616,0.52803 -3.00585,-0.22851 v -0.002 c -0.93424,-0.83198 -9.54304,-18.85335 -10.75196,-22.50781 -0.28433,-0.85955 -0.52182,-2.57852 -0.55469,-4.01953 -0.0553,-2.42989 -0.0281,-2.54298 0.75782,-3.22266 0.55928,-0.48291 1.16433,-0.69777 1.74218,-0.68164 z M 79.34375,333.23633 c 0.770281,0.0214 1.803052,0.41542 3.839844,1.32617 4.802657,2.14741 11.412658,3.72308 21.470706,5.11523 7.21378,0.99844 10.99672,1.28827 19.75976,1.51368 7.35143,0.18935 7.56481,0.21145 8.21289,0.85937 0.72271,0.72268 0.87839,2.07613 0.35157,3.06055 -0.17273,0.32277 -0.86065,0.83597 -1.52735,1.13867 -1.05693,0.47989 -1.88231,0.54489 -6.44531,0.51367 -2.87832,-0.0189 -6.93292,-0.13737 -9.01172,-0.26172 -9.89895,-0.59127 -23.884645,-2.93631 -30.529296,-5.11914 -5.718248,-1.87857 -8.01118,-3.1771 -8.564453,-4.85351 -0.426562,-1.29249 -0.0055,-2.34602 1.179687,-2.95899 0.433485,-0.22418 0.801504,-0.34681 1.263672,-0.33398 z m 203.91406,27.40429 c 0.57358,0.073 1.08553,0.38099 1.51563,0.92774 1.78344,2.2673 -0.69061,5.69456 -5.67578,7.86133 -8.67122,3.76883 -40.08746,14.54053 -48.24805,16.54297 -1.60673,0.39428 -5.83499,1.555 -9.39453,2.57812 -10.17903,2.92577 -18.28359,4.40647 -19.98438,3.65234 -0.87774,-0.38921 -1.57122,-1.27992 -1.76953,-2.27148 -0.14286,-0.71467 -0.0173,-1.06813 0.65039,-1.80469 0.87407,-0.96642 0.6638,-0.91073 6.64258,-1.76562 2.27724,-0.32542 8.43741,-1.89057 18.31641,-4.65235 16.41699,-4.58963 25.94442,-7.73615 44.6289,-14.74218 6.95,-2.60595 8.67599,-3.422 10.03125,-4.74219 1.20501,-1.17378 2.33116,-1.7057 3.28711,-1.58399 z M 71.287109,375.30469 c 1.506089,0 6.891288,1.59471 9.814453,2.90625 8.476411,3.80311 21.149348,13.51703 25.072268,19.21875 1.95081,2.8354 2.26926,4.63211 1.07226,6.05469 -0.85662,1.01805 -2.17357,1.19789 -3.24804,0.44531 -0.35199,-0.24643 -1.22927,-1.35775 -1.94922,-2.47071 -1.6464,-2.54505 -3.091593,-4.11556 -6.402346,-6.95312 -7.88677,-6.75938 -16.056295,-11.57178 -22.265625,-13.11719 -2.880449,-0.7169 -3.789038,-1.15298 -4.628906,-2.2207 -1.329207,-1.68984 0.09637,-3.86328 2.535156,-3.86328 z m -48.392578,3.64062 c 1.365199,0.0238 3.590485,0.46282 5.859375,1.18946 10.287909,3.29465 28.191132,15.90735 31.279297,22.03711 1.124818,2.23268 1.127592,3.44146 0.01563,4.55468 -0.969638,0.96964 -1.85083,1.06982 -3.001953,0.33985 h -0.002 c -0.440024,-0.27893 -1.48692,-1.50012 -2.326172,-2.71289 -1.780494,-2.57303 -3.895843,-4.56232 -8.427734,-7.92969 -8.841061,-6.56924 -16.532492,-10.60657 -22.751954,-11.93945 -1.651307,-0.35377 -2.500497,-0.8317 -2.921874,-1.64649 -0.809137,-1.56469 -0.274964,-3.20099 1.230468,-3.77344 0.233756,-0.0889 0.591809,-0.12707 1.046875,-0.11914 z m 128.726559,21.1211 c 2.27795,0.0315 3.02753,0.35636 3.63282,1.21875 0.87057,1.24286 0.204,3.35503 -1.23243,3.90234 -0.4473,0.17046 -2.77523,0.37828 -5.17382,0.46094 -2.39861,0.0828 -5.60391,0.36021 -7.12305,0.61718 -1.5191,0.25701 -3.74406,0.57517 -4.94336,0.70704 -2.10847,0.23168 -5.38038,0.7359 -14.24609,2.19922 -12.7476,2.1041 -24.689237,3.67592 -36.632816,4.81835 -3.437979,0.32882 -6.512227,0.65909 -6.832032,0.73438 -0.31971,0.0752 -1.760061,0.25298 -3.199218,0.39648 -3.436196,0.34205 -13.218283,1.71784 -13.513672,1.90039 -0.127068,0.0782 -2.044811,0.40218 -4.261719,0.71875 -2.216908,0.31673 -5.207327,0.77128 -6.646484,1.00977 -1.439161,0.23849 -5.233522,0.77978 -8.431641,1.20312 -3.198157,0.42335 -7.188168,1.02645 -8.867187,1.33985 -1.67902,0.31332 -4.42645,0.81533 -6.105469,1.11523 -4.120542,0.7361 -16.674902,3.53131 -21.5078126,4.78907 -4.6437695,1.20846 -7.862184,1.52562 -9.2167969,0.9082 -0.9890079,-0.45079 -1.8478327,-1.53368 -1.9082031,-2.4043 -0.1383685,-1.99657 1.2301251,-3.10755 3.4589844,-2.80859 0.82586074,0.11074 2.6032085,-0.19223 5.9453124,-1.01367 17.1372588,-4.21278 26.1505098,-5.99061 38.6367188,-7.6211 2.478542,-0.3239 4.703499,-0.64616 4.943359,-0.71679 0.240038,-0.0707 1.613574,-0.27011 3.052735,-0.44336 1.439157,-0.17311 4.513374,-0.63646 6.832031,-1.0293 7.952084,-1.3474 9.454628,-1.58035 12.066406,-1.88086 1.439157,-0.16554 3.990905,-0.48967 5.669922,-0.71875 2.646909,-0.36132 6.317219,-0.76571 13.228516,-1.45898 4.520114,-0.45347 9.687334,-1.05894 13.664066,-1.60157 2.3986,-0.3273 6.25751,-0.85306 8.57617,-1.16797 4.04922,-0.54995 5.92341,-0.84419 15.55469,-2.43945 11.02689,-1.82642 16.12888,-2.45328 21.74218,-2.67578 1.14978,-0.0455 2.07858,-0.0691 2.83789,-0.0586 z M 40.65625,431.27344 c 0.851923,-0.0207 1.583752,0.37765 2.097656,1.16211 0.575048,0.87768 0.452277,3.70544 -0.322265,7.41406 -0.567629,2.71816 -3.452224,8.77647 -6.06836,12.74414 -3.881678,5.88692 -7.281342,8.00545 -10.548828,6.57422 -1.190371,-0.52146 -1.839844,-1.46725 -1.839844,-2.67969 0,-1.36233 1.023659,-2.29449 2.798829,-2.55078 1.18388,-0.17121 1.64207,-0.43685 2.785156,-1.60938 1.519375,-1.55848 2.12209,-2.45084 4.269531,-6.31835 2.147304,-3.86718 2.897468,-5.90913 3.539063,-9.63672 0.646539,-3.75648 0.996016,-4.47402 2.40039,-4.9375 0.306805,-0.10125 0.604698,-0.15522 0.888672,-0.16211 z"
         transform="scale(0.26458333)"
         id="path870" />
      <path
         id="path836"
         style="fill:#000000;stroke-width:0.07692475"
         d="m 125.19195,74.703988 c -0.33882,-0.04806 -0.85753,-0.353357 -1.06646,-0.627706 -0.16784,-0.220425 -0.20137,-0.342045 -0.19455,-0.705687 0.005,-0.241641 0.0482,-0.486453 0.097,-0.544028 0.0488,-0.0576 0.15703,-0.195931 0.24048,-0.307475 0.0834,-0.111544 0.33192,-0.297026 0.55214,-0.412177 0.98257,-0.513773 1.98544,0.09546 1.98644,1.206749 7.6e-4,0.890753 -0.72595,1.516387 -1.61503,1.390324 z m 0.80771,30.617522 c -0.8372,-0.20193 -1.64644,-0.62767 -2.10905,-1.10957 -0.31621,-0.3294 -1.0147,-1.3415 -1.13405,-1.64323 -0.25732,-0.65051 -0.5576,-1.58995 -0.63927,-2.00004 -0.0506,-0.25385 -0.12369,-0.606692 -0.16251,-0.784082 -0.0388,-0.1774 -0.0708,-0.50625 -0.071,-0.73079 0,-0.22454 -0.0521,-0.7514 -0.11539,-1.17081 -0.1322,-0.87712 -0.15547,-3.25805 -0.0381,-3.8965 0.0422,-0.2299 0.1124,-0.93723 0.15583,-1.57186 0.0434,-0.63463 0.11028,-1.37887 0.14854,-1.65388 0.0382,-0.27501 0.10426,-0.77694 0.14665,-1.11541 0.0424,-0.33847 0.11193,-0.77117 0.15449,-0.96156 0.0949,-0.42446 0.38886,-1.97565 0.47376,-2.50005 0.0343,-0.21154 0.098,-0.52309 0.14157,-0.69233 0.0436,-0.16923 0.15418,-0.65386 0.24573,-1.07694 0.0915,-0.42309 0.21076,-0.94233 0.26491,-1.153871 0.26311,-1.028015 0.45072,-1.798011 0.50604,-2.076966 0.1207,-0.608708 0.30226,-1.146076 0.46984,-1.390651 0.34495,-0.503424 1.10971,-0.538631 1.5758,-0.0725 0.2246,0.224596 0.25548,0.304376 0.25548,0.660114 0,0.371883 -0.27612,1.73823 -0.48097,2.380037 -0.0472,0.148077 -0.11199,0.425003 -0.14382,0.615387 -0.0318,0.19039 -0.0953,0.50194 -0.14112,0.69232 -0.0856,0.35588 -0.22242,1.0127 -0.42874,2.05774 -0.0647,0.32789 -0.15189,0.76925 -0.19366,0.98079 -0.0418,0.21154 -0.10553,0.61441 -0.14169,0.89528 -0.0362,0.28085 -0.0896,0.54929 -0.11881,0.59653 -0.0292,0.0473 -0.0869,0.37131 -0.1284,0.72015 -0.0414,0.34884 -0.10552,0.84196 -0.14244,1.09581 -0.0369,0.25385 -0.10614,0.84232 -0.15384,1.30771 -0.0477,0.4654 -0.12037,1.01518 -0.16148,1.22175 -0.11741,0.58981 -0.1757,4.42925 -0.0819,5.39379 0.21931,2.255092 0.6411,3.526652 1.42893,4.307792 0.65429,0.64873 1.32446,0.73393 2.32719,0.29588 1.01011,-0.44127 2.65556,-2.28511 3.52483,-3.949812 0.12151,-0.2327 0.26334,-0.47501 0.31518,-0.53847 0.14207,-0.17395 1.19317,-2.27061 1.44615,-2.88469 0.12201,-0.29615 0.25104,-0.57136 0.28674,-0.61155 0.0357,-0.0402 0.0649,-0.11825 0.0649,-0.17346 0,-0.0552 0.0866,-0.27976 0.19232,-0.49902 0.10576,-0.21926 0.1923,-0.44292 0.1923,-0.49702 0,-0.0542 0.0497,-0.21206 0.11046,-0.351 0.0608,-0.13893 0.20273,-0.51223 0.31551,-0.82955 0.11279,-0.31731 0.23616,-0.63704 0.27417,-0.71051 0.038,-0.0735 0.0692,-0.17731 0.0694,-0.23077 0,-0.0534 0.14242,-0.37413 0.31606,-0.71261 0.30502,-0.59448 0.31812,-0.65068 0.3858,-1.65387 0.0784,-1.16218 0.18677,-2.38776 0.30273,-3.42316 0.0426,-0.38078 0.11019,-0.98656 0.15009,-1.34618 0.0399,-0.35962 0.12858,-0.98271 0.19705,-1.384639 0.0685,-0.401926 0.14917,-0.955785 0.17934,-1.230797 0.12305,-1.121799 0.47298,-1.615665 1.14441,-1.615129 0.86871,7.63e-4 1.23188,0.594071 1.02028,1.666954 -0.0403,0.204199 -0.11054,0.630886 -0.15616,0.9482 -0.0456,0.317312 -0.12192,0.784631 -0.16954,1.038481 -0.0476,0.25385 -0.11186,0.75578 -0.14274,1.1154 -0.0309,0.35963 -0.11137,1.17311 -0.17884,1.80774 -0.18352,1.72596 -0.23833,2.91139 -0.14252,3.0826 0.0744,0.13292 0.0863,0.12539 0.1322,-0.0836 0.0278,-0.12634 0.0778,-0.29893 0.11117,-0.38354 0.0333,-0.0846 0.16737,-0.48271 0.29776,-0.88464 0.31659,-0.97599 0.39733,-1.20062 0.59436,-1.65388 0.092,-0.21155 0.21538,-0.50347 0.27429,-0.64871 0.0589,-0.14526 0.3207,-0.68707 0.58175,-1.20404 1.68775,-3.342173 3.84172,-5.610085 6.3332,-6.668167 0.90234,-0.383194 1.31844,-0.458877 2.51422,-0.457251 1.21082,0.0018 1.43883,0.0467 2.33204,0.46054 0.36497,0.169111 0.97803,0.629215 1.31903,0.989931 0.32321,0.3419 0.83486,1.124961 0.83486,1.277717 0,0.05706 0.0303,0.136584 0.0673,0.176779 0.037,0.04016 0.15739,0.436545 0.26752,0.880785 0.41154,1.660146 0.34429,4.839296 -0.18146,8.577106 -0.0416,0.29616 -0.10752,0.8154 -0.14637,1.15387 -0.0389,0.33846 -0.10708,0.77116 -0.15162,0.96155 -0.0445,0.19039 -0.12139,0.65771 -0.17078,1.03849 -0.0494,0.38078 -0.13709,0.92825 -0.19489,1.2166 -0.0578,0.28835 -0.1051,0.68992 -0.1051,0.89238 0,0.20247 -0.0331,0.46848 -0.0736,0.59114 -0.10079,0.30552 -0.31107,2.65721 -0.31095,3.47738 0,0.720732 0.17955,1.917722 0.30652,2.044692 0.0429,0.0429 0.078,0.13408 0.078,0.20262 0,0.25227 0.52503,0.75088 0.93357,0.88657 0.43862,0.14569 0.77869,0.0894 1.29726,-0.21465 0.3974,-0.23304 1.33301,-1.16462 1.8638,-1.8558 0.67672,-0.881202 1.75418,-2.549362 2.02631,-3.137192 0.0656,-0.14163 0.16038,-0.32673 0.21074,-0.41135 0.58051,-0.97562 2.13005,-4.07758 2.13005,-4.26406 0,-0.0326 0.0798,-0.21155 0.17735,-0.39767 0.0976,-0.18611 0.22391,-0.45954 0.28078,-0.60761 0.0569,-0.14809 0.1461,-0.37309 0.19825,-0.50002 0.0522,-0.12693 0.13857,-0.34538 0.19204,-0.48546 0.10679,-0.27975 0.46435,-0.58377 0.77168,-0.65612 0.29996,-0.0706 0.76927,0.0919 1.01014,0.34971 0.18553,0.19862 0.21597,0.29441 0.21597,0.67954 0,0.43125 -0.0742,0.668 -0.54143,1.72775 -0.0746,0.16924 -0.19418,0.44617 -0.26571,0.6154 -0.24626,0.58275 -1.22417,2.68246 -1.34348,2.88468 -0.0374,0.0634 -0.18221,0.34039 -0.32169,0.6154 -0.13949,0.275 -0.45376,0.84074 -0.69838,1.25719 -0.24462,0.41645 -0.44477,0.77665 -0.44477,0.80045 0,0.0238 -0.0865,0.15674 -0.19231,0.29541 -0.10577,0.13867 -0.19231,0.27714 -0.19231,0.3077 0,0.0305 -0.0866,0.16903 -0.19232,0.307692 -0.10577,0.13868 -0.19231,0.27346 -0.19231,0.29951 0,0.0261 -0.30252,0.45241 -0.67228,0.94746 -1.46606,1.96286 -2.48693,2.86527 -3.96504,3.50495 -0.38959,0.1686 -1.71121,0.17581 -2.0271,0.0111 -0.1212,-0.0632 -0.27744,-0.11513 -0.34723,-0.11538 -0.17165,-7.8e-4 -0.85468,-0.46766 -1.14522,-0.78304 -0.26865,-0.29161 -0.73867,-1.19743 -0.8543,-1.64642 -0.0792,-0.3076 -0.15141,-0.74375 -0.30461,-1.84035 -0.10988,-0.786492 0.0181,-3.472182 0.23279,-4.884732 0.0418,-0.27501 0.11338,-0.81156 0.15908,-1.19234 0.0457,-0.38077 0.12093,-0.90002 0.16717,-1.15387 0.0462,-0.25385 0.11018,-0.70386 0.14208,-1.00001 0.0319,-0.29617 0.11616,-0.88464 0.18726,-1.30773 0.25734,-1.53142 0.47585,-3.33378 0.61549,-5.07703 0.25642,-3.200947 -0.25979,-4.896066 -1.71531,-5.632608 -0.37888,-0.191734 -0.50183,-0.213603 -1.19762,-0.213058 -1.17543,9.09e-4 -1.90355,0.297008 -3.23677,1.316177 -1.55095,1.185625 -3.03845,3.195699 -4.17734,5.644899 -0.50352,1.08286 -0.63068,1.37886 -0.63068,1.46809 0,0.0468 -0.0486,0.17701 -0.10801,0.28931 -0.0594,0.1123 -0.20226,0.51572 -0.31744,0.8965 -0.11518,0.38078 -0.22834,0.74425 -0.25144,0.80771 -0.0231,0.0635 -0.084,0.28847 -0.13528,0.50001 -0.10684,0.44071 -0.30215,1.22517 -0.4309,1.73081 -0.0485,0.19038 -0.1155,0.53655 -0.14895,0.76925 -0.0334,0.2327 -0.11484,0.73463 -0.18087,1.11541 -0.28336,1.63393 -0.56964,5.3163 -0.58011,7.461702 -0.0106,2.16948 -0.25014,2.73083 -1.16533,2.73083 -0.42544,0 -0.8523,-0.31163 -0.97785,-0.7139 -0.12161,-0.38966 -0.33168,-1.9276 -0.47512,-3.47849 -0.0431,-0.4654 -0.11146,-1.123112 -0.15204,-1.461572 -0.0406,-0.33847 -0.10041,-1.09735 -0.13296,-1.68639 -0.0627,-1.13449 -0.15069,-1.35212 -0.35441,-0.87669 -0.19384,0.45236 -0.59404,1.32831 -0.66965,1.46568 -0.0404,0.0734 -0.26536,0.5061 -0.49994,0.96157 -0.23458,0.45548 -0.46829,0.89718 -0.51934,0.98156 -0.22955,0.379362 -1.23917,1.927472 -1.27955,1.962022 -0.0247,0.0212 -0.18785,0.23069 -0.3625,0.46563 -0.39385,0.5298 -1.39009,1.53227 -1.90831,1.92022 -0.55134,0.41275 -1.38943,0.81982 -1.9692,0.95647 -0.47216,0.11129 -1.31884,0.14429 -1.65035,0.0643 z" />
      <path
         id="path826"
         style="fill:#000000;stroke-width:0.07692475"
         d="m 176.76999,51.627918 c 0.29617,-0.147241 0.68733,-0.368167 0.86926,-0.490949 0.18194,-0.122792 0.35018,-0.223252 0.37388,-0.223252 0.13836,0 1.60119,-1.153753 2.43832,-1.923122 0.53859,-0.495001 1.79708,-1.892576 2.35516,-2.615444 0.14698,-0.190389 0.28767,-0.36347 0.31265,-0.384621 0.025,-0.02117 0.24969,-0.315389 0.49939,-0.653864 0.85551,-1.15964 1.79596,-2.636169 2.72446,-4.277537 0.25415,-0.449265 1.42855,-2.813437 1.67726,-3.376473 0.0841,-0.190389 0.22665,-0.510211 0.31678,-0.710715 0.0901,-0.200504 0.16387,-0.38414 0.16387,-0.408078 0,-0.03813 0.17163,-0.447226 0.38586,-0.919713 0.0383,-0.08461 0.12717,-0.336107 0.19734,-0.558874 0.0702,-0.222759 0.15806,-0.423847 0.19529,-0.446856 0.0373,-0.023 0.0677,-0.109494 0.0677,-0.192188 0,-0.0827 0.0321,-0.210458 0.0713,-0.283929 0.0392,-0.07347 0.1643,-0.42781 0.27789,-0.787433 0.11359,-0.359623 0.24144,-0.740401 0.28412,-0.846173 0.0427,-0.105771 0.13909,-0.440848 0.21425,-0.744616 0.0751,-0.30376 0.16411,-0.596735 0.19767,-0.651045 0.0335,-0.0543 0.0874,-0.238474 0.11968,-0.409254 0.0323,-0.170781 0.14969,-0.708601 0.26098,-1.195149 0.11129,-0.48655 0.2183,-0.971176 0.2378,-1.076947 0.0737,-0.399724 0.25466,-1.52241 0.33747,-2.093492 0.11257,-0.776255 0.11579,-4.109497 0.005,-4.752811 -0.11942,-0.690954 -0.311,-1.453247 -0.43789,-1.742431 -0.0585,-0.133325 -0.1062,-0.27179 -0.10601,-0.307699 0,-0.03592 -0.12963,-0.324345 -0.28847,-0.64096 -0.21143,-0.421424 -0.45514,-0.740877 -0.90965,-1.192333 -0.98299,-0.976406 -1.83181,-1.308998 -3.34079,-1.308998 -1.0875,0 -1.56545,0.146557 -2.54115,0.779224 -0.45722,0.296476 -0.95138,0.765971 -1.57432,1.495748 -0.25565,0.299485 -0.88463,1.194265 -0.88463,1.258452 0,0.02248 -0.1313,0.257828 -0.29178,0.523003 -0.36472,0.602698 -0.70471,1.317744 -1.14364,2.405252 -0.18784,0.465395 -0.37308,0.915404 -0.41165,1.000022 -0.0385,0.08461 -0.12838,0.344238 -0.19959,0.576936 -0.0712,0.232697 -0.15908,0.455971 -0.19528,0.496165 -0.0362,0.04019 -0.0658,0.148464 -0.0658,0.240613 0,0.09214 -0.0523,0.29276 -0.11627,0.445816 -0.13995,0.334931 -0.4037,1.269774 -0.6864,2.432869 -0.0669,0.275006 -0.15843,0.638475 -0.20353,0.80771 -0.0452,0.169235 -0.11163,0.463472 -0.1478,0.653861 -0.0362,0.190389 -0.12047,0.553858 -0.18733,0.80771 -0.0669,0.253851 -0.15428,0.651937 -0.19425,0.884634 -0.04,0.232697 -0.12247,0.682707 -0.18335,1.000022 -0.0609,0.317315 -0.16717,0.923097 -0.23619,1.346182 -0.069,0.423087 -0.16377,0.976945 -0.21052,1.230797 -0.0468,0.253852 -0.11198,0.703861 -0.14494,1.000022 -0.033,0.29616 -0.11524,0.936558 -0.18287,1.423108 -0.20589,1.48114 -0.39955,3.460087 -0.60221,6.153977 -0.10557,1.403144 -0.13441,8.057402 -0.0364,8.408406 0.0715,0.256241 0.13134,0.246338 0.93976,-0.155573 z m -22.31037,-0.02035 c 0.87957,-0.45706 1.57262,-0.884247 1.93684,-1.193848 0.0498,-0.04234 0.31842,-0.249999 0.597,-0.461548 0.93918,-0.713165 3.28778,-3.197478 3.96338,-4.192396 0.10056,-0.148077 0.22217,-0.30385 0.27026,-0.346162 0.0481,-0.04234 0.16727,-0.207651 0.26484,-0.367431 0.0976,-0.159779 0.21802,-0.33286 0.26765,-0.38462 0.0496,-0.05179 0.20952,-0.284507 0.35533,-0.517207 0.14581,-0.232701 0.28489,-0.440397 0.30906,-0.461549 0.13216,-0.115659 1.45168,-2.320817 1.61105,-2.692363 0.0453,-0.105775 0.16938,-0.33078 0.2756,-0.500017 0.10622,-0.169228 0.21536,-0.359617 0.24254,-0.42308 0.0272,-0.06351 0.28149,-0.600013 0.56516,-1.192337 0.28368,-0.592321 0.58505,-1.232719 0.66973,-1.423108 0.0847,-0.190389 0.22771,-0.510211 0.31783,-0.710716 0.0901,-0.200503 0.16388,-0.385662 0.16388,-0.411462 0,-0.02579 0.0499,-0.155981 0.11088,-0.289306 0.24542,-0.536473 0.50452,-1.238266 0.50452,-1.36653 0,-0.07483 0.0309,-0.155134 0.0686,-0.178458 0.0378,-0.02333 0.17911,-0.397493 0.31414,-0.831479 0.13504,-0.433987 0.27506,-0.858304 0.31117,-0.942921 0.0361,-0.08461 0.0823,-0.223082 0.10276,-0.3077 0.0204,-0.08461 0.11159,-0.41347 0.20263,-0.730785 0.59796,-2.084076 0.72142,-2.65408 0.99966,-4.615485 0.27874,-1.96495 0.30876,-2.280011 0.30876,-3.240517 0,-1.099307 -0.25017,-3.033896 -0.4613,-3.567323 -0.0335,-0.08461 -0.12123,-0.326931 -0.19496,-0.538473 -0.44006,-1.262551 -1.31511,-2.316259 -2.3438,-2.822354 -0.57464,-0.282714 -0.69241,-0.31963 -1.42311,-0.44608 -0.95404,-0.165103 -1.9819,-0.02959 -2.76611,0.364686 -1.4075,0.707646 -2.72987,2.279465 -3.83432,4.55763 -0.67221,1.386584 -1.43821,3.318757 -1.43821,3.627786 0,0.06092 -0.0312,0.143642 -0.0691,0.183835 -0.0681,0.07198 -0.33565,0.933144 -0.47679,1.534649 -0.0397,0.169235 -0.10249,0.376931 -0.1395,0.461548 -0.0762,0.174204 -0.38508,1.418478 -0.43919,1.76927 -0.0196,0.126926 -0.0837,0.403855 -0.14245,0.615398 -0.0588,0.211543 -0.14386,0.566358 -0.18912,0.788478 -0.0453,0.222121 -0.11575,0.568282 -0.15665,0.769248 -0.12079,0.59369 -0.24589,1.261781 -0.31329,1.673114 -0.0347,0.211542 -0.12144,0.696168 -0.19285,1.076946 -0.0714,0.380778 -0.15583,0.934636 -0.18759,1.230796 -0.0318,0.29616 -0.095,0.728862 -0.14062,0.96156 -0.0456,0.232697 -0.12083,0.786555 -0.16725,1.230796 -0.0464,0.44424 -0.11582,1.032715 -0.15422,1.30772 -0.32139,2.301792 -0.65805,8.534115 -0.58383,10.807932 0.0262,0.803857 0.0691,1.712008 0.0952,2.018102 0.0471,0.551923 0.0491,0.556121 0.24633,0.506623 0.10936,-0.02744 0.44214,-0.176334 0.73951,-0.330862 z m -31.04581,13.989491 c 0.27989,-0.04743 0.61797,-0.133958 0.75128,-0.192306 0.13333,-0.05833 0.29357,-0.106093 0.3561,-0.106093 0.2853,0 1.86671,-0.868928 2.41604,-1.327524 0.99952,-0.834431 2.02171,-1.983432 2.65651,-2.986064 0.78378,-1.237968 2.44451,-4.436018 2.44451,-4.707378 0,-0.05624 0.0291,-0.135193 0.0646,-0.175388 0.0355,-0.04016 0.10996,-0.194232 0.1654,-0.342309 0.0554,-0.148086 0.14182,-0.373091 0.19198,-0.500017 0.4601,-1.164365 0.67197,-2.126994 0.67721,-3.076984 0.003,-0.465401 -0.0336,-0.967335 -0.0805,-1.115412 -0.0468,-0.148077 -0.12856,-0.425006 -0.18159,-0.615395 -0.34164,-1.226311 -1.44638,-2.957518 -2.50351,-3.923163 -0.6886,-0.629032 -1.35137,-1.153871 -1.45707,-1.153871 -0.0313,0 -0.11143,-0.04797 -0.17822,-0.106565 -0.36945,-0.324174 -2.107,-1.047306 -2.51647,-1.047306 -0.13084,0 -0.42433,-0.03634 -0.65224,-0.08077 -0.51962,-0.101305 -1.4279,0.0199 -2.1633,0.288649 -1.26391,0.461921 -2.8827,1.93139 -3.71631,3.37352 -0.12087,0.209133 -0.23876,0.397541 -0.26195,0.418692 -0.0232,0.02117 -0.0799,0.107701 -0.12599,0.192315 -0.0462,0.08459 -0.17259,0.313535 -0.28107,0.508712 -0.17111,0.307893 -0.33193,0.661341 -0.78355,1.722103 -0.17372,0.408052 -0.4065,1.064469 -0.54556,1.538501 -0.0745,0.253852 -0.16259,0.548089 -0.19582,0.653854 -0.0333,0.105775 -0.0966,0.365396 -0.14069,0.576936 -0.0442,0.211549 -0.11917,0.540402 -0.16673,0.730791 -0.0916,0.366813 -0.17118,0.909496 -0.2988,2.0385 -0.18133,1.604308 -0.0356,4.205198 0.28877,5.153962 0.0434,0.126926 0.12084,0.369239 0.1721,0.538476 0.15965,0.527056 0.53888,1.28782 0.88558,1.776517 0.58799,0.828825 1.29158,1.369209 2.30349,1.769184 0.61346,0.242486 1.98686,0.326464 2.8758,0.175843 z m 36.50967,6.088965 c -1.5117,-0.266753 -2.46784,-0.755667 -3.60533,-1.843532 -0.47553,-0.45478 -1.51016,-1.690276 -1.51016,-1.803337 0,-0.0248 -0.11964,-0.232165 -0.26587,-0.46074 -0.31733,-0.496083 -0.73264,-1.333526 -1.05431,-2.125899 -0.1288,-0.317315 -0.27778,-0.680784 -0.33107,-0.80771 -0.0532,-0.126926 -0.17498,-0.473087 -0.27045,-0.76925 -0.0955,-0.296164 -0.20891,-0.625017 -0.2521,-0.730783 -0.0431,-0.105774 -0.10599,-0.313471 -0.13957,-0.461548 -0.0336,-0.148086 -0.10021,-0.407707 -0.14804,-0.576936 -0.123,-0.435236 -0.30353,-1.170398 -0.38725,-1.57696 -0.11683,-0.567451 -0.24517,-1.000152 -0.29603,-0.998035 -0.0263,9.08e-4 -0.10355,0.130896 -0.17182,0.288467 -0.0682,0.157563 -0.21538,0.486471 -0.32693,0.730901 -0.11154,0.24443 -0.20281,0.469135 -0.20281,0.499335 0,0.09004 -0.88096,1.892449 -1.24943,2.556325 -0.65032,1.171697 -1.45682,2.452231 -1.86528,2.961629 -0.16964,0.211558 -0.40989,0.523103 -0.53389,0.692323 -0.36612,0.499626 -1.57875,1.709928 -2.15921,2.15504 -0.52944,0.406 -1.64045,1.036849 -1.82766,1.037776 -0.0525,0 -0.19931,0.05842 -0.32624,0.129161 -0.18708,0.104321 -0.44922,0.128697 -1.38465,0.128697 -0.93541,0 -1.19756,-0.02435 -1.38464,-0.128697 -0.12693,-0.07078 -0.27281,-0.128907 -0.3242,-0.129161 -0.13646,-7.63e-4 -0.75729,-0.354547 -1.32078,-0.752824 -0.65604,-0.463683 -1.3497,-1.160867 -1.91922,-1.928982 -0.48804,-0.658224 -1.28839,-2.205834 -1.51741,-2.934172 -0.0731,-0.232691 -0.16265,-0.45597 -0.19885,-0.496165 -0.0362,-0.04016 -0.0663,-0.144043 -0.067,-0.230774 -7.7e-4,-0.08677 -0.0493,-0.296154 -0.10829,-0.465392 -0.17938,-0.514963 -0.49338,-2.019847 -0.62599,-3.000065 -0.17002,-1.256748 -0.28366,-1.510745 -0.47328,-1.057719 -0.32876,0.785523 -1.41357,2.508471 -2.24004,3.55774 -0.1833,0.232719 -0.44041,0.561581 -0.57138,0.730819 -0.47818,0.617911 -1.9915,2.039644 -2.72613,2.561149 -1.01344,0.71942 -1.66829,1.081363 -2.67705,1.479622 -1.09914,0.433955 -2.59909,0.630086 -4.00009,0.523067 -0.5077,-0.0388 -0.98443,-0.104376 -1.0594,-0.145751 -0.075,-0.04143 -0.29226,-0.09663 -0.48287,-0.122756 -0.19063,-0.02608 -0.36499,-0.07732 -0.38749,-0.113688 -0.0225,-0.03643 -0.0929,-0.06614 -0.1565,-0.06614 -0.17882,0 -0.93363,-0.371874 -1.52777,-0.75267 -0.65656,-0.420817 -1.48096,-1.202783 -1.93219,-1.83277 -0.33131,-0.462557 -0.95392,-1.626613 -0.95392,-1.783494 0,-0.04416 -0.0491,-0.178232 -0.10918,-0.298017 -0.34137,-0.680857 -0.56514,-1.777562 -0.71559,-3.506869 -0.10783,-1.239449 -0.10749,-1.5102 0.004,-2.923138 0.11372,-1.445474 0.22606,-2.291062 0.43175,-3.249511 0.0454,-0.21154 0.11523,-0.566859 0.15518,-0.789593 0.04,-0.222724 0.0983,-0.446466 0.12964,-0.497191 0.0313,-0.0507 0.081,-0.231965 0.11052,-0.402747 0.0541,-0.313517 0.34262,-1.334093 0.45757,-1.618227 0.0343,-0.08459 0.15411,-0.430785 0.26638,-0.769251 0.11227,-0.338466 0.25076,-0.719243 0.30778,-0.846169 0.23517,-0.523603 0.54177,-1.156379 0.57772,-1.19234 0.0212,-0.02117 0.10718,-0.176924 0.19115,-0.346161 0.36168,-0.728865 1.28337,-2.104825 1.78633,-2.666724 1.32308,-1.478118 2.71693,-2.422884 4.21497,-2.856922 0.21154,-0.06133 0.52308,-0.152393 0.69232,-0.202436 0.20424,-0.06042 0.78613,-0.08223 1.73081,-0.06487 1.41939,0.02608 1.95802,0.111853 2.88468,0.459331 0.73029,0.27385 2.21119,0.995164 2.3462,1.142778 0.0212,0.02317 0.34638,0.262783 0.72272,0.532544 0.76624,0.54927 1.9092,1.656468 2.42712,2.351208 0.18816,0.252389 0.36668,0.48856 0.39673,0.524839 0.11742,0.141744 0.23178,-0.298708 0.30186,-1.162521 0.0403,-0.49691 0.10639,-1.111169 0.14684,-1.365021 0.0404,-0.253852 0.11448,-0.859634 0.16449,-1.346186 0.15199,-1.4789 0.48427,-1.924585 1.44502,-1.938204 0.49427,-0.0073 0.78299,0.113933 1.12122,0.469689 0.27819,0.292602 0.32904,0.769287 0.19768,1.853136 -0.0487,0.401938 -0.11897,1.09426 -0.15612,1.538501 -0.0372,0.44424 -0.0889,0.92406 -0.11489,1.066277 -0.0735,0.401602 -0.18461,1.762915 -0.26451,3.241506 -0.04,0.740404 -0.11326,1.900045 -0.16278,2.576976 -0.0992,1.355672 -0.0591,4.253188 0.0803,5.807825 0.0474,0.528855 0.12192,1.359642 0.16555,1.846195 0.0436,0.486543 0.11533,1.051685 0.15932,1.255866 0.044,0.204181 0.10727,0.56765 0.14063,0.80771 0.0875,0.629959 0.38239,1.958119 0.45519,2.050238 0.0342,0.04325 0.08,0.18243 0.10196,0.309356 0.09,0.520941 0.93749,2.500057 1.07054,2.500057 0.0345,0 0.0628,0.0397 0.0628,0.08822 0,0.103403 0.47134,0.699405 0.80569,1.018773 0.92851,0.886918 2.1123,1.04737 3.30978,0.44861 1.32834,-0.664175 2.75037,-2.271268 4.03111,-4.555679 0.24809,-0.442523 0.95337,-1.867236 1.21855,-2.461598 0.16883,-0.378379 0.50545,-1.199881 0.70135,-1.711573 0.0364,-0.0952 0.12299,-0.304068 0.19231,-0.464156 0.0693,-0.160098 0.12604,-0.352213 0.12604,-0.426933 0,-0.07477 0.0306,-0.168746 0.0682,-0.208932 0.0782,-0.08395 0.85501,-2.470166 0.85501,-2.626511 0,-0.05697 0.0865,-0.240623 0.1923,-0.408171 0.10753,-0.170327 0.19232,-0.419754 0.19232,-0.565742 0,-0.143598 0.0512,-0.406453 0.11397,-0.584113 0.0925,-0.262238 0.1,-0.463111 0.0396,-1.067386 -0.079,-0.791201 -0.20013,-2.837633 -0.28117,-4.751814 -0.0936,-2.209718 0.3007,-7.984181 0.74533,-10.915953 0.0449,-0.296161 0.10961,-0.784525 0.14377,-1.085262 0.0342,-0.30073 0.0901,-0.592105 0.12433,-0.647499 0.0343,-0.05539 0.0862,-0.328576 0.11558,-0.607083 0.05,-0.474141 0.30868,-1.862917 0.45979,-2.467953 0.037,-0.14808 0.1587,-0.68463 0.27048,-1.192334 0.11178,-0.507703 0.2557,-1.113486 0.31981,-1.346183 0.18981,-0.688892 0.23369,-0.857596 0.37017,-1.423108 0.0715,-0.296161 0.16162,-0.598582 0.20033,-0.672046 0.0387,-0.07347 0.0703,-0.175273 0.0703,-0.226227 0,-0.127265 0.37335,-1.351699 0.50679,-1.662083 0.0598,-0.138942 0.10861,-0.321145 0.10861,-0.404901 0,-0.08376 0.0339,-0.212389 0.0753,-0.28586 0.0414,-0.07347 0.19472,-0.497041 0.34071,-0.941282 0.39161,-1.191742 0.58765,-1.721868 0.66709,-1.803885 0.0389,-0.0402 0.0708,-0.135857 0.0708,-0.21259 0,-0.07673 0.0334,-0.199612 0.0744,-0.273083 0.0409,-0.07347 0.18314,-0.375885 0.31609,-0.672045 0.69688,-1.552403 1.20318,-2.453322 2.052,-3.65148 1.00334,-1.416238 2.97859,-2.933794 4.15294,-3.190638 0.13702,-0.02997 0.26888,-0.08644 0.29302,-0.125488 0.0242,-0.03906 0.15457,-0.071 0.28985,-0.071 0.13529,0 0.36691,-0.0355 0.5147,-0.07889 0.35785,-0.105041 1.90321,-0.102126 2.57648,0.0048 2.93827,0.466903 5.05398,2.384021 5.98179,5.420295 0.4667,1.527333 0.60085,2.579325 0.6082,4.769335 0.005,1.624735 -0.03,2.148655 -0.24956,3.692388 -0.17773,1.249297 -0.22476,1.51504 -0.37482,2.117954 -0.0868,0.348708 -0.15779,0.718069 -0.15779,0.82081 0,0.102741 -0.0356,0.253267 -0.079,0.334492 -0.0434,0.08123 -0.10934,0.295306 -0.14637,0.475726 -0.0903,0.440093 -0.3788,1.521133 -0.45702,1.712675 -0.0345,0.08461 -0.15833,0.465395 -0.27503,0.846172 -0.21796,0.71107 -0.294,0.929267 -0.57328,1.644913 -0.0889,0.227759 -0.1616,0.447533 -0.1616,0.48838 0,0.04086 -0.0482,0.18335 -0.1071,0.316676 -0.0589,0.133319 -0.26986,0.640483 -0.46878,1.127033 -0.67545,1.652107 -1.94804,4.246191 -2.62275,5.346276 -0.1038,0.169228 -0.22423,0.376925 -0.26762,0.461549 -0.19298,0.376298 -1.23902,2.060051 -1.34881,2.171086 -0.0512,0.05179 -0.17324,0.224841 -0.27123,0.38462 -0.098,0.15978 -0.20681,0.32512 -0.24181,0.367431 -0.035,0.04234 -0.13995,0.185074 -0.23323,0.317251 -0.27857,0.394806 -0.84694,1.136972 -0.95418,1.245963 -0.055,0.05588 -0.10018,0.125145 -0.10039,0.153856 0,0.02871 -0.1127,0.175325 -0.25001,0.325809 -0.13729,0.150476 -0.49782,0.56587 -0.80117,0.923098 -0.88806,1.045798 -2.6015,2.66954 -3.52547,3.340911 -0.16924,0.122974 -0.32501,0.242722 -0.34617,0.266108 -0.0518,0.05724 -1.14306,0.780272 -1.38464,0.917392 -0.54433,0.308965 -1.80231,0.932873 -1.88096,0.932873 -0.0496,0 -0.23516,0.07005 -0.41234,0.155645 -0.30686,0.148259 -0.32215,0.171927 -0.32215,0.498909 0,0.188799 0.0333,0.490877 0.0741,0.67129 0.0408,0.180421 0.11206,0.587656 0.15844,0.904971 0.0463,0.317314 0.13417,0.775456 0.19511,1.018096 0.061,0.242631 0.11082,0.540357 0.11082,0.661613 0,0.121248 0.0344,0.320813 0.0765,0.443478 0.0421,0.122655 0.14919,0.551877 0.23804,0.953806 0.29122,1.317385 0.63637,2.627601 0.73365,2.785009 0.0299,0.04834 0.0814,0.21164 0.11458,0.36297 0.0578,0.263592 0.3208,1.018832 0.52448,1.505966 0.21464,0.513354 1.04322,2.115432 1.09408,2.115432 0.03,0 0.0739,0.0606 0.0976,0.134612 0.0568,0.177378 0.76141,0.920226 1.19807,1.263071 0.73026,0.573375 1.628,0.910814 2.42313,0.910814 1.27964,0 2.79236,-0.856309 3.89369,-2.204122 0.51696,-0.632653 2.06797,-2.937152 2.06797,-3.0726 0,-0.02317 0.0865,-0.155564 0.19231,-0.294237 0.10578,-0.138674 0.19232,-0.280218 0.19232,-0.314535 0,-0.03434 0.0865,-0.17587 0.1923,-0.314543 0.10578,-0.138674 0.19232,-0.269661 0.19232,-0.291094 0,-0.03216 0.73724,-1.258165 1.00043,-1.663646 0.0412,-0.06351 0.14548,-0.236543 0.23172,-0.384621 0.0862,-0.148086 0.22471,-0.373091 0.30767,-0.500017 0.0829,-0.126925 0.1754,-0.282698 0.20542,-0.346161 0.03,-0.06351 0.24853,-0.426932 0.48557,-0.80771 0.23705,-0.380777 0.45496,-0.744247 0.48425,-0.80771 0.0292,-0.06351 0.0874,-0.167311 0.12922,-0.230774 0.21124,-0.320831 0.98172,-1.591943 1.02579,-1.692339 0.0279,-0.06351 0.29352,-0.507785 0.59035,-0.987368 0.29683,-0.479593 0.53969,-0.900756 0.53969,-0.935926 0,-0.03516 0.0343,-0.0755 0.076,-0.08958 0.0419,-0.01408 0.14505,-0.22198 0.22934,-0.461939 0.1407,-0.400539 0.14673,-0.514027 0.0736,-1.384646 -0.21204,-2.525579 -0.21113,-8.649092 0.002,-11.025486 0.0379,-0.423089 0.10637,-1.231508 0.15218,-1.796496 0.0458,-0.564984 0.10324,-1.059511 0.12761,-1.098942 0.0243,-0.03944 0.0746,-0.373355 0.11162,-0.742032 0.037,-0.368678 0.12255,-0.999176 0.1901,-1.401107 0.0676,-0.401933 0.1531,-0.955791 0.19012,-1.230796 0.0371,-0.275006 0.1059,-0.6904 0.15307,-0.923098 0.0472,-0.232696 0.12098,-0.613474 0.16404,-0.846172 0.0431,-0.232697 0.11082,-0.529388 0.15059,-0.659322 0.0398,-0.129926 0.0723,-0.324999 0.0723,-0.433486 0,-0.108487 0.0484,-0.365647 0.10769,-0.571474 0.2061,-0.716185 0.45332,-1.760846 0.48906,-2.066568 0.0198,-0.169235 0.0627,-0.342315 0.0953,-0.384624 0.0326,-0.04231 0.0832,-0.198081 0.11236,-0.346162 0.0826,-0.419823 0.50605,-1.903579 0.78303,-2.743751 0.1,-0.303269 0.18179,-0.606629 0.18179,-0.674131 0,-0.06751 0.0321,-0.182849 0.0713,-0.25632 0.0393,-0.07347 0.16441,-0.427809 0.27815,-0.787433 0.27131,-0.857911 0.64151,-1.859341 0.9285,-2.511678 0.0587,-0.133326 0.10664,-0.269513 0.10664,-0.302645 0,-0.06624 0.13348,-0.359116 0.71566,-1.570388 1.25042,-2.601534 2.90335,-4.491921 4.78446,-5.471819 1.13253,-0.589951 2.1735,-0.799779 3.62586,-0.730877 1.23516,0.0586 1.61735,0.107579 1.92434,0.246628 0.13334,0.06038 0.30642,0.109848 0.38463,0.109933 0.23801,0 1.60382,0.7363 2.12224,1.14371 0.84999,0.667983 1.54165,1.570672 2.07062,2.702382 0.35162,0.752262 0.41931,0.926605 0.52276,1.346182 0.0521,0.211544 0.12451,0.453857 0.16079,0.538474 0.0362,0.08461 0.10528,0.396162 0.15333,0.692323 0.45809,2.823961 0.40233,4.98887 -0.22288,8.654035 -0.0397,0.232696 -0.13203,0.665398 -0.2052,0.961559 -0.0731,0.29616 -0.15919,0.694246 -0.19116,0.884635 -0.032,0.190389 -0.0946,0.45001 -0.13918,0.576936 -0.0446,0.126925 -0.1225,0.386546 -0.17313,0.576935 -0.16008,0.601913 -0.21443,0.784225 -0.5389,1.807731 -0.35361,1.115386 -0.33481,1.062947 -0.99292,2.769291 -0.48224,1.250343 -0.53404,1.373146 -1.03828,2.461599 -0.34432,0.743284 -1.30495,2.654513 -1.50268,2.989699 -0.0782,0.132631 -0.25181,0.44533 -0.38571,0.694912 -0.40837,0.761137 -1.55149,2.551118 -2.28646,3.580326 -0.27565,0.386002 -1.05953,1.430592 -1.13391,1.511054 -0.0424,0.04588 -0.19835,0.235308 -0.34643,0.420863 -0.92496,1.159005 -2.75599,3.004735 -3.84624,3.877098 -1.2861,1.02909 -3.118,2.11919 -4.20085,2.499785 -0.24363,0.08568 -0.46813,0.196377 -0.49887,0.24612 -0.0726,0.117459 -0.009,0.749426 0.17707,1.757446 0.082,0.444241 0.17306,1.015407 0.20244,1.269259 0.0293,0.253851 0.0771,0.49869 0.10597,0.544091 0.0289,0.04543 0.0888,0.287723 0.13305,0.538476 0.0821,0.465065 0.13211,0.689443 0.35017,1.571337 0.068,0.275003 0.15454,0.638472 0.19231,0.80771 0.0378,0.169237 0.13894,0.515399 0.22483,0.76925 0.0859,0.253852 0.15704,0.532507 0.15808,0.619239 9.1e-4,0.08677 0.0321,0.190579 0.069,0.230774 0.0369,0.04016 0.12883,0.280781 0.20437,0.534633 0.0755,0.253852 0.16652,0.494429 0.20219,0.534624 0.0357,0.04016 0.0649,0.119975 0.0649,0.177305 0,0.214448 0.68149,1.611232 1.11636,2.288132 0.26654,0.414857 1.13939,1.354145 1.53755,1.654579 0.22583,0.170391 0.94327,0.505313 1.38464,0.646376 1.62765,0.520215 3.70766,-0.553294 5.2438,-2.706368 0.46453,-0.651084 1.83716,-2.783456 2.23536,-3.472617 0.13381,-0.231565 1.20005,-1.987621 1.53975,-2.535918 0.0949,-0.153184 0.19698,-0.330426 0.22683,-0.393889 0.0298,-0.06351 0.24821,-0.426932 0.48525,-0.807709 0.23704,-0.380778 0.45554,-0.744247 0.48557,-0.80771 0.03,-0.06351 0.1148,-0.208987 0.18836,-0.323384 0.0736,-0.114397 0.30686,-0.494893 0.5184,-0.845543 0.21154,-0.35064 0.41924,-0.693267 0.46155,-0.761382 0.0423,-0.06814 0.19098,-0.310709 0.33039,-0.539103 0.13941,-0.228394 0.28597,-0.467191 0.32571,-0.530654 0.0397,-0.06351 0.27992,-0.454062 0.53373,-0.868002 0.25383,-0.413931 0.55726,-0.837447 0.67432,-0.94115 0.63516,-0.562735 1.63165,-0.337866 2.12544,0.47962 0.11154,0.184683 0.20281,0.434664 0.20281,0.555521 0,0.189353 -0.24714,0.747972 -0.56365,1.274019 -0.80704,1.341326 -1.71843,2.87155 -1.7639,2.961606 -0.0321,0.06351 -0.14534,0.253852 -0.25174,0.42308 -0.1064,0.169238 -0.23571,0.394243 -0.28734,0.500017 -0.0516,0.105766 -0.1212,0.226922 -0.15458,0.269234 -0.0333,0.04234 -0.1913,0.301933 -0.35091,0.576936 -0.28486,0.490767 -1.11258,1.889559 -1.29732,2.192355 -0.0516,0.08459 -0.1194,0.205771 -0.15063,0.269234 -0.0454,0.09243 -0.76413,1.280197 -1.0082,1.66629 -1.56422,2.474468 -2.52285,3.760871 -3.63315,4.875438 -1.45942,1.465035 -2.58283,2.057816 -4.43131,2.33827 -0.79296,0.120302 -0.90842,0.120639 -1.61542,0.0045 -1.26639,-0.207597 -2.06231,-0.520687 -2.99225,-1.177058 -1.95512,-1.379948 -3.66835,-4.351553 -4.6877,-8.130763 -0.11411,-0.42309 -0.24587,-0.890407 -0.29279,-1.038485 -0.0469,-0.148077 -0.11106,-0.407698 -0.14254,-0.576935 -0.11327,-0.608772 -0.51613,-2.503392 -0.57763,-2.716477 -0.0409,-0.141626 -0.14372,-0.05942 -0.29322,0.234418 -0.0703,0.138174 -0.20433,0.375435 -0.29782,0.527228 -0.17103,0.277683 -1.48812,2.495033 -1.63156,2.746732 -0.84396,1.481071 -2.62233,4.320594 -3.33413,5.323612 -1.73673,2.447261 -3.34276,3.896742 -4.94369,4.461857 -0.43209,0.15252 -2.13937,0.4667 -2.45317,0.451446 -0.0634,-0.0027 -0.46155,-0.06669 -0.88464,-0.141354 z M 94.221124,61.968043 c 0.113006,-0.112998 0.223905,-0.383395 0.307638,-0.750017 0.07205,-0.315325 0.163995,-0.698483 0.204417,-0.851475 0.09224,-0.349078 0.09746,-3.198022 0.0064,-3.254571 -0.186564,-0.115297 -1.470968,1.403316 -1.470968,1.739193 0,0.05987 -0.04279,0.151657 -0.09502,0.203917 -0.127725,0.127716 -0.177151,1.650218 -0.06687,2.059751 0.107773,0.400266 0.381677,0.807992 0.625752,0.931501 0.256687,0.129879 0.285525,0.125264 0.489087,-0.07832 z m 2.970219,9.968244 c 1.135609,-0.270833 2.363646,-1.107362 3.034537,-2.067092 0.19259,-0.275494 0.35047,-0.525202 0.35086,-0.554903 7.6e-4,-0.02971 0.0859,-0.227086 0.18991,-0.438635 0.10405,-0.21154 0.19028,-0.455588 0.1916,-0.542319 9.1e-4,-0.08677 0.0343,-0.19058 0.0734,-0.230775 0.0744,-0.0765 0.17133,-0.504378 0.34776,-1.534649 0.3214,-1.876871 0.40507,-3.261508 0.47461,-7.853761 l 0.0455,-3.007516 -0.48075,-0.05024 c -1.09799,-0.11477 -3.627091,0.03443 -3.835869,0.226286 -0.09067,0.08331 -0.09379,0.20428 -0.01917,0.738486 0.110717,0.792301 0.115868,2.640203 0.0094,3.387485 -0.06733,0.472588 -0.247774,1.438941 -0.43212,2.31383 -0.02508,0.118912 -0.182458,0.482382 -0.349787,0.80771 -0.631295,1.227456 -1.533304,1.783849 -2.891874,1.783849 -0.623917,0 -0.773403,-0.02798 -1.213028,-0.227349 -0.550542,-0.249636 -1.373697,-0.976575 -1.616646,-1.427693 -0.07941,-0.147442 -0.171109,-0.26808 -0.203799,-0.26808 -0.03271,0 -0.05978,-0.04325 -0.06015,-0.09615 -7.63e-4,-0.05288 -0.08586,-0.269234 -0.189907,-0.480783 -0.104058,-0.21154 -0.19028,-0.458278 -0.191607,-0.548307 -9.08e-4,-0.09004 -0.05433,-0.287959 -0.117794,-0.439852 -0.08177,-0.195749 -0.115387,-0.557565 -0.115387,-1.242656 0,-0.68509 0.03362,-1.046906 0.115387,-1.242656 0.06351,-0.151893 0.115387,-0.356191 0.115387,-0.454016 0,-0.283798 0.375617,-1.097077 0.821293,-1.778216 0.672943,-1.02849 1.670315,-1.925375 2.871095,-2.581855 l 0.346161,-0.189244 -0.02789,-0.414031 c -0.01535,-0.227712 -0.0586,-0.494847 -0.09615,-0.593626 -0.03752,-0.09879 -0.06832,-0.304958 -0.06832,-0.458159 0,-0.153202 -0.04861,-0.488451 -0.108091,-0.745001 -0.05942,-0.25656 -0.147905,-0.726085 -0.196576,-1.0434 -0.0487,-0.317315 -0.127835,-0.698092 -0.175916,-0.846178 -0.04806,-0.148077 -0.11188,-0.442315 -0.141772,-0.653855 -0.07087,-0.50137 -0.358808,-1.655033 -0.455742,-1.825924 -0.0417,-0.0735 -0.07605,-0.194622 -0.07632,-0.269233 -0.0018,-0.551869 -1.103456,-2.988382 -1.617692,-3.579364 -0.37747,-0.433801 -0.911594,-0.705797 -1.271348,-0.647412 -0.619284,0.100495 -1.321528,0.820902 -1.839743,1.887306 -0.157254,0.32362 -0.320195,0.6534 -0.36208,0.732872 -0.250462,0.475131 -1.062561,3.316917 -1.062561,3.718246 0,0.102258 -0.03998,0.26062 -0.08886,0.351903 -0.04888,0.09128 -0.11715,0.409207 -0.151766,0.706497 -0.03462,0.297289 -0.09607,0.782842 -0.136574,1.078996 -0.04052,0.296164 -0.112008,0.971178 -0.158917,1.500033 -0.04688,0.528864 -0.121992,1.342343 -0.166875,1.807735 -0.140963,1.461828 0.01926,4.718816 0.314026,6.384752 0.03743,0.211549 0.102513,0.597396 0.144606,0.857444 0.04207,0.260048 0.114288,0.543355 0.160434,0.629569 0.04615,0.08622 0.08377,0.219608 0.08359,0.296436 -7.72e-4,0.228466 0.47664,1.710228 0.825264,2.562802 0.241004,0.589392 0.899074,1.898668 1.070338,2.129524 0.09992,0.134685 0.181676,0.26589 0.181676,0.291584 0,0.239815 1.536257,2.016995 2.170177,2.510525 0.18143,0.141244 0.347179,0.277992 0.368339,0.303877 0.02117,0.02589 0.246157,0.179013 0.500008,0.340283 1.64304,1.043808 3.427761,1.387435 5.115494,0.984906 z m -2.346202,2.899879 c -1.36602,-0.128434 -2.444926,-0.426796 -3.615461,-0.999807 -1.189559,-0.582324 -2.092704,-1.308281 -3.385794,-2.721537 -0.169329,-0.185065 -0.875834,-1.185653 -1.122535,-1.589799 -0.143553,-0.235172 -0.304504,-0.494793 -0.357655,-0.576936 -0.05315,-0.08213 -0.117549,-0.201273 -0.143107,-0.264736 -0.02553,-0.06351 -0.160207,-0.340392 -0.299225,-0.615404 -0.333442,-0.659605 -0.811599,-1.870712 -1.078171,-2.730818 -0.118012,-0.380778 -0.240259,-0.761555 -0.271668,-0.846178 -0.06378,-0.171918 -0.253352,-0.952135 -0.373764,-1.538493 -0.04343,-0.21154 -0.118521,-0.540393 -0.166857,-0.730782 -0.04833,-0.190388 -0.115178,-0.571166 -0.148558,-0.846178 -0.03334,-0.275003 -0.123237,-0.915402 -0.199684,-1.423105 -0.208269,-1.383165 -0.208996,-6.952711 -9.08e-4,-8.346333 0.07886,-0.528864 0.168211,-1.18657 0.198475,-1.461573 0.03025,-0.275003 0.09336,-0.655781 0.1402,-0.84617 0.04679,-0.190388 0.123182,-0.53655 0.169673,-0.76925 0.179741,-0.899847 0.713374,-2.751229 0.9645,-3.346227 0.05361,-0.126926 0.13365,-0.317315 0.177969,-0.423089 0.941196,-2.246679 2.054018,-3.692025 3.358783,-4.362406 0.775747,-0.398576 0.968962,-0.445585 1.8054,-0.43928 0.752097,0.0055 0.844107,0.02353 1.286349,0.249927 0.788639,0.4037 1.760616,1.402435 2.301219,2.364564 0.472869,0.841572 1.107171,2.199479 1.107171,2.370206 0,0.0636 0.03462,0.137002 0.07695,0.16315 0.04234,0.02617 0.07695,0.10085 0.07695,0.166003 0,0.06514 0.04716,0.227522 0.104739,0.360853 0.0576,0.133313 0.198248,0.55394 0.312545,0.934718 0.114287,0.380777 0.25605,0.848095 0.315007,1.038484 0.111062,0.358599 0.304931,1.216707 0.425615,1.883763 0.03816,0.211049 0.101295,0.47067 0.140245,0.576936 0.03898,0.106265 0.113252,0.452826 0.165103,0.770141 0.05188,0.317314 0.141918,0.772321 0.200156,1.011118 0.05824,0.238806 0.105857,0.591082 0.105857,0.782843 0,0.395659 0.08777,0.451036 0.538476,0.339692 0.148077,-0.03661 1.165274,-0.0864 2.260416,-0.110626 l 1.991178,-0.04407 -0.0499,-2.970274 c -0.0274,-1.633646 -0.0819,-6.32803 -0.12119,-10.431969 -0.093,-9.731097 -0.16351,-13.817963 -0.24097,-13.969097 -0.0345,-0.06745 -0.40202,-0.23389 -0.81657,-0.36987 -0.41454,-0.135979 -0.813829,-0.279836 -0.887295,-0.319684 -0.0735,-0.03984 -0.184902,-0.07244 -0.247629,-0.07244 -0.06269,0 -0.379169,-0.08654 -0.70318,-0.192312 -0.324029,-0.105772 -0.673533,-0.192313 -0.776691,-0.192313 -0.103149,0 -0.26063,-0.0391 -0.34995,-0.08691 -0.08931,-0.0478 -0.35532,-0.114442 -0.59111,-0.148088 -0.235789,-0.03364 -0.774865,-0.115019 -1.197954,-0.180828 -0.991039,-0.15415 -3.028313,-0.15865 -3.807776,-0.0084 -1.051449,0.202666 -1.242401,0.251237 -1.329287,0.338123 -0.04734,0.04737 -0.147386,0.08612 -0.222252,0.08612 -0.31428,0 -1.498515,0.761816 -1.997233,1.28482 -0.53029,0.556112 -0.750198,0.905036 -1.032551,1.638321 -0.201501,0.523341 -0.222043,0.663953 -0.221053,1.513702 7.72e-4,0.515219 0.0368,1.017153 0.08032,1.115409 0.478112,1.07767 0.978474,1.71123 1.538774,1.948388 0.715382,0.302814 1.668825,0.285191 2.36867,-0.04377 0.440243,-0.206935 0.916583,-0.664768 1.077934,-1.036053 0.289204,-0.66543 0.384439,-0.806825 0.682747,-1.013545 0.257531,-0.178473 0.390381,-0.214844 0.784723,-0.214844 0.395987,0 0.526865,0.03615 0.789294,0.218013 0.972132,0.673692 0.624571,2.332005 -0.761946,3.635502 -0.548598,0.515743 -1.523837,1.108132 -1.824298,1.108132 -0.07359,0 -0.166803,0.03294 -0.20707,0.0732 -0.09966,0.09966 -1.347413,0.311476 -1.833065,0.311175 -0.483191,0 -1.751386,-0.214481 -1.8515,-0.312691 -0.04016,-0.03942 -0.139355,-0.07169 -0.220344,-0.07169 -0.202946,0 -1.278045,-0.65003 -1.640142,-0.991668 -0.713238,-0.67293 -1.26676,-1.581781 -1.527717,-2.508408 -0.0715,-0.253852 -0.16365,-0.582705 -0.204798,-0.730785 -0.09502,-0.341916 -0.04089,-2.376367 0.07677,-2.884679 0.142181,-0.61439 0.411087,-1.340276 0.724704,-1.956242 0.880585,-1.729538 2.535219,-3.144377 4.556992,-3.896593 0.549415,-0.20442 0.646577,-0.231682 1.653879,-0.464157 0.845116,-0.195034 3.966801,-0.193888 5.000115,0.0018 0.401929,0.07613 0.886555,0.166966 1.076944,0.201852 0.374845,0.06869 0.684173,0.149049 1.692348,0.43964 0.577835,0.166557 0.866907,0.259713 2.000037,0.644522 0.14808,0.05029 0.37309,0.137071 0.50001,0.19285 0.36392,0.159934 2.51362,0.958698 2.76929,1.028984 0.12693,0.03489 0.47309,0.15645 0.76926,0.270129 0.29616,0.11368 0.67694,0.238382 0.84617,0.277121 0.16924,0.03873 0.37693,0.100664 0.46155,0.137626 0.25,0.109187 1.27992,0.400271 1.65388,0.467426 0.19039,0.03419 0.46732,0.09632 0.6154,0.138049 0.14808,0.04174 0.52885,0.115826 0.84617,0.164642 0.31731,0.04882 0.80194,0.129834 1.07695,0.180035 0.67206,0.122687 4.72459,0.125079 5.34626,0.0032 0.25385,-0.04979 0.72117,-0.129949 1.03848,-0.17815 0.31732,-0.04819 0.7154,-0.122333 0.88464,-0.164757 0.16923,-0.04242 0.44616,-0.105149 0.6154,-0.139388 0.95677,-0.193604 2.25457,-0.83138 2.85473,-1.402915 0.5738,-0.546435 0.81774,-1.037254 0.82875,-1.66749 0.0132,-0.754978 -0.0991,-0.947067 -1.25108,-2.139009 -0.0583,-0.06038 -0.12286,-0.258505 -0.14336,-0.440271 -0.0547,-0.485072 0.37193,-1.233319 0.84164,-1.476216 1.00438,-0.519389 2.5561,0.781732 3.08269,2.584856 0.068,0.232697 0.16306,0.561842 0.21135,0.731432 0.0961,0.337399 0.0641,1.419823 -0.0571,1.935449 -0.45934,1.954335 -2.18022,3.496561 -4.82919,4.327833 -0.42308,0.132772 -0.87555,0.274844 -1.00549,0.315729 -0.12992,0.04089 -0.31726,0.07433 -0.41632,0.07433 -0.099,0 -0.35622,0.05007 -0.57147,0.111271 -0.21526,0.0612 -0.70293,0.149534 -1.0837,0.196289 -0.38078,0.04676 -0.95195,0.121802 -1.26926,0.166765 -0.72983,0.103398 -3.81615,0.09489 -4.73087,-0.01305 -0.95932,-0.113198 -1.70045,-0.221239 -2.15389,-0.313987 -0.21154,-0.04328 -0.5577,-0.107179 -0.76925,-0.142019 -0.52373,-0.08626 -1.66191,-0.379154 -1.82592,-0.469872 -0.0735,-0.04064 -0.19738,-0.07388 -0.27535,-0.07388 -0.078,0 -0.39865,-0.08726 -0.7126,-0.193904 -1.04817,-0.356046 -1.02008,-0.349638 -1.08442,-0.24749 -0.0642,0.101979 -0.0327,3.675665 0.0906,10.2493 0.0421,2.242357 0.0924,6.791474 0.112,10.109145 0.0254,4.294001 0.0602,6.047322 0.12078,6.0848 0.15003,0.09273 1.77105,0.135066 2.88259,0.07532 1.19244,-0.06414 1.8493,-0.165021 2.532,-0.3889 0.62373,-0.204544 1.02016,-0.191142 1.47332,0.04979 0.36448,0.193795 0.50879,0.339574 0.70633,0.713492 0.2108,0.39903 0.0415,1.001833 -0.38182,1.359851 -0.31482,0.266226 -1.06793,0.624371 -1.52378,0.72464 -1.44333,0.317487 -2.26565,0.395405 -4.063,0.384984 -0.86056,-0.0055 -1.57582,0.0018 -1.58945,0.01608 -0.0136,0.01381 -0.063,1.496307 -0.10973,3.29442 -0.12279,4.725903 -0.18322,5.712808 -0.45929,7.50016 -0.18042,1.168126 -0.2433,1.522483 -0.28096,1.58342 -0.0224,0.03607 -0.10508,0.300388 -0.18395,0.587302 -0.19624,0.714047 -0.29106,0.962102 -0.64049,1.675521 -0.84804,1.731434 -2.61789,3.23958 -4.517839,3.84976 -0.232701,0.07468 -0.492322,0.162814 -0.576936,0.195759 -0.514817,0.200355 -2.157548,0.316324 -3.153912,0.222642 z" />
    </g>
  </g>
</svg>
