<?xml version="1.0" encoding="utf-8"?>
<!-- Generator: Adobe Illustrator 25.1.0, SVG Export Plug-In . SVG Version: 6.00 Build 0)  -->
<svg version="1.1" id="Layer_1" xmlns="http://www.w3.org/2000/svg" xmlns:xlink="http://www.w3.org/1999/xlink" x="0px" y="0px"
	 viewBox="0 0 864 864" style="enable-background:new 0 0 864 864;" xml:space="preserve">
<style type="text/css">
	.st0{fill:#7CC242;}
	.st1{fill:#039CB9;}
</style>
<path class="st0" d="M188.87,716.36c-35.31,0.85-53.45-35.03-43.47-66.42l14.58,4.05c-9.22,27.96,11.67,57.2,41.04,42.66
	c18.99-14.71,9.27-39.9-15.93-48.87c-22.09-8.47-43.17-22.3-51.57-45.63c-11.23-34.88-2.07-82.69,32.4-101.79
	c15.97-8.23,37.64-9.28,55.35-2.83c47.62,18.97,28.08,87.18,0.27,114.07l-10.26-11.07c19.26-18.48,34.45-61.88,13.23-83.7
	c-16.64-14.65-47.7-7.77-56.97,12.42c-14.4,28.6-11.64,73.28,22.41,84.51c21.1,9.03,41.49,21.45,48.6,45.09
	C249.11,690.11,218.68,717.23,188.87,716.36z M272.29,718.79c-3.42-17.1-5.58-34.74-6.48-52.92l-7.02,2.16l-3.78-14.58l10.26-3.24
	c-0.86-39.97,1.43-73.67,6.21-140.4l-6.75,0.54l-2.16-15.12c128.46-15.6,150.17,110.75,32.94,159.02
	c0.54,20.52,2.7,40.05,6.48,58.59L272.29,718.79z M295.24,637.79c19.22-9.42,40.23-23.33,52.38-41.58
	c7.15-10.13,9.98-22.56,9.45-35.37c-1.03-31.35-28.04-47.33-55.62-50.22C298.96,551.95,294.81,612.71,295.24,637.79z M394.87,720.68
	c-3.42-17.1-5.58-34.74-6.48-52.92c-2.83,1.08-5.23,1.32-7.02,2.16l-3.78-14.85l10.26-2.97c-1.31-41.46,2.68-84.75,5.94-140.67
	l-6.48,0.81l-2.16-15.12c119.03-15.96,154.22,100.71,41.58,154.97c18.18,22.68,37.35,38.16,57.51,46.44l-5.67,14.04
	c-21.24-8.82-41.22-24.39-59.94-46.71c0.72,16.92,2.7,33.21,5.94,48.87L394.87,720.68z M417.82,639.68
	c19.32-9.48,40.24-23.35,52.51-41.71c7.07-10.22,10.5-22.7,9.31-35.5c-1.11-30.94-27.97-47.18-55.62-49.95
	C420.93,554.77,417.49,599.96,417.82,639.68z M501.78,720.14l-1.35-15.12l5.94-0.54c-10.37-61.35-3.09-137.6,1.08-200.33h-6.21
	v-15.12h48.33v15.12h-11.88c-4.34,76.3-11.5,133.5-1.08,197.9l9.99-0.81l1.08,15.12L501.78,720.14z M682.67,713.93l-15.12-0.54
	c13-260.38-77.8-298.76-74.79-11.34l-30.51,7.83c-13.21-71.79-5.26-136.79-0.27-220.04l30.24,1.89
	c-1.46,18.41-2.54,41.44-4.05,59.94c9.22-44.78,22.8-66.23,45.09-65.34C685.1,482.58,685.99,664.45,682.67,713.93z M749.9,721.76
	c-55.59-1.56-61.6-87.38-56.7-128.25l-4.32-0.27l0.54-15.12l5.94,0.27c4.51-26.96,17.98-58.26,38.07-71.82
	c41.28-24.96,75.59,11.01,77.49,51.84l-15.12,1.08c-1.89-17.18-11.28-43.92-31.32-45.09c-25.94,5.17-33.24,35.18-39.42,65.07
	l101.25,3.51C822.22,641.53,808.78,717.5,749.9,721.76z M754.49,707.18c40.27-5.32,49.53-68.55,55.62-109.62l-86.67-2.97
	c-1.44,0.36-2.16,7.56-2.16,21.6C721.76,648.19,721.31,704.05,754.49,707.18z"/>
<path class="st1" d="M454.45,471.72c-11.36-72.01-12.51-145.63-1.97-217.8c2.35-7.96-1.03-16.26-10.53-17.42
	c-3.67-0.4-5.17,1.52-6,4.61c-9.28,34.74-20.32,68.98-29.02,103.88c-4.13,10.92-25.96,140.5-42.2,113.43
	c-9.47-29.8-4.51-62.52-4.54-93.32c1.31-45.2,7.32-90.01,14.92-134.57c0.67-4.58-1.53-7.59-5.67-9.25
	c-7.94-2.58-12.09,12.1-14.5,17.54c-13.57,39.1-18.78,80.42-19.85,121.62c-21.6,13.68-35.59,35.06-51.64,54.26
	c-11.99,17.13-18.78-40.18-18.38-46.95c-0.73-9.55,14.48,4.19,25.95-14.05c12.07-15.73,24.51-62.98-8.68-57.89
	c-9.61,2.49-16.48,8.41-22,15.87c-25.26-2.68-50.75-2.24-76.12-3c-3.94-0.06-6.07-0.86-5.94-5.5c0.38-13.37,1.43-26.68,2.43-40.01
	c1.48-19.91,4.52-39.63,6.85-59.44c0.62-5.29-1-9.18-6.5-10.48c-14.19-7.02-22.74,95.97-24.13,108.29
	c-0.38,5.28-1.92,7.23-7.27,7.44c-71.28-1.5-61.85,24.56-64.38-41.94c-0.55-23.91,0.28-47.8,1.86-71.66
	c0.44-6.68-2.91-11.18-8.73-11.81c-6.94-0.75-6.97,4.75-7.7,9.12c-2.68,16.01-3.78,32.2-4.73,48.39
	c-7.5,91.07,19.78,66.21-34.85,84.61c-1.76,0.7-5.09,0.86-3.94,4c1.03,2.82,3.59,1.41,5.7,0.97c9.2-1.92,18.4-3.88,27.65-5.57
	c3.31-0.61,6.47-0.74,6.77,4.42c3.35,37.31,4.69,75.6,15.03,111.74c3.06,13.38,26.02,13.36,21.38,3.62
	c-12.45-37.07-10.45-77.58-15.26-116.18c-0.4-5.08,0.77-6.78,5.47-6.96c15.54-0.61,31.08-1.5,46.63-1.91
	c14.45-0.38,14.17-0.18,13.81,13.9c-0.9,48.74-5.29,100.21-1.83,152.43c1.56,5.22,6.71,7.16,14.25,6.09
	c5.56-0.79,5.36-4.59,5.32-8.77c-0.1-12.71,0.34-25.4,0.91-38.11c1.78-39.85,2.95-79.72,4.17-119.59c0.13-4.37,1.13-6.32,5.91-6.18
	c23.7,0.07,47.38,0.34,71.05,2.02c-9.18,19.17-11.55,42.41-7.68,66.32c1.68,24.97,25.5,61.63,49.46,32.6
	c11.75-17.73,22.33-36.35,38.97-49.87c0.52,28.08-1.22,57.17,8.02,84.14c7.47,21.84,36.94,26.83,46.31,3.76
	c17.96-33.92,22.55-72.95,33.56-109.38c2.03,44.9,2.26,90.79,14.77,134.07c3.29,8.37,9.95,11.74,18.46,9.8
	C467.2,491.08,453.79,480.56,454.45,471.72z M283.04,308.68c22.84-22.09,5.02,45.48-9.01,48.03c-17.19,5.26-4.14-28.87-0.66-35.14
	C275.99,317.04,279,312.57,283.04,308.68z M597.58,313.61c-1.89-4.57-8.48-4.45-11.99-1.79c-28.65,13.94-63.75,16.55-92.01-0.58
	c-8.73-5.47-13.05-4.33-17.95,4.76c-15.03,29.01-21.56,66.47-2.96,95.38c5.32,8.07,13.56,9.35,22.03,8.88
	c7.65-0.42,10.88-6.58,13.44-12.88c10.24-27.17,4.07-57.1-7.1-82.9c29.45,12.86,65.24,9.07,93.21-5.88
	C596.02,317.49,598.53,316.3,597.58,313.61z M492.04,401.55c-8.63-24.8-8.03-48.69-1.43-73.43
	C500.88,343.44,503.41,388.03,492.04,401.55z"/>
</svg>
