<?xml version="1.0" encoding="utf-8"?>
<!-- Generator: Adobe Illustrator 23.1.0, SVG Export Plug-In . SVG Version: 6.00 Build 0)  -->
<svg version="1.1" xmlns="http://www.w3.org/2000/svg" xmlns:xlink="http://www.w3.org/1999/xlink" x="0px" y="0px"
	 viewBox="0 0 720 476.74" style="enable-background:new 0 0 720 476.74;" xml:space="preserve">
<style type="text/css">
	.st0{fill:#A3725E;}
	.st1{fill:#2A3963;}
	.st2{fill:#2DA3A2;}
	.st3{fill:#563629;}
</style>
<g id="_x34_">
	<g>
		<path class="st0" d="M658.02,42.49c-3.85-2.06-7.83-3.86-11.81-5.66c-3.13-1.41-6.24-2.81-9.06-4.78
			c-2.12-1.48-4.15-3.51-5.15-5.85c-0.06-0.13-0.09-0.26-0.14-0.39c5.62-2.02,10.93-4.67,15.12-8.83c2.61-2.6,4.61-6.02,3.98-9.81
			c-0.6-3.56-3.41-6.25-6.92-6.95c-7-1.39-13.26,4.42-16.6,9.95c-1.92,3.17-3.19,6.74-3.51,10.35c-8.32,2.64-16.83,4.66-24.85,8.23
			c-10.09,4.49-21.3,13.21-20.83,25.51c0.01,0.28,0.04,0.56,0.06,0.84c-3.08,0.96-6.03,2.3-8.7,4.01
			c-11.75,7.53-18.85,22.42-15.56,36.27c3.43,14.49,19.24,22.83,33.24,17.93c4.74-1.66,11.87-6.1,10.17-12.34
			c-0.82-3-3.32-1.23-4.63,0.25c-3.58,4.04-9.63,6.28-14.94,5.97c-6.69-0.39-12.96-4.37-15.64-10.6
			c-4.47-10.4,0.83-23.64,9.75-30.11c2.52-1.83,5.3-3.22,8.23-4.16c1.81,3.94,4.75,7.37,8.47,9.48c3.14,1.78,6.76,2.52,10.31,1.72
			c3.57-0.81,6.84-3.47,7.51-7.19c1.61-8.87-8.74-12.34-15.61-12.8c-1.7-0.11-3.41-0.08-5.12,0.07c0.07-3.12,1.33-6.04,3.28-8.69
			c0.35-0.48,1.26-1.5,2.01-2.25c0.75-0.74,1.98-1.81,2.48-2.19c2.03-1.53,4.25-2.82,6.52-3.97c4.65-2.35,9.62-4.01,14.75-5.58
			c3.21-0.98,6.6-1.88,9.99-2.86c0.19,0.56,0.41,1.13,0.66,1.68c2.63,5.68,8.23,9.46,13.72,12.06
			c13.51,6.38,28.04,12.07,35.74,25.78c3.43,6.11,4.48,12.56,2.42,19.3c-1.93,6.31-5.72,12-10.67,16.33
			c-2.38,2.08-5.12,3.89-8.09,4.98c-5.12,1.89-2.38,5.13,1.97,4.99c7.13-0.23,14.08-6.63,18-12.13c4.31-6.03,7.52-13.79,7.44-21.3
			C685.82,62.87,671.83,49.87,658.02,42.49z M632.11,17.55c1.02-2.96,2.86-5.71,5.18-7.8c0.87-0.78,1.9-1.49,2.97-1.93
			c1.15-0.47,2.16-0.6,2.96-0.04c0.41,0.28,0.57,0.93,0.19,1.77c-0.57,1.27-1.84,2.34-2.88,3.23c-2.48,2.13-5.42,3.58-8.43,4.81
			C632.11,17.58,632.11,17.56,632.11,17.55z M590.34,60.94c2.58,0.13,5.59,0.5,7.7,2.13c0.71,0.55,1.25,1.27,1.19,1.72
			c-0.09,0.68-0.61,0.99-1.32,1.27c-3.75,1.5-7.7-1.63-9.96-5.14C588.74,60.9,589.54,60.9,590.34,60.94z"/>
		<path class="st0" d="M631.72,60.32c-3.35-3.4-6.22-6.73-6.94-11.42c-0.07-0.47-0.12-0.96-0.15-1.46c-0.06-1.17,0.48-2.8-1.17-3.28
			c-0.78-0.22-1.58,0.3-2.15,0.88c-5.1,5.22-0.61,13.48,3.06,18.07c2.81,3.52,6.4,6.17,9.91,8.92c5.99,4.7,11.81,9.77,10.75,17.98
			c-0.8,6.26-6.93,10.33-12.68,11.45c-2.93,0.57-6.59,0.03-8.76-2.18c-2.81-2.86-1.55-7.97,0.49-10.95
			c1.39-2.03,3.59-3.55,6.03-3.87c4.17-0.55,2.45-5.02-0.94-5.11c-10.72-0.28-17.44,11.65-13.52,21.09
			c2.64,6.35,9.54,9.14,16.1,8.55c7.16-0.64,14.11-4.26,17.98-10.45c5.13-8.21,2.98-18.61-3.2-25.54
			C642.2,68.11,636.28,64.95,631.72,60.32z"/>
	</g>
</g>
<g id="_x33_">
	<path class="st1" d="M693.68,142.08c2.64-6.8,5.07-13.72,6.24-20.93c1.28-7.89,0.97-17.89-6.57-22.66
		c-2.06-1.3-4.29-2.06-6.67-2.52c-3.06-0.59-8.55,9.19-3.33,10.14c1.37,0.25,2.31,2.13,2.31,3.78c0,1.79-1.18,3.75-2.15,5.12
		c-2.3,3.23-5.62,5.52-9.24,7.21c-7.85,3.65-16.65,4.81-25.22,5.66c-13.82,1.37-27.73,0.13-41.43-1.85
		c-12.97-1.88-26.19-3.86-38.6-8.23c-6.55-2.3-13.32-5.22-18.84-9.5c-2.03-1.57-4.16-3.77-4.13-6.36c0.02-1.65,1.01-3.46,2.49-3.69
		c2.84-0.44,2.2-4.62,2.1-6.8c-0.1-2.05-0.59-5.16-3.36-4.63c-5.79,1.11-11.57,3.94-14.8,9.07c-1.57,2.5-2.57,5.3-2.81,8.25
		c-0.31,3.7,0.39,7.5,0.87,11.16c2.11,16.05,5.38,32.03,9.18,47.77c3.63,15,7.76,30.03,12.97,44.56c2.16,6.01,4.88,11.88,8.77,16.98
		c7.72,10.13,19.32,15.74,31.6,18.19c20.75,4.14,50.79,5.91,62.83-15.94c2.19-3.98,4.3-8.01,6.35-12.07
		c19.9,3.38,42.2-3.07,49.05-23.9C717.35,172.45,709.21,151.11,693.68,142.08z M631.44,170.02c-1.98,0.65-3.97,1.28-5.93,1.97
		c-0.22,0.08-0.44,0.16-0.8,0.3c1.59,0.57,3.04,1.08,4.48,1.63c1.77,0.68,2.46,2.29,1.62,3.64c-0.66,1.05-2.02,1.56-3.34,1.12
		c-3.29-1.1-6.58-2.24-9.9-3.32c-0.24-0.08-0.56-0.15-0.77-0.07c-2.05,0.81-4.07,1.69-6.16,2.64c1.2,0.79,2.33,1.55,3.45,2.29
		c2.13,1.41,1.96,3.74-0.29,4.84c-1.19,0.58-2.38,1.19-3.64,1.85c1.94,1.19,3.78,2.34,5.63,3.46c0.17,0.1,0.46,0.07,0.68,0.03
		c3.15-0.55,6.31-1.05,9.49-1.47c1.49-0.2,2.69,0.36,3.23,1.47c0.5,1.03,0.23,2.29-0.73,2.96c-0.45,0.31-1.04,0.5-1.6,0.61
		c-1.35,0.25-2.72,0.43-4.24,0.69c1.11,0.7,2.09,1.32,3.05,1.94c0.84,0.53,1.68,1.06,2.51,1.6c1.33,0.87,1.66,2.39,0.83,3.58
		c-0.82,1.17-2.37,1.49-3.7,0.68c-1.87-1.13-3.74-2.3-5.76-3.54c0.2,0.86,0.37,1.61,0.54,2.35c0.16,0.66,0.33,1.31,0.47,1.97
		c0.33,1.48-0.47,2.8-1.9,3.16c-1.42,0.36-2.8-0.44-3.19-1.93c-0.78-2.91-1.53-5.84-2.23-8.79c-0.13-0.54-0.37-0.88-0.86-1.16
		c-1.5-0.87-2.98-1.78-4.49-2.68c-0.1-0.06-0.2-0.1-0.39-0.19c-0.02,1.31-0.03,2.54-0.04,3.77c-0.02,2.47-2.06,3.72-4.22,2.55
		c-1.27-0.68-2.53-1.38-3.9-2.12c0.05,2.34,0.1,4.56,0.22,6.77c0.01,0.22,0.23,0.45,0.4,0.62c2.3,2.24,4.59,4.45,6.84,6.65
		c1.42,1.39,1.24,3.49-0.33,4.48c-0.92,0.58-2.13,0.46-3.01-0.37c-1.12-1.05-2.22-2.14-3.34-3.21c-0.05,0.03-0.11,0.06-0.16,0.09
		c0.14,2.24,0.32,4.48,0.48,6.71c0.03,0.49,0.01,1.02-0.14,1.47c-0.38,1.18-1.48,1.89-2.55,1.73c-1.21-0.18-2.11-1.13-2.26-2.47
		c-0.23-2.13-0.41-4.26-0.58-6.39c-0.02-0.23-0.04-0.46-0.06-0.69c-0.06-0.03-0.11-0.06-0.17-0.09c-0.61,0.81-1.21,1.63-1.81,2.45
		c-0.33,0.45-0.66,0.91-1,1.35c-0.94,1.23-2.49,1.41-3.61,0.41c-1.1-0.98-1.33-2.71-0.42-3.99c1.34-1.9,2.78-3.73,4.23-5.54
		c0.59-0.74,1.17-1.49,1.8-2.19c0.33-0.36,0.45-0.72,0.41-1.23c-0.14-2.09-0.22-4.17-0.3-6.36c-0.2,0.1-0.36,0.16-0.5,0.25
		c-1.12,0.7-2.23,1.43-3.33,2.16c-1.95,1.28-4.13,0.13-4.29-2.33c-0.09-1.34-0.15-2.68-0.22-4.11c-0.21,0.12-0.37,0.2-0.52,0.3
		c-1.49,1.02-2.97,2.06-4.41,3.16c-0.25,0.19-0.47,0.56-0.53,0.88c-0.6,3.34-1.09,6.71-1.53,10.09c-0.19,1.47-1.14,2.51-2.35,2.62
		c-1.24,0.11-2.36-0.71-2.77-2.12c-0.1-0.35-0.12-0.76-0.09-1.13c0.15-1.56,0.35-3.1,0.55-4.65c0.02-0.12,0.01-0.24,0.02-0.46
		c-1.82,1.5-3.54,2.97-5.22,4.5c-0.62,0.56-1.29,0.9-2.09,0.79c-1.1-0.15-1.9-0.81-2.25-2.02c-0.38-1.33-0.09-2.51,0.9-3.4
		c1.53-1.38,3.1-2.71,4.69-4.03c0.17-0.14,0.33-0.28,0.62-0.53c-1.26-0.18-2.39-0.33-3.51-0.48c-0.49-0.07-0.99-0.1-1.46-0.23
		c-1.33-0.38-2.17-1.86-1.92-3.39c0.23-1.48,1.47-2.65,2.83-2.5c2.99,0.34,5.96,0.76,8.9,1.34c1.2,0.23,2.11,0.04,3.08-0.76
		c1.34-1.1,2.81-2.02,4.32-3.04c-1.24-0.7-2.42-1.36-3.61-2.01c-2.25-1.23-2.4-3.85-0.23-5.34c1.15-0.78,2.31-1.56,3.57-2.37
		c-1.77-0.98-3.49-1.88-5.17-2.86c-0.74-0.43-1.38-0.51-2.23-0.24c-3,0.98-6.01,1.92-8.99,2.98c-1.48,0.53-2.8,0.15-3.55-1.04
		c-0.69-1.11-0.64-2.69,0.28-3.67c0.44-0.47,1.07-0.83,1.67-1.06c1.37-0.54,2.78-0.95,4.36-1.45c-1-0.53-1.85-0.99-2.71-1.43
		c-1.16-0.6-2.33-1.19-3.5-1.79c-1.67-0.85-2.28-2.6-1.46-4.22c0.83-1.61,2.63-2.13,4.28-1.25c2.11,1.12,4.21,2.25,6.43,3.46
		c-0.47-1.7-0.9-3.27-1.3-4.86c-0.46-1.81,0.57-3.42,2.42-3.8c1.52-0.32,2.96,0.62,3.37,2.22c0.85,3.29,1.68,6.57,2.59,9.82
		c0.09,0.34,0.37,0.72,0.67,0.89c1.77,1.04,3.55,2.03,5.44,3.11c0.01-1.51,0.01-2.89,0.06-4.27c0.06-1.87,1.53-3.12,3.41-2.87
		c0.44,0.06,0.87,0.27,1.26,0.48c1.36,0.76,2.69,1.55,4.13,2.39c0.1-2.37,0.23-4.62,0.34-6.87c0.01-0.22-0.2-0.48-0.37-0.67
		c-2.34-2.51-4.73-5.03-7.12-7.58c-1.55-1.65-1.02-3.97,1.09-4.73c1.13-0.41,2.5-0.09,3.35,0.81c1.04,1.09,2.04,2.22,3.06,3.32
		c0.16,0.18,0.34,0.34,0.62,0.62c0.1-1.14,0.19-2.12,0.28-3.11c0.13-1.38,0.25-2.77,0.42-4.14c0.19-1.55,1.73-2.6,3.42-2.37
		c1.67,0.23,2.86,1.57,2.7,3.06c-0.23,2.09-0.49,4.19-0.7,6.28c-0.02,0.23-0.05,0.46-0.09,0.92c1.03-0.77,1.89-1.4,2.76-2.01
		c0.51-0.36,1.02-0.73,1.55-1.07c1.41-0.92,3.29-0.65,4.34,0.56c1.08,1.24,0.83,2.86-0.59,3.84c-2.78,1.92-5.51,3.91-8.19,5.98
		c-0.41,0.31-0.6,0.64-0.63,1.14c-0.13,2.07-0.29,4.13-0.42,6.32c1.56-0.7,3.03-1.32,4.49-1.94c0.81-0.34,1.62-0.36,2.44-0.05
		c1.21,0.47,1.91,1.54,1.82,2.77c-0.09,1.3-0.19,2.6-0.27,3.91c0,0.01,0.03,0.03,0.11,0.1c1.92-0.85,3.89-1.66,5.85-2.49
		c0.24-0.1,0.38-0.45,0.49-0.71c1.17-2.82,2.37-5.62,3.65-8.37c0.53-1.14,1.85-1.75,3.17-1.53c1.42,0.24,2.48,1.26,2.58,2.54
		c0.03,0.36-0.06,0.76-0.21,1.09c-0.59,1.32-1.22,2.64-1.88,4.09c2.32-0.81,4.52-1.54,6.75-2.19c0.49-0.14,1.04-0.24,1.56-0.19
		c1.39,0.12,2.49,1.04,2.72,2.18C633.42,168.51,632.75,169.59,631.44,170.02z M690.39,186.79c-3.91,6.48-11.35,8.66-18.89,8.38
		c0.27-0.62,0.56-1.24,0.83-1.86c4.57-10.64,9.15-21.29,13.59-31.99C692.29,167.25,694.34,180.25,690.39,186.79z"/>
</g>
<g id="_x32_">
	<g>
		<path class="st2" d="M515.54,187.42c-2.55-1.32-5.09-2.64-7.64-3.96c2.44-2.54,4.84-5.11,7.17-7.75c1.7-1.93,2.2-5.02,0.17-6.97
			c-1.79-1.72-5.15-2.24-6.97-0.17c-2.19,2.48-4.44,4.9-6.72,7.3l-2.18-9.22c-0.59-2.51-3.37-4.39-5.93-3.67
			c-2.57,0.73-4.3,3.24-3.67,5.93l1.38,5.86l-2.87-1.49c-2.29-1.19-5.42-0.84-6.79,1.6c-1.23,2.19-0.84,5.52,1.6,6.79
			c2.76,1.43,5.51,2.86,8.27,4.29c-2.48,2.33-4.99,4.62-7.56,6.85c-1.95,1.69-2.03,5.18-0.17,6.97c2,1.92,4.89,1.98,6.97,0.17
			c1.81-1.57,3.59-3.18,5.36-4.8l1.09,4.63c0.59,2.51,3.37,4.39,5.93,3.67c2.57-0.73,4.3-3.24,3.67-5.93l-0.97-4.12l4.67,2.42
			c2.29,1.19,5.42,0.84,6.79-1.6C518.37,192.02,517.98,188.69,515.54,187.42z"/>
		<path class="st2" d="M461.09,441.94c-2.55-0.07-5.1-0.2-7.64-0.37l4.38-5.85c1.19-1.59,0.94-4.17-0.76-5.32
			c-1.7-1.16-4.05-0.94-5.32,0.76l-2.78,3.71l-0.54-2.44c-0.43-1.94-2.18-3.62-4.3-3.23c-1.9,0.36-3.68,2.23-3.23,4.3
			c0.52,2.34,1.03,4.68,1.55,7.02c-2.6-0.32-5.2-0.67-7.79-1.09c-1.97-0.32-4.07,1.36-4.21,3.35c-0.15,2.13,1.24,3.87,3.35,4.21
			c1.83,0.3,3.66,0.55,5.49,0.79l-2.2,2.94c-1.19,1.59-0.94,4.17,0.76,5.32c1.7,1.16,4.05,0.94,5.32-0.76l1.96-2.61l0.87,3.96
			c0.43,1.94,2.18,3.62,4.3,3.23c1.9-0.36,3.68-2.23,3.23-4.3c-0.48-2.16-0.95-4.32-1.43-6.48c2.71,0.19,5.42,0.34,8.13,0.41
			c1.98,0.06,4.06-1.18,4.21-3.35C464.57,444.24,463.22,442,461.09,441.94z"/>
		<path class="st2" d="M286.31,70.71c0.36-3.2,0.73-6.4,1.09-9.6c3.17,1.54,6.33,3.12,9.44,4.78c2.36,1.26,5.77,0.04,6.82-2.42
			c1.12-2.65,0.11-5.47-2.42-6.82c-2.2-1.17-4.41-2.3-6.64-3.41l4.08-2.78c2.21-1.51,3.01-4.89,1.35-7.11
			c-1.66-2.22-4.74-2.96-7.11-1.35l-3.63,2.47l0.62-5.42c0.3-2.66-1.2-5.56-4.07-5.98c-2.57-0.38-5.66,1.23-5.98,4.07
			c-0.34,2.96-0.67,5.91-1.01,8.87c-3.36-1.42-6.75-2.79-10.17-4.07c-2.5-0.94-5.68-0.27-6.82,2.42c-1,2.37-0.26,5.81,2.42,6.82
			c3.21,1.2,6.4,2.48,9.56,3.81l-8.12,5.53c-2.21,1.51-3.01,4.89-1.35,7.11c1.66,2.22,4.74,2.96,7.11,1.35l5.16-3.51l-0.38,3.33
			c-0.3,2.66,1.2,5.56,4.07,5.98C282.91,75.16,285.99,73.55,286.31,70.71z"/>
		<path class="st2" d="M507.47,453.16l-3.7,0.38l2.64-3.79c1.3-1.86,1.35-4.62-0.62-6.09c-1.76-1.32-4.71-1.36-6.09,0.62
			c-1.44,2.06-2.88,4.13-4.32,6.19c-1.93-2.41-3.9-4.8-5.93-7.13c-1.48-1.7-4.11-2.49-6.05-0.95c-1.7,1.36-2.54,4.22-0.95,6.05
			c1.91,2.19,3.76,4.43,5.58,6.69l-8.27,0.84c-2.25,0.23-4.21,2.43-3.87,4.74c0.34,2.32,2.33,4.11,4.74,3.87l5.26-0.53l-1.63,2.33
			c-1.3,1.86-1.35,4.62,0.62,6.09c1.76,1.32,4.71,1.36,6.09-0.62c1.56-2.23,3.12-4.47,4.68-6.7c1.74,2.42,3.45,4.87,5.1,7.36
			c1.25,1.89,4.28,2.36,6.05,0.95c1.9-1.52,2.28-4.03,0.95-6.05c-1.16-1.76-2.36-3.49-3.57-5.21l4.16-0.42
			c2.25-0.23,4.21-2.43,3.87-4.74C511.88,454.7,509.89,452.91,507.47,453.16z"/>
		<path class="st2" d="M319.93,448.14c-3.02,0.18-6.04,0.36-9.06,0.54c0.83-3.62,1.62-7.25,2.3-10.9c0.5-2.67-0.72-5.73-3.62-6.41
			c-2.55-0.59-5.87,0.76-6.41,3.62c-0.64,3.43-1.37,6.84-2.14,10.24l-6.96-7.17c-1.89-1.95-5.43-2.16-7.36-0.11
			c-1.94,2.05-2.14,5.26-0.11,7.36l4.42,4.56l-3.41,0.2c-2.71,0.16-5.36,2.17-5.28,5.12c0.07,2.64,2.22,5.45,5.12,5.28
			c3.27-0.19,6.54-0.39,9.81-0.58c-0.99,3.45-2.02,6.88-3.14,10.29c-0.85,2.59,0.97,5.79,3.62,6.41c2.85,0.66,5.5-0.85,6.41-3.62
			c0.79-2.4,1.53-4.82,2.25-7.25l3.49,3.6c1.89,1.95,5.43,2.16,7.36,0.11c1.93-2.05,2.14-5.26,0.11-7.36l-3.11-3.21l5.54-0.33
			c2.71-0.16,5.36-2.17,5.28-5.12C324.98,450.78,322.83,447.97,319.93,448.14z"/>
		<path class="st2" d="M332.35,60.66c-1.02,0.58-2.06,1.11-3.08,1.68c0.27-1.16,0.53-2.31,0.8-3.47c0.4-1.73-0.52-3.54-2.23-4
			c-1.62-0.44-3.54,0.61-3.94,2.34c-0.26,1.14-0.53,2.28-0.79,3.42c-1.09-1.38-2.18-2.76-3.3-4.12c-1.07-1.31-3.4-1.23-4.52,0
			c-1.27,1.4-1.21,3.25-0.06,4.64c1.67,2.03,3.26,4.06,4.82,6.1c-2.53,1.3-5.06,2.61-7.62,3.85c-1.53,0.74-2.07,3.08-1.21,4.49
			c0.98,1.6,2.73,1.96,4.36,1.17c1.45-0.7,2.87-1.46,4.31-2.18c-0.32,1.38-0.64,2.76-0.95,4.14c-0.4,1.73,0.52,3.54,2.23,4
			c1.62,0.44,3.54-0.61,3.94-2.34c0.37-1.6,0.74-3.2,1.1-4.79c1.18,1.68,2.35,3.39,3.51,5.14c0.93,1.41,2.81,2.18,4.36,1.17
			c1.38-0.9,2.21-2.98,1.21-4.49c-1.79-2.7-3.65-5.35-5.54-7.97c1.92-1.04,3.85-2.06,5.75-3.14c1.48-0.83,2.11-3.02,1.21-4.49
			C335.77,60.31,333.93,59.77,332.35,60.66z"/>
		<path class="st2" d="M396.58,243.77c-4.73-1.61-9.5-3.1-14.28-4.53c1.46-3.03,2.94-6.05,4.34-9.11c1.09-2.38-0.13-5.61-2.61-6.55
			c-2.57-0.98-5.39,0.07-6.55,2.61c-0.75,1.64-1.56,3.25-2.33,4.88c-0.73-1.65-1.46-3.29-2.18-4.94c-1.09-2.46-3.9-3.81-6.47-2.79
			c-2.44,0.97-3.88,4-2.79,6.47c0.72,1.62,1.44,3.25,2.16,4.87c-2.63-0.67-5.27-1.32-7.92-1.94c-2.55-0.59-5.4,1.65-5.67,4.18
			c-0.31,2.86,1.46,5.05,4.18,5.67c3.97,0.92,7.83,1.91,11.66,2.93c-1.98,3.92-3.95,7.83-6.02,11.7c-1.23,2.31,0.24,5.65,2.61,6.55
			c2.7,1.03,5.23-0.15,6.55-2.61c1.17-2.19,2.27-4.41,3.41-6.62c0.87,1.96,1.74,3.93,2.61,5.89c1.09,2.46,3.9,3.81,6.47,2.79
			c2.44-0.97,3.88-4,2.79-6.47c-1.01-2.27-2.01-4.55-3.02-6.82c3.03,0.95,6.06,1.94,9.13,2.98c2.47,0.84,5.54,0.04,6.55-2.61
			C400.09,247.96,399.22,244.67,396.58,243.77z"/>
		<path class="st2" d="M39.33,261.03c-4.48,0.26-8.95,0.64-13.42,1.07c0.18-3.02,0.4-6.03,0.52-9.06c0.1-2.35-2.01-4.62-4.39-4.57
			c-2.47,0.06-4.46,1.89-4.57,4.39c-0.07,1.62-0.2,3.23-0.28,4.85c-1.16-1.12-2.33-2.25-3.49-3.37c-1.74-1.68-4.54-1.85-6.33-0.12
			c-1.7,1.63-1.87,4.65-0.12,6.33c1.15,1.11,2.3,2.22,3.45,3.32c-2.42,0.34-4.84,0.69-7.25,1.07c-2.32,0.37-3.94,3.2-3.3,5.41
			c0.71,2.48,2.93,3.7,5.41,3.3c3.61-0.58,7.16-1.07,10.7-1.52c-0.32,3.93-0.64,7.86-1.04,11.78c-0.24,2.34,2.11,4.62,4.39,4.57
			c2.59-0.06,4.31-1.9,4.57-4.39c0.23-2.22,0.39-4.44,0.59-6.66c1.39,1.34,2.78,2.68,4.17,4.02c1.74,1.68,4.54,1.85,6.33,0.12
			c1.7-1.63,1.87-4.65,0.12-6.33c-1.61-1.55-3.22-3.1-4.83-4.65c2.84-0.24,5.7-0.44,8.61-0.61c2.34-0.14,4.63-1.84,4.57-4.39
			C43.67,263.33,41.83,260.88,39.33,261.03z"/>
		<path class="st2" d="M718.64,260.57c-3.59-3.07-7.26-6.05-10.97-8.98c2.34-2.16,4.7-4.29,7.01-6.49c1.79-1.71,1.85-4.97,0-6.67
			c-1.92-1.76-4.76-1.82-6.67,0c-1.23,1.18-2.51,2.31-3.75,3.48c-0.06-1.7-0.13-3.4-0.19-5.11c-0.1-2.55-2.1-4.72-4.72-4.72
			c-2.48,0-4.81,2.16-4.72,4.72c0.06,1.68,0.13,3.36,0.19,5.04c-2.08-1.51-4.17-3.01-6.28-4.47c-2.03-1.41-5.33-0.44-6.45,1.69
			c-1.27,2.41-0.48,4.95,1.69,6.45c3.17,2.19,6.21,4.42,9.23,6.66c-3.11,2.75-6.22,5.5-9.39,8.18c-1.89,1.6-1.77,5.05,0,6.67
			c2.01,1.85,4.65,1.7,6.67,0c1.79-1.51,3.54-3.09,5.31-4.62c0.08,2.03,0.15,4.06,0.23,6.09c0.1,2.55,2.1,4.72,4.72,4.72
			c2.48,0,4.81-2.16,4.72-4.72c-0.09-2.35-0.18-4.7-0.27-7.05c2.33,1.89,4.65,3.83,6.98,5.82c1.87,1.6,4.85,1.98,6.67,0
			C720.26,265.48,720.64,262.29,718.64,260.57z"/>
		<path class="st2" d="M160.17,275.4c-3.34-0.12-6.7-0.38-10.05-0.71c1.01-3.08,2.02-6.16,3.03-9.24c0.61-1.86-0.42-4.16-2.36-4.71
			c-1.94-0.55-4.06,0.38-4.71,2.36c-0.61,1.87-1.23,3.75-1.84,5.62c-0.89-1.38-1.78-2.77-2.63-4.18c-1.04-1.72-3.1-2.61-5-1.66
			c-1.69,0.85-2.71,3.27-1.66,5c1.07,1.78,2.19,3.54,3.32,5.28c-2.14-0.36-4.27-0.76-6.37-1.21c-1.97-0.42-4.03,0.31-4.71,2.36
			c-0.58,1.75,0.39,4.29,2.36,4.71c3.55,0.76,7.12,1.38,10.7,1.92c-0.73,2.24-1.47,4.48-2.2,6.72c-0.61,1.86,0.42,4.16,2.36,4.71
			c1.94,0.55,4.06-0.38,4.71-2.36c0.53-1.63,1.07-3.26,1.6-4.89c1.52,2,3.06,3.98,4.67,5.91c1.29,1.55,3.81,1.58,5.27,0.27
			c1.55-1.4,1.56-3.71,0.27-5.27c-0.97-1.16-1.9-2.35-2.83-3.54c1.87,0.13,3.74,0.26,5.61,0.33c2.01,0.07,3.83-1.43,3.96-3.48
			C163.77,277.39,162.18,275.47,160.17,275.4z"/>
	</g>
</g>
<g id="_x31_">
	<g>
		<path class="st3" d="M356.27,182.56c1.95-17.16-0.06-35.01-7.19-50.78c-6.5-14.38-16.61-26.79-29.57-35.18
			c-3.02-1.95-6.18-3.63-9.45-5.05c-8.65-3.65-17.62-5.06-26.88-5.27c-8.07-0.18-16.22,0.83-23.81,3.72
			c-15.58,5.95-28.05,19.25-36.44,33.9c-9.03,15.76-12.92,34.13-13.38,52.42c-0.48,18.75,2.67,37.95,11.16,54.67
			c7.21,14.2,18.78,26.51,33.02,32.86c15.65,6.98,33.63,6.17,49.12-0.58C333.2,250.04,352.47,215.92,356.27,182.56z M293.93,241.96
			c-8.67,0-8.65-13.45,0-13.45C302.6,228.51,302.58,241.96,293.93,241.96z M300.54,169.25c-6.93,5.19-17.2,6.15-24.19,0.94
			c-3.14-2.34-5.02-5.06-6.22-8.57c-0.72-2.11-0.9-3.03-1.07-5.4c-0.17-2.32-0.12-3.26,0.2-5.43c1.32-8.79,6.68-16.22,15-18.64
			c9.73-2.6,20.53,3.6,23.99,13.41C311.37,154.45,307.72,163.87,300.54,169.25z M324.62,214.36c8.67,0,8.65,13.45,0,13.45
			C315.95,227.81,315.96,214.36,324.62,214.36z"/>
		<path class="st3" d="M134.55,385.7c-4.13-2.88-9.53-3.55-14.24-1.75c-4.49,1.72-7.52,5.09-8.42,9.7
			c-0.09,0.32-0.16,0.64-0.19,0.99c-0.15,2.28,0.31,4.56,0.84,6.77c0.22,0.93,0.48,1.87,0.63,2.81c0.14,0.85,0.04,0.37,0.03,0.2
			c0.02,0.2,0.02,0.39,0.03,0.59c0,0.17,0,0.34-0.01,0.51c-0.02,0.11-0.05,0.24-0.1,0.32c-0.04,0.07-0.01,0.08-0.14,0.19
			c-0.01,0.01-0.42,0.31-0.67,0.46c-0.92,0.54-2,0.88-3.06,0.95c-1.93,0.13-3.7-0.69-5.17-1.9c-4.07-3.34-6.49-8.86-8.5-13.6
			c-2.26-5.33-3.85-10.99-4.83-16.69c-1-5.81-1.24-11.77-0.84-17.65c0.35-5.22,0.88-11.49,3.48-16.14c0.98-1.75,2.44-3.32,4.29-3.63
			c0.99-0.17,2.54,0.26,3.66,1.17c3.51,2.84,3.26,8.22,4.72,12.21c2.09,5.67,6.86,9.7,13.14,9.34c6.04-0.34,10.89-4.02,14.01-9.04
			c5.69-9.15,6.41-21.1,4.05-31.39c-2.36-10.3-8.18-20.02-16.34-26.76c-8.8-7.27-19.58-11.35-30.9-12.48
			c-22.52-2.24-44.33,9.04-58.5,26.12c-15.85,19.12-22.51,44.44-22.4,68.96c0.11,24.23,7.44,48.57,23.68,66.92
			c14.94,16.88,36.94,27.31,59.7,25.29c11.31-1,22.45-4.76,31.54-11.68c8.67-6.61,15.15-15.64,18.82-25.9
			c3.54-9.9,4.24-21.33,0.93-31.39C142.09,393.91,139.19,388.94,134.55,385.7z M47.49,319.23c8.67,0,8.65,13.45,0,13.45
			C38.82,332.68,38.84,319.23,47.49,319.23z M59.13,431.73c-13.46,0-13.43-20.88,0-20.88C72.59,410.85,72.57,431.73,59.13,431.73z
			 M75.06,396.67c-8.67,0-8.65-13.45,0-13.45C83.73,383.22,83.72,396.67,75.06,396.67z"/>
		<path class="st3" d="M262.69,285.23c-7.48-4.97-15.76-7.42-24.72-7.7c-8.75-0.27-17.54,1.55-25.79,4.4
			c-15.67,5.42-29.84,14.82-40.8,27.26c-21.57,24.49-31.89,60.51-21.66,92.11c1.23,3.8,2.78,7.48,4.6,11.03
			c8.28,15.83,21.7,28.63,38.02,35.98c17.82,8.03,39.32,9.48,57.28,1.07c28.39-13.3,41.92-44.88,45.22-74.5
			c1.73-15.52,1.13-31.52-3.07-46.62C287.09,311.42,277.46,295.05,262.69,285.23z M195.04,423.02c-8.67,0-8.65-13.45,0-13.45
			C203.71,409.57,203.69,423.02,195.04,423.02z M222.69,357.33c-2.69-1.88-4.19-5.17-4.64-8.34c-0.94-6.62,2.04-13.45,6.35-18.36
			c2.34-2.67,5.26-4.84,8.68-5.77c3.27-0.89,6.69-0.02,9.79,1.82c5.67,4.02,7.91,11.25,6.17,17.92
			c-1.85,7.15-8.83,12.44-15.82,13.96C229.8,359.31,225.69,359.42,222.69,357.33z M240.91,429.91c-13.46,0-13.43-20.88,0-20.88
			C254.37,409.04,254.35,429.91,240.91,429.91z"/>
		<path class="st3" d="M351.74,122.65c2.83,4.36,6.94,7.36,11.8,9.12c9.92,3.59,20.28,1.13,30.35-0.08c2.54-0.3,5.11-0.47,7.68-0.41
			c1.58,0.03,2.94,0.11,4.05,0.58c0.34,0.14,0.68,0.33,0.88,0.61c0.03,0.04,0.03,0.04,0.05,0.06c0.06,0.09,0.13,0.19,0.17,0.28
			c0.04,0.09,0.06,0.13,0.07,0.15c0.06,0.18,0.12,0.36,0.17,0.53c0.5,1.85,0.03,5.12-0.04,7.42c-0.37,12.4-0.23,24.82,0.2,37.22
			c0.42,12.12,0.77,24.37,1.96,36.45c0.51,5.15,1.43,10.32,3.97,14.9c2.56,4.61,6.68,7.94,11.5,9.94c4.35,1.8,9.01,2.34,13.69,2.25
			c3.82-0.07,7.67-0.26,11.41-1.06c3.82-0.81,7.69-2.47,9.97-5.77c2.88-4.16,1.19-9.34-0.29-13.68c-1.84-5.41-2.86-11.18-3.89-16.79
			c-1.1-5.96-1.94-11.96-2.53-17.99c-1.19-12.12-1.41-24.33-0.64-36.48c0.16-2.49,0.2-4.98,0.4-7.47c0.16-2.02,0.66-3.85,2.13-5.29
			c1.44-1.17,3.78-1.12,5.52-1.21c2.93-0.15,5.85-0.44,8.77-0.7c6.23-0.55,12.47-1.09,18.7-1.64c3.06-0.27,6.11-0.54,9.17-0.8
			c2.74-0.24,5.56-0.36,8.24-1.02c5.45-1.34,8.89-5.46,10.2-10.78c1.39-5.63,1.67-11.73,1.9-17.5c0.21-5.2-0.07-10.36-0.18-15.56
			c-0.07-3.4-0.08-6.8-0.41-10.18c-0.33-3.42-0.74-7.41-2.77-10.31c-3.27-4.68-9.21-3.78-14.19-3.52
			c-6.28,0.33-12.56,0.61-18.85,0.82c-12.45,0.43-24.9,0.61-37.35,0.5c-24.94-0.23-49.88-1.74-74.7-4.16
			c-2.62-0.25-4.65-0.6-7.26-1.01c-2.41-0.38-4.92-0.7-7.27,0.2c-4.92,1.88-6.16,6.47-6.78,11.22c-1.54,11.8-2.75,23.54-0.98,35.4
			C347.36,112.3,348.72,118,351.74,122.65z M485.28,90.02c13.46,0,13.43,20.88,0,20.88C471.82,110.9,471.84,90.02,485.28,90.02z
			 M446.47,109.02c8.67,0,8.65,13.45,0,13.45C437.8,122.47,437.81,109.02,446.47,109.02z"/>
		<path class="st3" d="M33.93,141.31c3.57,17.86,6.2,35.89,8.5,53.95c2.2,17.27,2.48,34.3,10.96,49.85
			c2.16,3.97,4.46,8.02,8.01,10.82c3.38,2.67,7.64,3.98,11.86,4.85c13.04,2.69,46.58,0.75,47.71-17.53
			c0.78-12.57-8.51-37.97,11.2-41.27c3.82-0.64,7.71,0.25,11.46,1.2c2.22,0.56,4.51,1.18,6.32,2.59c7.36,5.68,6.67,19.98,6.96,28.11
			c0.08,2.31,0.17,4.64,0.73,6.89c2.03,8.2,10.26,13.86,18.65,14.73c7.25,0.75,19.12-2.96,22.74-9.99c4.57-8.87-0.19-26.9-1.2-36.37
			c-0.97-9.11-1.39-18.25-1.82-27.4c-0.84-18.09-1.4-36.2-1.68-54.31c-0.19-12.37,1.81-28.66-2.5-40.44
			c-2.43-6.66-8.88-11.67-15.93-12.38c-3.6-0.36-7.21,0.3-10.77,0.97c-3.15,0.59-6.38,1.21-9.09,2.92
			c-5.34,3.37-7.43,10.19-7.61,16.5c-0.56,19.36,8.92,42.6,3.16,61.29c-3.19,10.34-16,17.64-26.16,13.03
			c-4.66-2.11-8.19-6.26-10.35-10.9c-9.2-19.82,0.78-69.22-26.37-77.14c-3.92-1.14-8.07-1.16-12.15-1.09
			c-4.52,0.07-9.07,0.24-13.51,1.13c-5.93,1.19-11.52,3.66-16.95,6.33c-4.19,2.06-8.38,4.31-11.6,7.7
			c-8.13,8.57-7.06,19.5-4.55,30.12C31.26,130.95,32.94,136.35,33.93,141.31z M169.57,120.39c8.67,0,8.65,13.45,0,13.45
			C160.9,133.84,160.91,120.39,169.57,120.39z M166.78,166.79c8.67,0,8.65,13.45,0,13.45C158.11,180.24,158.13,166.79,166.78,166.79
			z M82.33,127.81c8.67,0,8.65,13.45,0,13.45C73.67,141.26,73.68,127.81,82.33,127.81z M67.49,211.79c-8.67,0-8.65-13.45,0-13.45
			C76.15,198.34,76.14,211.79,67.49,211.79z M60.06,106.47c13.46,0,13.43,20.88,0,20.88C46.61,127.35,46.63,106.47,60.06,106.47z"/>
		<path class="st3" d="M552.57,305.17c-3.65-12.95-10.56-25.03-20.78-33.91c-5.19-4.5-11.02-8.18-17.33-10.9
			c-6.95-3-14.24-5.18-21.88-4.93c-15.4,0.5-29.96,8.6-41.02,18.92c-11.59,10.81-19.17,25.4-22.15,40.92
			c-3.13,16.33-1.25,33.52,2.22,49.66c3.29,15.3,9.24,30.76,20.13,42.29c9.16,9.7,21.47,16.54,34.76,18.26
			c13.86,1.8,27.45-2.85,37.76-12.19c12.36-11.19,19.17-27.32,24.28-42.84c5.52-16.75,8.69-34.76,6.51-52.39
			C554.54,313.71,553.73,309.41,552.57,305.17z M460.07,386.17c-13.46,0-13.43-20.88,0-20.88
			C473.52,365.29,473.5,386.17,460.07,386.17z M497.61,393.04c-8.67,0-8.65-13.45,0-13.45
			C506.28,379.59,506.26,393.04,497.61,393.04z M507.84,337.03c-2.27,6.88-8.6,11.55-15.86,9.18c-6.67-2.18-10.23-9.31-10.43-15.96
			c-0.19-6.53,1.57-14.31,6.77-18.68c2.69-2.26,6.46-3.84,10.03-3.3c3.45,0.52,6.21,2.91,8.06,5.75
			C510.51,320.71,510.24,329.76,507.84,337.03z"/>
		<path class="st3" d="M403.72,370.16c-3.87,1.65-7.2,5.08-7.55,9.52c-0.01,0.13,0,0.26,0,0.39c-0.03,0.21-0.06,0.42-0.06,0.64
			c-0.04,2.06,0.47,4.09,1.01,6.05c0.23,0.82,0.49,1.64,0.67,2.47c0.03,0.18,0.06,0.37,0.07,0.56c0.01,0.19,0.03,0.38,0.04,0.56
			c0,0.06,0,0.1,0.01,0.14c-0.01,0.01-0.03,0.03-0.05,0.09c-0.02,0.05,0.03,0.06-0.06,0.15c0.07-0.07-0.27,0.22-0.36,0.28
			c-0.76,0.52-1.65,0.9-2.56,1.04c-1.7,0.27-3.33-0.41-4.67-1.44c-3.72-2.84-6.1-7.69-8.04-11.87c-2.27-4.92-4.03-10.13-5.12-15.45
			c-1.09-5.3-1.51-10.78-1.36-16.19c0.13-4.69,0.38-10.47,2.67-14.66c0.78-1.43,2.16-2.69,3.29-2.86c1.33-0.2,2.6,0.34,3.72,1.45
			c2.83,2.8,2.78,7.87,4.49,11.41c2.4,4.96,7.33,7.89,12.8,6.93c5.39-0.94,9.39-4.65,11.87-9.5c4.53-8.89,4.54-19.89,1.74-29.33
			c-2.79-9.41-8.69-18.04-16.58-23.74c-8.35-6.04-18.19-9.11-28.37-9.5c-20.35-0.77-39.35,10.81-51.13,27.2
			c-13.12,18.24-17.83,41.63-16.59,63.97c1.24,22.22,9.09,44.13,24.63,60.13c14.18,14.6,34.32,22.93,54.51,20.06
			c10.05-1.43,19.93-5.38,27.7-12.14c7.43-6.47,12.78-14.91,15.63-24.44c2.75-9.17,2.85-19.55-0.46-28.6
			C422.34,374.51,413.75,365.88,403.72,370.16z M397.81,389.26C397.88,389.6,397.83,389.38,397.81,389.26L397.81,389.26z
			 M336.05,353.87c-8.67,0-8.65-13.45,0-13.45C344.72,340.42,344.71,353.87,336.05,353.87z M345.5,329.38
			c-13.46,0-13.43-20.88,0-20.88C358.95,308.5,358.93,329.38,345.5,329.38z"/>
		<path class="st3" d="M692.53,337.02c-1.26-21.58-6.59-44.97-23.34-60.86c-15.39-14.6-39.44-21.61-59.44-11.48
			c-9.7,4.91-17.26,12.92-23.26,21.5c-6.67,9.54-11.91,20.12-16.24,30.78c-9.32,22.91-13.65,47.77-11.23,72.32
			c1.09,11.05,3.73,21.75,6.95,32.41c2.42,7.98,5.5,16.91,12.21,22.67c8.17,7.02,20.64,7.36,29.15,0.67
			c8.85-6.96,9.19-18.78,7.81-28.73c-0.73-5.27-2.11-10.45-2.63-15.75c-0.48-4.87-0.43-10.27,2-14.7
			c4.55-8.32,16.37-10.87,24.08-4.72c9.8,7.8,4.74,20.02-0.14,28.92c-5.47,9.96-11.35,21.11-6.28,32.4
			c4.15,9.25,15.86,12.85,25.29,8.93c4.78-1.98,7.78-6.06,10.41-10.14c3.07-4.77,5.52-9.91,7.72-15.09
			c9.58-22.59,15.9-46.33,17.03-70.73C692.9,349.27,692.86,343.14,692.53,337.02z M585.07,410.25c-8.67,0-8.65-13.45,0-13.45
			C593.74,396.8,593.73,410.25,585.07,410.25z M583.4,385c-13.46,0-13.43-20.88,0-20.88C596.86,364.12,596.83,385,583.4,385z
			 M636.74,336.3c-1.15,3.25-2.52,7.05-4.86,9.73c-1.58,1.82-3.94,2.4-5.34,0.19c-1.78-2.79-2.13-6.74-2.53-9.9
			c-0.48-3.76-0.43-7.6-0.02-11.36c0.6-5.56,1.3-12.45,5.46-16.77c0.97-1.01,2.41-2.18,3.76-2.26c0.88-0.05,1.62,0.3,2.48,1.02
			c2.2,1.83,3.27,4.84,3.65,7.55C640.17,321.84,639.21,329.33,636.74,336.3z M664.37,296.68c7.15-4.9,14.74,6.21,7.6,11.1
			C664.82,312.68,657.23,301.57,664.37,296.68z M675.97,334.8c-7.15,4.9-14.74-6.21-7.6-11.1
			C675.52,318.81,683.11,329.91,675.97,334.8z"/>
	</g>
</g>
</svg>
