<?xml version="1.0" encoding="utf-8"?>
<!-- Generator: Adobe Illustrator 25.3.1, SVG Export Plug-In . SVG Version: 6.00 Build 0)  -->
<svg version="1.1" id="Layer_1" xmlns="http://www.w3.org/2000/svg" xmlns:xlink="http://www.w3.org/1999/xlink" x="0px" y="0px"
	 viewBox="0 0 432 432" style="enable-background:new 0 0 432 432;" xml:space="preserve">
<style type="text/css">
	.st0{fill:#FDCC99;}
	.st1{fill:#F69799;}
	.st2{fill:#99DAEF;}
</style>
<path class="st0" d="M212.06,250.88c1.28,0.88,2.54,1.79,3.84,2.65c-0.02,0.7-0.05,1.42-0.07,2.1c-0.86,1-1.79,2.07-2.77,3.15
	c-0.18-0.12-0.38-0.23-0.56-0.36C212.94,255.76,212.8,253.18,212.06,250.88z M182.98,181.44c-0.1,1.4-0.22,2.86-0.37,4.34
	c2.19,1.99,4.42,3.93,6.67,5.85c0.15-2.5,0.36-4.94,0.64-7.35c-2.29-2.01-4.56-4.05-6.78-6.14
	C183.13,179.19,183.08,180.28,182.98,181.44z M209.6,246.45c2.33-1.75,4.64-3.51,6.92-5.32c0.07-1.07,0.14-2.14,0.22-3.25
	c-2.02-0.14-4.02-0.15-6.13,0.28c-2.02,1.57-4.07,3.1-6.13,4.63C206.47,243.59,208.22,244.84,209.6,246.45z M120.48,168.73
	c-0.93-0.78-1.95-1.4-3-1.96c0.01-0.02,0.03-0.05,0.04-0.07c8.33-14.17,19.07-24.82,32.35-32.06c-8.97-2.72-18.2-4.64-27.81-5.01
	c-17.79-11.02,47.2-18.39,53.14-16.16c-17.73-15.62-40.71-24.82-64.29-25.95c-19.61-13.31,54.78-7.75,60.14-7.52
	c-9.6-13.88-21.86-25.92-36.09-35.01c-8.76-16.4,34.06,3.82,38.37,7.08c-3.97-14.79-10.25-28.97-18.59-41.81
	c-0.91-1.39-1.09-3.14-0.04-4.53c9.83-6.34,35.18,25.94,38.04,35.12c1.8-6.76,62.26-50.01,53.28-27.57
	C230.75,23.78,221,40.87,219.42,59.2c20.59-9.74,45.17-11.04,66.47-2.83c3.23,1.25,2.9,6.92-0.85,7.09
	c-14.15,0.66-27.71,5.46-39.07,13.72c11.57,2.54,30.67,9.75,8.07,15.65c5.61,0.86,36.76,9.35,24.2,16.91
	c-8.43,1.05-16.87,2.07-25.2,3.79c5.33,2.97,12.2,7.65,12.63,14.27c-0.96,5.15-6.94,5.72-13.31,5.81
	c15.57,7.76,26.91,19.33,35.13,33.12c-1.85,0.46-3.38,1.56-4.38,3.32c-0.72,1.34-1.05,2.78-1.05,4.26c-1.7,2.21-3.41,4.41-5.16,6.58
	c3.18,1.92,6.42,3.75,9.68,5.53c-0.03,1.53-0.04,3.04-0.01,4.53c0.03,0.76,0.04,1.53,0.06,2.29c-3.64-1.92-7.24-3.92-10.79-6.01
	c0.29-1.66,0.34-3.34,0.16-5.04c-0.2-2.52-1.01-4.81-2.38-6.84c2.01-2.53,4.03-5.05,5.97-7.63c-5.23-8.18-11.46-14.99-18.71-20.47
	c-3.8,4.87-7.72,9.65-11.77,14.31c1.58,1.26,3.18,2.49,4.78,3.71c-0.14-0.01-0.28-0.04-0.41-0.05c-2.04-0.15-4.46-0.18-7.04,0.67
	c-0.29,0.08-0.67,0.19-1.09,0.34c-0.08-0.07-0.17-0.13-0.25-0.19c-0.15,0.16-0.3,0.32-0.45,0.48c-1.1,0.51-2.34,1.37-3.17,2.89
	c-0.23,0.38-0.41,0.8-0.6,1.2c-0.22,0.24-0.44,0.49-0.67,0.73c-1.41-1.55-3.07-2.72-4.93-3.5c1.76-1.84,3.5-3.7,5.21-5.58
	c-7.37-6.17-14.4-12.75-21.05-19.69c-3.82,4.35-7.77,8.59-11.86,12.69c0.03,0.03,0.05,0.06,0.08,0.09
	c4.44,4.63,9.06,9.09,13.81,13.39c-1.71,0.82-3.24,1.84-4.62,3.1c-0.73-1.57-2-2.82-3.73-3.54c-0.44-0.18-0.91-0.31-1.39-0.43
	c-2.86-2.75-5.68-5.55-8.42-8.42c-6.43,6.15-13.17,11.98-20.18,17.48c0-0.21,0.01-0.43,0-0.64c-0.03-2.17-0.76-4.01-1.99-5.42
	c0.49-0.39,0.99-0.77,1.47-1.16c5.73-4.64,11.27-9.53,16.61-14.63c-0.52-0.57-1.02-1.16-1.53-1.73c-5.8-2.21-11.62-4.67-17.5-7.15
	c-0.34,0.34-0.67,0.68-1.02,1.01c-4.42,4.28-8.97,8.48-13.64,12.56c2.46,2.84,5,5.61,7.59,8.34c-0.58,0.05-1.16,0.12-1.75,0.23
	c-1.6,0.32-2.99,1.14-4.03,2.31c-2.14-2.3-4.24-4.64-6.3-7.02c-1.14,0.96-2.3,1.9-3.46,2.84c-3.93,0.18-7.08,2.23-8.53,5.88
	c-0.14,0.39-0.24,0.73-0.35,1.09c-0.13,0.1-0.26,0.19-0.4,0.29c-1.63-1.52-3.39-2.69-5.18-3.67c4.8-3.51,9.49-7.17,14.05-11
	c-3.43-4.17-6.75-8.42-9.91-12.81c-0.27-0.37-0.38-0.79-0.4-1.23c-7.95,5.48-14.75,12.49-20.45,21.07c1,0.03,1.94,0.6,2.57,1.47
	c-2.23,0.52-3.96,1.54-5.18,3.01c-0.01-0.01-0.01-0.02-0.02-0.03c-0.03-0.04-0.05-0.1-0.07-0.14c-0.19,0.32-0.36,0.65-0.54,0.97
	c-0.03,0.05-0.08,0.09-0.12,0.15C122.3,170.52,121.48,169.56,120.48,168.73z M174.17,143.66c-4.76-1.99-9.56-3.92-14.42-5.7
	c-2.93,1.26-5.76,2.66-8.45,4.24c0.46,0.27,0.88,0.64,1.21,1.1c2.93,4.07,5.99,8.03,9.18,11.91
	C165.95,151.47,170.09,147.6,174.17,143.66z M237.37,135.28c-4.43,0.85-8.75,2.16-12.94,3.82c2.08,2.16,4.2,4.3,6.36,6.38
	c4.42,4.27,9,8.37,13.71,12.31c3.96-4.53,7.79-9.18,11.48-13.93C250.34,140.29,244.14,137.44,237.37,135.28z M240.38,117.95
	c-0.59-0.01-1.13-0.23-1.6-0.56c-10.96,4.44-24.97,9.4-29.58,20.64c8.5-4.72,17.69-8.05,27.18-10.07c0.06-0.15,0.14-0.29,0.2-0.44
	c0.26,0.08,0.52,0.16,0.78,0.24c6.39-1.3,12.91-2.01,19.42-2.13C252.76,120.74,246.66,118.06,240.38,117.95z M212.12,107.62
	c0.68,5.04,0.81,10.14,0.37,15.18c15.16-11.8,34.42-16.17,53.41-18.9C248.69,96.63,228.26,98.02,212.12,107.62z M202.25,79.92
	c3.82,6.12,6.77,12.97,8.43,20.09c9.04-5.07,19.38-7.8,29.72-8.1c0.77-4.03,7.1-3.91,10.19-5.68c-4.58-2.88-21.11-1.16-15.31-9.9
	c8.87-8.08,19.65-14,31.18-17.29C243.29,55.84,219.08,63.72,202.25,79.92z M181.96,56.12c0.14,0.59,0.06,1.18-0.15,1.73
	c6.07,4.61,11.57,9.94,16.19,15.94c4.21-4.01,8.85-7.49,13.83-10.5c0.03-14.29,4.98-28.38,13.37-39.91
	c-11.67,7.03-22.08,16.07-30.63,26.77c-1.63,2.05-5.38,1.96-6.35-0.76c-3.91-10.95-10.51-20.89-19.07-28.71
	C174.8,31.93,179.13,43.79,181.96,56.12z M200.11,135.61c18.78-32.65-12.81-73.09-44.41-84.14c1.88,1.67,3.71,3.4,5.5,5.18
	C182.39,77.72,196.35,105.92,200.11,135.61z M186.84,111.16c-2.95-9.86-5.5-14.38-10.72-23.24c-11.12-1.1-22.27-1.66-33.42-1.69
	C160.08,92.31,174.29,97.54,186.84,111.16z M193.54,144.38c-0.58-8.76-2.21-15.53-4.62-23.98c-0.22,1.95-1.86,1.84-3.95,1.52
	c-15.56-2.32-31.45-1.43-46.59,2.57C157.69,128.13,176.32,134.88,193.54,144.38z M245.45,354.75c-0.06-0.2-0.13-0.39-0.18-0.59
	c-0.6-2.67-1.02-4.92-1.32-7.03c-1.93-1.03-3.88-2.05-5.79-3.12c1.73-1.29,3.43-2.63,5.14-3.96c-0.04-1.07-0.07-2.13-0.09-3.19
	l0-0.19c0.02-1.37,0.06-2.77,0.12-4.19c-3.56,2.84-7.2,5.59-10.87,8.29c-1.03-0.6-2.03-1.24-3.06-1.85
	c-0.09,0.07-0.19,0.16-0.28,0.23c-0.54,0.44-1.1,0.88-1.69,1.3c0.51,0.21,1.02,0.39,1.53,0.54c1.8,0.46,3.3,1.67,4.12,3.33
	c0.69,1.28,0.87,2.71,0.66,4.1c1.51,0.85,3.02,1.69,4.54,2.52C240.65,352.24,243.05,353.5,245.45,354.75z M170.1,216.1
	c-1.59,1.38-3.32,2.48-5.21,3.26c0.75,0.75,1.47,1.53,2.23,2.27c-7.9,4.43-16.04,8.42-24.4,11.9c-3.95-4.11-7.77-8.34-11.53-12.62
	c-0.45,0.07-1.01,0.13-1.68,0.13c-1.03,0-2.28-0.15-3.57-0.67c-1.39-0.54-2.39-1.45-3.16-2.52c-0.49,0.27-1,0.48-1.54,0.65
	c5,5.95,10.12,11.79,15.47,17.42c-2.08,0.79-4.18,1.5-6.29,2.22c2.26,0.93,4.31,2.42,5.94,4.24c1.62-0.59,3.25-1.15,4.86-1.79
	c2.85,2.89,5.77,5.71,8.72,8.49c1.28-1.56,2.74-2.95,4.37-4.09c-2.39-2.26-4.75-4.54-7.08-6.87c8.36-3.59,16.51-7.68,24.4-12.19
	c3.38,3.18,6.82,6.29,10.34,9.32c3.24,2.79,6.55,5.48,9.9,8.13c1.72-0.81,3.57-1.35,5.53-1.55l-8.01-7.11l0.41-0.71
	c-4.35-3.63-8.6-7.38-12.76-11.24c4.63-2.79,9.18-5.73,13.65-8.8c-0.42-2.01-0.82-4.22-1.12-6.55c-5.54,3.89-11.21,7.61-17.04,11.07
	C171.7,217.72,170.91,216.9,170.1,216.1z M297.34,359.71c-2.51,7.79-5.57,15.2-9.39,21.94c-9.98,17.62-24.05,29.81-42.55,36.76
	c-0.4,0.28-0.87,0.44-1.35,0.5c-12.78,4.57-27.61,6.7-44.63,6.43c-45.15-0.73-76.1-23.31-91.83-66.13c2.04-1.04,3.84-2.61,5.28-4.7
	c0.22-0.33,0.4-0.66,0.6-0.99c0.37,2.35,1.76,4.26,3.9,5.26c0.92,0.45,1.89,0.7,2.88,0.84c0.11,0.12,0.22,0.25,0.33,0.37
	c0.21-0.08,0.42-0.16,0.64-0.24c1.47,0.08,2.97-0.16,4.42-0.75c1.18-0.44,2.16-1.15,2.93-2.05c2.18-0.86,4.36-1.73,6.52-2.62
	c-1.56-1.27-3.08-2.58-4.61-3.88c0.08-1.03,0.19-2.06,0.23-3.09c0.06-1.48,0.12-2.96,0.18-4.45c1.8,1.58,3.62,3.15,5.47,4.68
	c0.15,2.12,0.34,4.04,0.59,5.78c0.25,2.24,1.44,4.07,3.39,5.24c-5.04,2.13-10.12,4.15-15.24,6.07c2.29,2.31,4.63,4.57,7.03,6.76
	c5.52,5.03,11.31,9.76,17.33,14.2c6.31-2.34,12.54-4.89,18.69-7.61c-6.57-4.21-13.03-8.58-19.34-13.17
	c-2.67-1.95-5.31-3.94-7.93-5.96c0.21,0.1,0.42,0.21,0.64,0.3c1.18,0.44,2.4,0.66,3.6,0.66c0.82,0,1.64-0.1,2.43-0.3
	c1.04-0.22,1.92-0.61,2.7-1.1c7.92,5.85,16.09,11.38,24.43,16.61c0.26-0.12,0.52-0.24,0.78-0.36c6.04-2.85,11.99-5.87,17.85-9.06
	c-3.38-2.19-6.72-4.45-10.02-6.75c0.32-0.15,0.65-0.3,0.93-0.49c0.85,0.73,1.86,1.28,3.02,1.62c0.9,0.29,1.89,0.37,2.67,0.42
	c0.15,0,0.31,0.01,0.46,0.01c1.8,0,3.51-0.23,5.13-0.52c1.24,0.8,2.48,1.6,3.73,2.39c2-1.14,3.98-2.31,5.96-3.49
	c1.48,0.7,3.01,1.06,4.57,1.06c1.43,0,2.87-0.3,4.3-0.89c2.06-0.87,3.47-2.62,3.92-4.99c1.42,0.6,2.82,0.98,4.24,1.21
	c-4.06,2.7-8.16,5.33-12.33,7.85c-1.6,0.97-3.21,1.92-4.83,2.86c7.36,4.45,14.89,8.62,22.56,12.5c8.19-5.76,16.14-11.84,23.85-18.24
	c0.68,0.16,1.36,0.27,2.01,0.27c0,0,0.01,0,0.01,0c0.15,0,0.31,0.01,0.46,0.01c3.12,0,6-0.66,8.55-1.24l0.95-0.22
	c0.94-0.19,1.64-0.55,1.84-0.66l0.61-0.3c5.56,2.54,11.17,4.97,16.84,7.24l0.45,1.13l0.47-2.01c2.24-2.21,4.43-4.46,6.55-6.8
	c0.1-0.11,0.22-0.2,0.34-0.29c0.57-1.78,1.07-3.62,1.58-5.45c0.15,0.74,0.3,1.49,0.49,2.3
	C293.26,356.76,294.95,358.73,297.34,359.71z M233.76,381.43c5.98,2.88,12.05,5.58,18.2,8.1c9.18-5.89,17.93-12.44,26.03-19.74
	c-6.33-2.59-12.59-5.34-18.78-8.25C251.01,368.52,242.51,375.16,233.76,381.43z M226.74,386.35c-5,3.42-10.09,6.71-15.25,9.89
	c4.9,2.61,9.82,5.17,14.76,7.69c6.61-3.24,13.1-6.74,19.43-10.53c-5.92-2.51-11.77-5.19-17.54-8.03
	C227.67,385.7,227.21,386.03,226.74,386.35z M180.77,378.82c1.43,0.87,2.85,1.74,4.28,2.59c6.69,3.98,13.48,7.81,20.31,11.53
	c5.65-3.4,11.2-6.96,16.66-10.66c-7.8-4.03-15.44-8.36-22.91-12.98C193.1,372.66,186.98,375.83,180.77,378.82z M155.34,389.83
	c8.55,5.91,17.48,11.26,26.7,16.07c5.82-2.97,11.58-6.08,17.24-9.35c0.03-0.01,0.05-0.03,0.08-0.05
	c-8.48-4.67-16.87-9.53-25.1-14.63C168.03,384.71,161.72,387.37,155.34,389.83z M134.25,390.89c2.84-0.9,5.67-1.84,8.48-2.82
	c-8.45-6.45-16.44-13.48-23.82-21.11c-0.06,0.02-0.13,0.05-0.19,0.07c1.37,2.91,2.81,5.72,4.35,8.39
	C126.38,381.15,130.11,386.31,134.25,390.89z M175.49,409.16c-9.3-5.04-18.34-10.62-26.96-16.79c-3.19,1.15-6.39,2.26-9.61,3.32
	c8.19,7.71,17.77,13.44,28.68,17.19C170.24,411.67,172.87,410.43,175.49,409.16z M192.93,417.84c-3.58-1.63-7.13-3.32-10.64-5.1
	c-0.08-0.04-0.16-0.09-0.24-0.13c-1.88,0.94-3.76,1.87-5.65,2.78C181.63,416.62,187.15,417.44,192.93,417.84z M201.1,414.93
	c5.46-2.12,10.87-4.36,16.21-6.77c0.71-0.32,1.41-0.65,2.12-0.98c-3.75-1.93-7.49-3.88-11.22-5.87c-0.9-0.48-1.79-0.97-2.69-1.46
	c-5.54,3.27-11.17,6.39-16.87,9.37C192.76,411.23,196.91,413.13,201.1,414.93z M233.81,414.47c-2.55-1.27-5.09-2.55-7.62-3.83
	c-5.46,2.61-11,5.05-16.6,7.34C218.35,417.56,226.42,416.4,233.81,414.47z M263.05,400.23c-3.52-1.27-7.01-2.61-10.48-3.99
	c-6.38,3.98-12.94,7.66-19.65,11.07c3.05,1.53,6.11,3.06,9.17,4.57C249.94,409.01,256.91,405.13,263.05,400.23z M284.62,372.44
	c-0.15-0.06-0.3-0.12-0.46-0.18c-2.68,2.49-5.41,4.92-8.24,7.24c-5.51,4.54-11.26,8.77-17.18,12.73c3.13,1.21,6.29,2.36,9.46,3.47
	c5.17-5.02,9.66-10.88,13.47-17.61C282.71,376.27,283.69,374.38,284.62,372.44z M269.54,352.07c-0.01,0.12-0.05,0.24-0.06,0.37
	c0.05-0.05,0.11-0.1,0.16-0.14C269.61,352.22,269.57,352.15,269.54,352.07z M306.5,306.21c0.11-0.01,0.21-0.01,0.31-0.01
	c0.01-0.15,0.02-0.31,0.03-0.46C306.73,305.89,306.62,306.05,306.5,306.21z M242.43,218.53c-0.98-0.82-1.91-2.06-2.37-3.99
	c-0.13-0.47-0.21-0.97-0.33-1.45c-0.91,1.31-2.06,2.67-3.56,3.86l-0.19,1.01c-0.19,0.99-0.38,2.3-0.54,3.63
	c2.36-0.27,4.83-0.83,7.37-1.61c-0.41-0.21-0.83-0.4-1.23-0.61C241.87,219.1,242.14,218.8,242.43,218.53z M297.72,287.49
	c0.86-2.72,1.37-5.52,1.51-8.33c-2.11,1.81-4.32,3.93-6.03,6.01c-2.24,2.74-3.71,5.05-4.61,7.24c-1.12,2.73-1.7,5.48-1.62,7.38
	c1.72-1.88,3.45-3.75,5.12-5.67c0.77,0.19,1.55,0.35,2.32,0.54c0.23-0.37,0.47-0.72,0.69-1.12c0.78-1.39,1.43-2.87,2-4.39
	c-0.21-0.05-0.43-0.09-0.64-0.15C296.89,288.51,297.3,287.99,297.72,287.49z M271.5,204.4c0.13,0.2,0.28,0.39,0.39,0.61
	c1.08,2,0.99,4.33-0.12,6.36c2.24,1.19,4.49,2.36,6.76,3.49c-2.23,2.43-4.49,4.83-6.79,7.2l0.17,0.25l-1.55,1.14
	c-2.02,2.06-4.05,4.12-6.13,6.13c-0.57-0.22-1.14-0.46-1.7-0.69c-2.33,1.42-4.62,2.62-6.86,3.66c1.26,0.54,2.52,1.08,3.79,1.59
	c-8.47,7.93-17.37,15.41-26.63,22.41l1.62,1.16l-1.89,2.86c-0.02,3.3,0.06,6.72,0.22,10.13c2.77,1.52,5.56,2.98,8.38,4.39
	c0.75-1.81,1.53-3.68,2.29-5.54c-3.54-1.78-7.05-3.64-10.5-5.58c10.26-7.56,20.1-15.7,29.45-24.35c1.09-1.01,2.17-2.04,3.25-3.07
	c2.26,0.85,4.55,1.62,6.83,2.4c0.31-1.05,0.69-2.09,1.16-3.12c0.38-0.82,0.8-1.63,1.26-2.4c-1.49-0.51-3-0.97-4.48-1.51
	c4.71-4.65,9.29-9.44,13.73-14.34c2.72,1.27,5.47,2.49,8.23,3.67c3.26-0.53,6.63-0.42,9.94,0.36c0.04,0.01,1.34,0.4,3.07,1.08
	c-0.25-1.79-0.52-3.57-0.81-5.35c-0.74,1.14-1.75,2.07-3.01,2.63c-1.61,0.64-3.19,0.96-4.72,0.96c-1.54,0-3.04-0.32-4.47-0.95
	l-0.25-0.11c-2.14-1.07-3.53-3.02-3.84-5.36l-0.03-0.15c-0.32-1.91-0.64-3.88-0.78-6.04c-0.07-1.09-0.18-2.18-0.28-3.27
	c-1.49,1.75-2.99,3.49-4.51,5.21C278.91,208.4,275.18,206.44,271.5,204.4z M297.23,239.94c0.05-0.07,0.11-0.14,0.16-0.21l-2.58-2.29
	c-2.79,0.41-4.74,3.33-5.37,5.88c-0.53,2.14-0.14,3.8,0.5,4.27c0.19,0.14,0.45,0.25,0.68,0.36c0.8-0.95,1.61-1.89,2.41-2.85
	c2.44,0.61,4.89,1.17,7.34,1.7c0.06,1.06,0.1,2.16,0.15,3.24c2.19,0.52,4.48,1.29,6.71,2.63l0.67-0.38
	c-0.14-3.75-0.33-7.52-0.59-11.3l-0.75,0.77l-0.63-0.38c-0.05,0.03-0.09,0.06-0.14,0.09l-3.53,2.58l-4.49-3.99
	C297.58,240.02,297.4,239.98,297.23,239.94z M109.16,203.09c0,0.01,0,0.02,0,0.03c0-0.01,0.01-0.02,0.01-0.03H109.16z M99.62,221.29
	c0.47,0.25,1.01,0.46,1.64,0.58l0.28,0.05c0.47,0.07,0.93,0.1,1.39,0.1c1.43,0,2.79-0.35,4.03-0.98c-0.25,1.54-0.51,3.07-0.74,4.65
	c0.48,0.27,0.92,0.66,1.25,1.14c3.18,4.52,6.48,8.95,9.86,13.32c-2.17,1.85-3.83,4.44-4.66,7.44c-0.18,0.66-0.29,1.33-0.39,2
	c-2.87,0.65-5.74,1.26-8.64,1.77c-0.04,0.64-0.07,1.29-0.11,1.93l-0.23-0.11l-2.54,4.32c-1.58,2.69-3.32,5.11-4.95,7.13
	C95.9,261.64,98.03,231.33,99.62,221.29z M104.07,245.18c2.77-0.52,5.53-1.1,8.27-1.75c-2.44-3.17-4.83-6.37-7.17-9.61
	C104.75,237.49,104.38,241.27,104.07,245.18z M98.26,306.42c2.61,1.01,4.36,3.09,4.92,5.86c0.39,1.9,0.29,3.69,0.21,5.14l-0.04,0.83
	c-0.03,0.67-0.08,1.32-0.13,1.97c-0.06,0.72-0.12,1.43-0.12,2.16c-0.02,0.85-0.05,1.55-0.08,2.26c-0.07,1.64-0.13,3.19-0.06,4.63
	c0.06,1.75,0.13,3.41,0.24,4.99c0.41-2,0.74-4.1,1.01-6.3c0.44-3.3,0.61-6.71,0.54-10.82c0-0.57-0.05-1.04-0.09-1.52
	c-0.03-0.36-0.06-0.73-0.09-1.09l-0.01-0.36c0-0.3,0.08-0.58,0.12-0.87c-0.46-4-0.82-8.14-1.11-12.35
	c-3.95-3.99-5.52-10.37-6.11-16.29c-0.58,0.27-1.18,0.5-1.79,0.71c0.13,7.13,0.46,14.01,1.01,20.62c0.46,0.1,0.92,0.19,1.37,0.34
	L98.26,306.42z M122.64,301.63c-0.69,0.51-1.39,0.95-2.1,1.34c0.6,0.68,1.22,1.35,1.82,2.03L122.64,301.63z M252.21,306.62
	c1.07-0.17,1.99-0.26,2.89-0.31c-3.04-1.07-6.07-2.2-9.08-3.36c-1.16,1.43-2.35,2.64-3.6,3.54c-0.48,0.35-0.98,0.63-1.48,0.92
	c2.04,0.82,4.1,1.6,6.16,2.38C248.27,307.99,250.06,306.87,252.21,306.62z M188.83,291.38c1.45-0.74,2.87-1.54,4.31-2.31
	c-2.57-0.45-4.95-1.47-6.92-3.04c-0.02-0.01-0.03-0.03-0.05-0.05c-5.87,3.03-11.84,5.87-17.9,8.51c-1.94-1.71-3.84-3.46-5.74-5.21
	c-0.39,0.02-0.78,0.06-1.16,0.06c-3.72,0-7.22-1.15-9.94-3.31c-2.65-2.12-4.59-5.19-5.94-9.4c-0.5-1.56-0.87-3.13-1.15-4.69
	c-1.46,0.38-2.94,0.7-4.44,0.94c-0.23,0.65-0.47,1.24-0.7,1.87c1.07,1.13,2.13,2.27,3.22,3.39c-1.79,0.72-3.59,1.41-5.39,2.08
	c-1.18,2.79-2.39,5.37-3.63,7.69c4.56-1.58,9.08-3.29,13.55-5.15c4.93,4.91,10,9.68,15.19,14.33c-3.9,1.6-7.83,3.13-11.79,4.57
	c-5.83,2.11-11.72,4.04-17.66,5.79c-2.51-2.66-4.97-5.37-7.39-8.12c-0.84,0.82-1.68,1.57-2.54,2.21c0,0,3.83,4.67,4.6,5.03
	c2.78,1.39,4.26,3.43,5.35,5.25c0.27,0.43,0.53,0.87,0.79,1.31c0.51-0.85,1.05-1.69,1.61-2.52c0.41-0.62,0.93-1.36,1.38-1.95
	c1.05-1.36,2.38-2.35,3.99-2.99l0.45-0.16c2.37-0.71,4.8-0.73,7.03-0.07c1.09,0.28,2.05,0.75,2.91,1.35
	c1.2-0.78,2.61-1.28,4.21-1.43c0.39-0.04,0.78-0.06,1.13-0.06l1.86-0.19c3.04-1.17,6.06-2.37,9.06-3.63
	c1.91,1.65,3.84,3.28,5.78,4.9c0.45-0.27,0.92-0.52,1.43-0.72l0.45-0.16c2.09-0.63,4.21-0.68,6.21-0.24
	c-2.6-2.11-5.19-4.25-7.73-6.43C178.5,296.5,183.7,294.01,188.83,291.38z M170.36,349.46c-0.09-0.96-0.16-1.96-0.23-3.03
	c-0.17-2.58-0.29-5.18-0.4-7.75c-0.73,0.32-1.58,0.56-2.57,0.69c-0.79,0.08-1.55,0.08-2.27,0.01c-0.1,2.65-0.21,5.33-0.33,7.99
	c0,0.01,0,0.01,0,0.02c0.63-0.32,1.26-0.61,1.89-0.93C167.75,347.47,169.06,348.46,170.36,349.46z M225.98,307.43
	c0.09,0.04,0.17,0.09,0.26,0.13c-1.35-0.89-2.54-2.07-3.55-3.45c-0.65,0.49-1.29,0.99-1.94,1.47
	C222.52,306.06,224.27,306.67,225.98,307.43z M286.8,181.19c-0.02,0-0.03-0.01-0.05-0.02c0.01,0.03,0.03,0.07,0.04,0.1
	C286.8,181.24,286.8,181.21,286.8,181.19z M219.65,297.89c-0.64-1.83-1.36-4.3-2.01-7.71c-0.58-0.3-1.16-0.58-1.73-0.88
	c-2.45-1.29-4.88-2.64-7.29-4.01c-1.8,1.13-4.03,2.31-6.57,3.11c2.07,1.21,4.12,2.45,6.22,3.6
	C212.01,294.06,215.81,296,219.65,297.89z"/>
<path class="st1" d="M340.41,288.27c-8.06,16.95-10.85,1.54-11.55-2.34c-4.01-22.28-0.34-53.36-0.34-53.36s17.39,1.26,35.18-11.86
	l-2.81-4.03c-0.41,0.1-15.9,11.26-31.69,9.98c0,0,0.6-6.58,1.25-10.01l-5.2-0.64c-0.9,2.28-1.58,10.4-1.58,10.4
	c-0.93,0.33-11.91-1.53-20.57,1.79c-19.66-11.64-41.44,21.3-16.99,29.63c-5.57,5.77-21.26,26.81-27.81,15.89
	c33.18-19.07,2.84-42.93-7.14-13.97c-2.43,8.81-9.37,23.35-11.49,28.52c-8.06,16.95-10.85,1.54-11.55-2.34
	c-4.01-22.28-0.34-53.36-0.34-53.36s17.39,1.26,35.18-11.86l-2.81-4.03c-0.41,0.1-15.9,11.26-31.69,9.98c0,0,0.6-6.58,1.25-10.01
	l-5.2-0.64c-0.9,2.28-1.58,10.4-1.58,10.4c-1.27-0.05-22.91-1.84-27.03,6.64l3.85,3.42c9.09-6.63,16.46-4.25,22-4.18
	c-0.77,9.46-1.18,17.53-1.34,24.44c-5.3,5.58-22.21,28.24-28.73,16.98c31.93-18.03,4.97-42.35-6.63-15.65
	c-5.6,5.78-21.1,26.51-27.6,15.65c30.85-17.22,6.73-41.61-6.05-17.16c-4.75,2.36-9.74,4.28-14.96,3.89
	c0.93-8-2.52-20.97-12.78-18.15c-5.31,2.2-6.55,9.45-4.14,14.26c3.13,6.55,9.7,9.71,9.7,9.71c-0.71,2.02-6.39,21.88-13.19,25.1
	c-2.03,1.55-4.08-0.01-4.65-2.24c-3.16-8.73-2.65-18.51,0.91-27.04l-5.81-2.83c-17.95,28.09-19.09,10.4-15.17-6.26l-1.03-0.14
	c0.12-0.07,0.24-0.14,0.35-0.21c-1.03-1.56-2.05-3.13-3.08-4.69c-5.93,3.4-11.85,6.8-17.77,10.2c-6.25-5.83-14.7-3.34-19.8-7.07
	c-8.95-8.79,3.57-26.89,18.64-16.82c1.22-1.25,2.43-2.5,3.64-3.75c0.42-0.43-7.43-3.94-8.18-4.11
	c-13.06-3.83-27.89,10.29-22.63,23.46c4.7,10.52,17.98,7.74,23.13,11.93c-11.42,7.92-27.01,21.45-25.38,37.49
	c0.58,4.54,3.11,9.13,7.37,10.8c6.37,2.44,12.88-1.87,16.84-6.67c15.57-17.96,8.41-38.99,8.66-39.51c0.15-0.3,6.67-4.22,12.48-7.68
	c-1.54,6.27-2.9,17.36,2.93,21.44c6.86,4.79,12.99-1.71,16.14-5.01c-0.1,6.92-0.37,22.82,8.4,24.93
	c14.61,3.52,24.1-30.79,24.44-30.82c4.55-0.39,9.02-1.54,13.22-3.34c-0.03,28.56,20.67,20.64,34.29,4.37
	c3.43,26.94,25.33,11.3,36.35-2.33c0.7,24.76,3.32,43.41,17.81,34.94c4.91-3.54,9.61-14.75,13.85-26.15
	c9.2,21.74,31.98-4.37,39.97-15.02c4.14,0.24,7.83,2.41,7.52,2.56c-11.42,7.92-27.01,21.45-25.38,37.49
	c0.58,4.54,3.11,9.13,7.37,10.8c6.37,2.44,12.88-1.87,16.84-6.67c15.57-17.96,8.41-38.99,8.66-39.51c0.16-0.33,8.02-5.03,14.19-8.69
	c-0.45,32.18,2.33,54.31,17.72,45.19c7.47-5.43,14.58-28.71,20.1-43.26l-4.84-1.92C354.17,255.26,343.61,281.54,340.41,288.27z
	 M65.81,287.97c-15.48,38.27-38.5,4.43,0.95-19.89C68.25,274.63,67.89,281.58,65.81,287.97z M130.55,259.03
	c-2-0.75-3.9-1.94-5.14-3.69c-1.19-1.68-2.53-7.32,0.79-7.69C131,248.24,130.78,255.31,130.55,259.03z M156.96,259.48
	c0.2-0.14,0.42-0.27,0.62-0.41c-0.09-0.17-0.17-0.33-0.26-0.5c1.2-2.49,2.84-5.66,5.84-6.39c2.58-0.64,3.96,0.74,3.59,3.39
	c-0.61,4.39-6,10.35-10.9,11.66C155.73,264.39,156.1,261.83,156.96,259.48z M191.45,258.81c0.16-0.23,0.32-0.46,0.47-0.68
	c-0.04-0.03-0.09-0.06-0.13-0.1c1.2-2.31,2.79-5.2,5.6-5.86c2.58-0.64,3.96,0.74,3.59,3.39c-0.61,4.39-6,10.35-10.9,11.66
	C189.96,264.12,190.41,261.34,191.45,258.81z M261.24,253.76c2.12-2.43,7.22-2.6,6.35,1.8c-0.61,4.39-6,10.35-10.9,11.65
	C256.48,261.91,257.92,257.5,261.24,253.76z M300.71,287.97c-15.48,38.27-38.5,4.43,0.95-19.89
	C303.15,274.63,302.79,281.58,300.71,287.97z M304.69,258.18c-6.25-5.83-14.7-3.34-19.8-7.07c-7.97-6.42,1.27-23.22,12.65-19.32
	c-0.33,0.39-0.64,0.8-0.9,1.26l3.85,3.42c9.09-6.63,16.46-4.25,22-4.18c-0.49,5.96-0.83,11.36-1.06,16.28
	C315.85,251.78,310.27,254.98,304.69,258.18z"/>
<g>
	<path class="st2" d="M80.4,321.6c0.33-6.63-3.88-7.92-5.87-1.14c-2.55,9.03,5.35,16.06,7.38,24.29
		c3.5,13.65-22.91,11.09-16.34-0.51c6.16-1.04,1.53,4.33,6.18,6.75c10.97-1.58-8.97-20.42-6.88-27.38
		c-1.63-13.25,24.07-18.64,23.6-3.79c-0.35,1.46-0.32,3.65-1.77,4.48C84.28,325.51,79.64,325.27,80.4,321.6z"/>
	<path class="st2" d="M118,319.95c0.7,51.68-33.76,41.52-26.56-4.16c-0.11-4.72,7.7-6.73,9.46-2.4c0.13,10.95-1.33,22.18,1.77,32.93
		c4.76,16.45,11.9-25.19,10.35-29.27c-0.86-3.68,1-4.98,4.42-3.66C118.56,315.16,117.73,317.65,118,319.95z"/>
	<path class="st2" d="M143.04,321.97c-5.32,9.92-9.54,19.58-14.26,2.46c-0.37,7.42-0.53,14.8-0.88,22.21
		c-0.44,2.08,0.62,5.54-1.58,6.69c-8.24,3.81-5.17-16.43-6.18-21.07c0.08-6.42-0.57-12.96,1.26-19.18c6.93-8.12,12.35,7.37,14,12.68
		c3.57-5.02,5.27-16.68,13.25-15.01c1.7,0.44,2.52,1.52,2.59,3.22c0.01,12.61-0.33,25.17-0.95,37.79c0.1,2.32-2.92,2.31-4.54,1.77
		C141.97,344.34,144.36,332.09,143.04,321.97z"/>
	<path class="st2" d="M176.35,321.97c-5.32,9.92-9.54,19.58-14.26,2.46c-0.37,7.42-0.53,14.8-0.88,22.21
		c-0.44,2.08,0.62,5.54-1.58,6.69c-8.24,3.81-5.17-16.43-6.18-21.07c0.08-6.42-0.57-12.96,1.26-19.18c6.93-8.12,12.35,7.37,14,12.68
		c3.57-5.02,5.27-16.68,13.25-15.01c1.7,0.44,2.52,1.52,2.59,3.22c0.01,12.61-0.33,25.17-0.95,37.79c0.1,2.32-2.92,2.31-4.54,1.77
		C175.28,344.34,177.66,332.09,176.35,321.97z"/>
	<path class="st2" d="M186.69,336.42c1.01-5.92-1.61-26.31,7.57-24.67c2.86,0.6,8.56-1.84,9.72,1.64c0.07,3.4-4.39,1.98-6.56,2.46
		c-0.69,0-0.76,0.06-0.76,0.76c-0.33,5.9-1.1,11.91-1.2,17.85c0.26,1.25,2.32,0.09,3.34,0.57c0.88,0.12,1.35,0.87,1.45,1.7
		c0.42,2.9-1.95,2.98-4.16,2.59c-1.64,1.88-0.21,7.35-1.01,10.28c1,1.17,3.75-0.52,5.36,0.13c6.43,3.04-7.89,5.43-10.03,4.48
		C186.02,350.4,187.45,342.06,186.69,336.42z"/>
	<path class="st2" d="M213.75,343.61c-0.35,4.24,2.35,12.82-5.05,9.65c-3.4-6.65-3.16-15.34-3.41-22.78c0.6-5.98-0.67-16.63,5.17-20
		c12-3.25,29.27,8.18,19.56,20.88c-7.57,9.87-21.37,6.53-1.51,14.38c0.87,0.18,1.12,1.39,0.57,2.02
		C224.78,352.45,217.47,346.65,213.75,343.61z M225.93,325.7c0.08-5.8-4.36-9.79-9.34-11.67c-1.08,6.88-1.6,16.12-2.52,23.79
		c-0.06,0.63,0.13,0.76,0.69,0.57C220.17,336.5,225.85,331.74,225.93,325.7z"/>
	<path class="st2" d="M249.27,336.42c1.01-5.92-1.61-26.31,7.57-24.67c2.86,0.6,8.56-1.84,9.72,1.64c0.07,3.4-4.39,1.98-6.56,2.46
		c-0.69,0-0.76,0.06-0.76,0.76c-0.33,5.9-1.1,11.91-1.2,17.85c0.26,1.25,2.32,0.09,3.34,0.57c0.88,0.12,1.35,0.87,1.45,1.7
		c0.42,2.9-1.95,2.98-4.16,2.59c-1.64,1.88-0.21,7.35-1.01,10.28c1,1.17,3.75-0.52,5.36,0.13c6.43,3.04-7.89,5.43-10.03,4.48
		C248.6,350.4,250.02,342.06,249.27,336.42z"/>
	<path class="st2" d="M282.01,347.78c2.91-10.6,5.89-21.16,8.08-31.92c9.2-10.15-4.21,31.39-4.92,33.88
		c-5.61,13.01-12.25-2.64-13.25-9.34c-1.92-5.69-10.16-36.85,3.78-27.13C276.91,324.93,279,336.44,282.01,347.78z"/>
	<path class="st2" d="M295.88,336.42c1.01-5.92-1.61-26.31,7.57-24.67c2.86,0.6,8.56-1.84,9.72,1.64c0.07,3.4-4.39,1.98-6.56,2.46
		c-0.69,0-0.76,0.06-0.76,0.76c-0.33,5.9-1.1,11.91-1.2,17.85c0.26,1.25,2.32,0.09,3.34,0.57c0.88,0.12,1.35,0.87,1.45,1.7
		c0.42,2.9-1.95,2.98-4.16,2.59c-1.64,1.88-0.21,7.35-1.01,10.28c1,1.17,3.75-0.52,5.36,0.13c6.43,3.04-7.89,5.43-10.03,4.48
		C295.21,350.4,296.64,342.06,295.88,336.42z"/>
	<path class="st2" d="M322.95,343.61c-0.35,4.24,2.35,12.82-5.05,9.65c-3.4-6.65-3.16-15.34-3.41-22.78c0.6-5.98-0.67-16.63,5.17-20
		c12-3.25,29.27,8.18,19.56,20.88c-7.57,9.87-21.37,6.53-1.51,14.38c0.87,0.18,1.12,1.39,0.57,2.02
		C333.97,352.45,326.66,346.65,322.95,343.61z M335.12,325.7c0.08-5.8-4.36-9.79-9.34-11.67c-1.08,6.88-1.6,16.12-2.52,23.79
		c-0.06,0.63,0.13,0.76,0.69,0.57C329.36,336.5,335.04,331.74,335.12,325.7z"/>
</g>
<g>
	<g>
		<path class="st2" d="M58.92,202.8c-0.35,4.24,2.35,12.82-5.05,9.65c-4.54-11.12-5.13-30.54-0.06-41.7
			c7.4-4.47,22.95,0.95,24.04,10.28c1.45,10.11-8.96,14.46-14.89,18.55c3.37,2.68,7.85,3.94,11.42,5.93
			C73.48,212.99,61.85,205.78,58.92,202.8z M71.1,184.88c0.08-5.8-4.36-9.79-9.34-11.67c-1.08,6.88-1.6,16.12-2.52,23.79
			c-0.06,0.63,0.13,0.76,0.7,0.57C65.33,195.68,71.02,190.93,71.1,184.88z"/>
		<path class="st2" d="M79.99,195.61c0.26-7.53,0.34-15.73,2.71-23.09c0.64-1.91,3.27-1.34,4.86-1.58c2.86,0.6,8.56-1.84,9.72,1.64
			c0.06,3.4-4.39,1.98-6.56,2.46c-0.7,0-0.76,0.06-0.76,0.76c-0.33,5.9-1.1,11.91-1.2,17.85c0.26,1.25,2.32,0.09,3.34,0.57
			c0.89,0.12,1.35,0.87,1.45,1.7c0.42,2.9-1.96,2.98-4.16,2.59c-0.44-0.06-0.63,0.06-0.63,0.5c0.01,3.27-0.1,6.51-0.38,9.78
			c0.77,1.17,3.86-0.51,5.36,0.13c0.88,0.06,1.26,0.25,1.45,0.88c0.62,3.73-8.92,3.87-11.48,3.6
			C79.56,210.48,80.61,200.59,79.99,195.61z"/>
		<path class="st2" d="M98.6,191.95c-0.96-11.36,7.76-30.51,21.14-20.5c8.71,9.59,5.5,24.81,4.73,36.65
			c-0.06,3.79-4.51,4.17-7.07,2.27c-3.09-2.55-0.72-7.02-0.82-10.41c0-0.44-0.13-0.57-0.57-0.5c-2.94,0.58-6.53-0.37-9.15,0.38
			c-0.33,4.23,0.18,8.59,1.39,12.68c0.62,1.55-1.84,2.1-2.97,1.89C99.74,208.52,99,199.76,98.6,191.95z M116.89,190.94
			c0.06-2.56-0.3-18.17-4.16-15.77c-4.09,5.38-6.75,14.24-5.36,20.38c2.97-0.32,5.87-0.38,8.83-0.5
			C117.67,194.78,116.57,192.09,116.89,190.94z"/>
		<path class="st2" d="M127.61,196.74c0.14-7.73,0.25-15.95,2.4-23.41c2.27-3.64,7.87-2.27,11.17-0.88
			c15.68,6,13.23,28.76,0.95,37.1C126.62,219.37,128.4,209.28,127.61,196.74z M136.32,196.68c-0.06,4.03,0.33,8.03,0.63,12.05
			c0,0.5,0.06,0.5,0.57,0.25c6.9-4.46,10.26-12.78,9.34-20.88c-0.58-5.56-3.75-10.28-8.64-13c-0.44-0.25-0.5-0.19-0.5,0.32
			C137.29,182.53,136.35,189.52,136.32,196.68z"/>
		<path class="st2" d="M169.44,193.08c-11.68,11.58-16.96-12.22-13.12-20.38c1-2.35,3.52-2.68,5.49-1.89
			c3.32,2.64,0.86,8.4,1.52,12.24c-0.41,19.78,5.53,3.37,8.07-4.73c1.04-2.74,0.99-7.04,5.05-6.31c8.31,0.21-1.44,32.14-5.8,35.71
			c-3.33,4.8-12.44,8.43-15.46,1.51c-0.41-1.21-2.02-4.13-0.06-4.61c2.79-0.65,2.07,2.66,3.28,4.1
			C164.2,215.16,168.65,196.98,169.44,193.08z"/>
		<path class="st2" d="M208.04,175.54c-1.14,0.28-3.23-0.68-3.53,0.57c-0.19,6.32-0.79,12.65-0.88,18.99c0.55,1.82,5-0.64,4.54,2.46
			c0.17,2.48-2.24,2.16-4.04,1.96c-1.79,1.91-0.07,7.78-0.38,10.66c0,1.51-0.5,2.34-2.08,2.59c-7.1,1.8-5.16-13.63-5.68-17.98
			c0.33-7.36,0.65-14.86,2.71-21.96c2.48-3.38,9.94-1.47,13.63-0.95c0.76,0.32,1.07,0.95,1.01,1.89
			C213.21,176.35,209.64,175.26,208.04,175.54z"/>
		<path class="st2" d="M241.42,188.86c-0.29,8.15-1.96,18.05-9.34,22.84c-17.33,7.29-20.08-18.27-15.33-29.53
			C224.19,163.34,242.82,169.22,241.42,188.86z M235.68,188.42c-2.78-32.61-15.97,0.67-11.36,13.94
			C228.33,220.47,236.7,195.12,235.68,188.42z"/>
		<path class="st2" d="M251.95,202.8c-0.35,4.24,2.35,12.82-5.05,9.65c-4.54-11.3-5.14-30.36-0.06-41.7
			c7.4-4.46,22.94,0.95,24.04,10.28c1.44,10.11-8.96,14.46-14.89,18.55c3.37,2.68,7.86,3.94,11.42,5.93
			C266.51,212.99,254.88,205.78,251.95,202.8z M264.12,184.88c0.08-5.8-4.36-9.79-9.34-11.67c-1.08,6.88-1.6,16.12-2.52,23.79
			c-0.06,0.63,0.13,0.76,0.69,0.57C258.36,195.68,264.04,190.93,264.12,184.88z"/>
		<path class="st2" d="M301.97,169.99c8.55-1.06,7.65,5.4-0.06,4.61c-0.81,5.09-0.1,11.6-0.7,17.22c-0.97,6.68,1,15.19-2.02,21.07
			c-1.72,0.69-5.05,1.02-5.62-1.26c-1.71-11.96-2.2-24.24-1.01-36.28c0.3-1.39-3.12-0.4-4.1-0.88c-1.49-0.16-1.07-2.38-0.57-3.28
			C291.94,169.19,297.4,170.54,301.97,169.99z"/>
		<path class="st2" d="M309.98,178.57c0.2-3.42-0.82-11.72,5.55-10.72c2.4,0.44,3.03,1.13,3.15,3.53c0.63,7.22-1.2,15.64,0.57,22.21
			c12.31,0.25,7.29,1.09,8.96-13.82c0.51-4.5,0.17-12.89,7-10.66c5.76,3.71-0.94,33.55-1.39,41.13c-0.38,2.63-3.11,2.58-5.11,2.08
			c-3.13-2.9-0.48-11.76-1.26-16.09c-1.72-1.27-5.74,0.05-8.14-0.38c-2.17,2.26,3.04,16.45-1.26,16.66
			c-1.51,0.3-3.68,0.03-4.04-1.77C311.51,199.82,310.14,190.1,309.98,178.57z"/>
		<path class="st2" d="M339.44,195.61c0.26-7.53,0.34-15.73,2.71-23.09c0.64-1.91,3.27-1.34,4.86-1.58c2.86,0.6,8.56-1.84,9.72,1.64
			c0.07,3.4-4.39,1.98-6.56,2.46c-0.69,0-0.76,0.06-0.76,0.76c-0.33,5.9-1.1,11.91-1.2,17.85c0.26,1.25,2.32,0.09,3.34,0.57
			c0.88,0.12,1.35,0.87,1.45,1.7c0.42,2.9-1.95,2.98-4.16,2.59c-0.44-0.06-0.63,0.06-0.63,0.5c0,3.27-0.1,6.51-0.38,9.78
			c0.77,1.17,3.86-0.51,5.36,0.13c0.88,0.06,1.26,0.25,1.45,0.88c0.62,3.73-8.93,3.87-11.48,3.6
			C339.01,210.48,340.06,200.59,339.44,195.61z"/>
	</g>
</g>
</svg>
